<svg width="37" height="48" viewBox="0 0 37 48" fill="currentColor" xmlns="http://www.w3.org/2000/svg">
<g id="Size=48">
<path id="giant horizontal signature (preferred)" d="M12.4947 10.847L18.35 26.1019L18.356 26.096C18.4156 26.2568 18.63 26.3045 18.7551 26.1853L30.996 14.5461C31.1866 14.3674 31.4904 14.5699 31.3951 14.8141L18.7134 47.8436C18.636 48.0521 18.3382 48.0521 18.2548 47.8436L0.0155275 0.33357C-0.0440388 0.172741 0.0751025 0 0.247845 0H36.7262C36.899 0 37.0181 0.172741 36.9585 0.33357L33.1106 10.3526C33.0749 10.4479 32.9795 10.5135 32.8783 10.5135H12.727C12.5542 10.5135 12.4351 10.6862 12.4947 10.847Z" fill="currentColor"/>
</g>
</svg>
