<svg width="62" height="24" viewBox="0 0 62 24" fill="none" xmlns="http://www.w3.org/2000/svg">
<g id="Clip path group">
<mask id="mask0_779_26896" style="mask-type:luminance" maskUnits="userSpaceOnUse" x="0" y="0" width="62" height="24">
<g id="clippath">
<path id="Vector" d="M61.7337 0H0V24H61.7337V0Z" fill="white"/>
</g>
</mask>
<g mask="url(#mask0_779_26896)">
<g id="Group">
<path id="Vector_2" d="M20.9748 17.0879H5.71487C5.71487 17.0879 4.63573 18.9095 4.1291 19.8153C3.57179 20.8121 3.47047 22.1075 4.54454 22.907C5.45142 23.58 6.72814 23.9949 8.18726 23.9949H13.6995C15.5031 23.9949 17.712 22.7198 18.6138 21.1613L20.9697 17.0879H20.9748Z" fill="currentColor"/>
<path id="Vector_3" d="M39.4518 2.83365C40.3536 1.27514 41.0933 0 41.0933 0H35.9966C34.1929 0 31.984 1.27514 31.0822 2.83365L30.991 2.99557C30.0892 4.55408 29.3546 5.8191 29.3546 5.8191H34.4513C36.2549 5.8191 38.4639 4.54396 39.3657 2.98545L39.4569 2.83365H39.4518Z" fill="currentColor"/>
<path id="Vector_4" d="M10.5127 0C8.70911 0 6.50017 1.27514 5.59836 2.83365C5.59836 2.83365 2.08736 8.89058 1.27168 10.3023C0.263469 12.0481 1.78218e-05 14.1429 1.08422 16.9058C1.33754 17.5585 2.41161 20.2404 2.48761 20.4073C2.95371 21.4092 3.69847 22.2948 4.54455 22.907C3.51608 22.0974 3.98725 20.1139 4.36216 19.4662C5.46663 17.5433 15.6095 0 15.6095 0H10.5127Z" fill="currentColor"/>
<path id="Vector_5" d="M28.8581 21.1664L36.4779 8H31.3811C29.5775 8 27.3686 9.27514 26.4667 10.8336L18.8469 24H23.9437C25.7473 24 27.9563 22.7249 28.8581 21.1664Z" fill="currentColor"/>
<path id="Vector_6" d="M41.3112 8C43.3631 8 44.7766 9.10816 45.0553 11.0259C45.0553 11.0259 46.0888 19.5825 46.3522 21.4801C46.5802 23.1398 47.4618 24 49.235 24H42.4309C40.8046 24 39.0769 22.4617 38.854 20.3517L37.3544 8.00506H41.3213L41.3112 8Z" fill="currentColor"/>
<path id="Vector_7" d="M56.637 8C54.8333 8 52.6244 9.27514 51.7226 10.8336L45.2883 21.9709C44.3459 23.2258 43.5961 23.914 42.2535 23.9949C42.3599 24.0051 42.5423 24 42.7146 24H49.2097C51.0133 24 53.2222 22.7249 54.124 21.1664L61.7287 8H56.6319H56.637Z" fill="currentColor"/>
</g>
</g>
</g>
</svg>
