<svg width="24" height="24" viewBox="0 0 24 24" fill="none" xmlns="http://www.w3.org/2000/svg">
<path fill-rule="evenodd" clip-rule="evenodd" d="M20.3315 12.6562L20.3383 12.6562C20.3394 12.6551 20.3405 12.654 20.3417 12.6528C20.8251 12.1713 21.2168 11.6047 21.4981 10.9815C21.533 10.904 21.5663 10.8256 21.5978 10.7465C21.8833 10.0289 22.0195 9.25947 21.9978 8.48622C21.976 7.71297 21.7969 6.95258 21.4715 6.25264C21.1461 5.55271 20.6815 4.92829 20.1068 4.41848C19.5321 3.90867 18.8596 3.52443 18.1314 3.28982C17.4032 3.0552 16.635 2.97527 15.875 3.055C15.1149 3.13474 14.3792 3.37244 13.714 3.75323C13.6343 3.79888 13.5558 3.84647 13.4785 3.89594C12.9115 4.25913 12.4134 4.72381 12.0093 5.26797C11.6081 4.72156 11.1127 4.25411 10.5477 3.88775C10.4687 3.83653 10.3883 3.78728 10.3067 3.74008C9.64104 3.35521 8.9039 3.11402 8.14167 3.03171C7.37944 2.9494 6.60863 3.02775 5.87778 3.26181C5.14693 3.49588 4.47187 3.8806 3.89511 4.39174C3.31835 4.90289 2.85239 5.52938 2.52656 6.23178C2.20074 6.93418 2.02211 7.69727 2.00193 8.47298C1.98174 9.2487 2.12044 10.0202 2.40928 10.739C2.69813 11.4578 3.13086 12.1083 3.68024 12.6495L12.0093 21L20.3315 12.6562ZM12.0093 18.1679L17.5123 12.6506L17.5099 12.6481L18.1111 12.0503L19.0665 11.0925C19.3515 10.7755 19.5799 10.4082 19.7395 10.007C19.9242 9.54275 20.0126 9.04407 19.9985 8.5424C19.9844 8.04074 19.8682 7.54818 19.6579 7.09574C19.4476 6.64335 19.1481 6.24156 18.7796 5.91467C18.4111 5.58783 17.9815 5.34277 17.518 5.19345C17.0547 5.04415 16.5665 4.99344 16.0836 5.04409C15.6008 5.09474 15.1323 5.24583 14.7077 5.48894C14.2829 5.73209 13.9105 6.06242 13.6148 6.46053L11.9999 8.63466L10.3971 6.4516C10.1026 6.05054 9.73063 5.71726 9.30556 5.47149C8.88055 5.22575 8.41117 5.07244 7.92694 5.02015C7.44274 4.96786 6.95286 5.01757 6.48779 5.16651C6.02266 5.31548 5.59137 5.56084 5.22162 5.88853C4.8518 6.21628 4.55146 6.61941 4.34087 7.07339C4.13025 7.52744 4.01434 8.02174 4.00125 8.52501C3.98815 9.02827 4.07819 9.52829 4.26505 9.99329C4.45189 10.4582 4.73111 10.8772 5.08377 11.2246L5.09005 11.2308L12.0093 18.1679Z" fill="currentColor"/>
</svg>
