<svg width="24" height="24" viewBox="0 0 24 24" fill="none" xmlns="http://www.w3.org/2000/svg">
<path d="M13.3906 10.375C13.3906 11.2034 12.7191 11.875 11.8906 11.875C11.0622 11.875 10.3906 11.2034 10.3906 10.375C10.3906 9.54657 11.0622 8.875 11.8906 8.875C12.7191 8.875 13.3906 9.54657 13.3906 10.375Z" fill="currentColor"/>
<path fill-rule="evenodd" clip-rule="evenodd" d="M8.14791 4.60543C10.4258 3.13152 13.3565 3.13152 15.6344 4.60543C18.9868 6.77465 19.7993 11.3302 17.4035 14.5247L16.6818 15.4869L12.672 20.4991H10.2804L15.1005 14.2619L15.8035 13.3247C17.5039 11.0574 16.9272 7.82415 14.5479 6.28457C12.9312 5.23848 10.8511 5.23848 9.23441 6.28457C6.85506 7.82415 6.2784 11.0574 7.97881 13.3247L8.68177 14.2619L10.8911 16.875L9.61169 18.4606L7.10051 15.4869L6.37881 14.5247C3.98299 11.3302 4.79548 6.77465 8.14791 4.60543Z" fill="currentColor"/>
</svg>
