<svg width="24" height="24" viewBox="0 0 24 24" fill="none" xmlns="http://www.w3.org/2000/svg">
<path fill-rule="evenodd" clip-rule="evenodd" d="M12 5C10.3431 5 9 6.34315 9 8C9 9.65685 10.3431 11 12 11C13.6569 11 15 9.65685 15 8C15 6.34315 13.6569 5 12 5ZM7 8C7 5.23858 9.23858 3 12 3C14.7614 3 17 5.23858 17 8C17 10.7614 14.7614 13 12 13C9.23858 13 7 10.7614 7 8Z" fill="currentColor"/>
<path fill-rule="evenodd" clip-rule="evenodd" d="M7.49092 14H16.5094L21.9639 21.5H7.49092L10.9908 19.5H18.0364L15.4909 16H8.50937L4.5 21.5H2L7.49092 14Z" fill="currentColor"/>
</svg>
