<svg width="24" height="24" viewBox="0 0 24 24" fill="none" xmlns="http://www.w3.org/2000/svg">
<path fill-rule="evenodd" clip-rule="evenodd" d="M9.60352 4.68945C12.6411 4.68945 15.1035 7.15189 15.1035 10.1895C15.1035 13.227 12.6411 15.6895 9.60352 15.6895C6.56595 15.6895 4.10352 13.227 4.10352 10.1895C4.10352 7.15189 6.56595 4.68945 9.60352 4.68945ZM17.1035 10.1895C17.1035 6.04732 13.7457 2.68945 9.60352 2.68945C5.46138 2.68945 2.10352 6.04732 2.10352 10.1895C2.10352 14.3316 5.46138 17.6895 9.60352 17.6895C13.7457 17.6895 17.1035 14.3316 17.1035 10.1895Z" fill="currentColor"/>
<path fill-rule="evenodd" clip-rule="evenodd" d="M18.8828 20.8965L14.0898 16.1895H17.0898L20.297 19.4823L18.8828 20.8965Z" fill="currentColor"/>
</svg>
