<svg width="24" height="24" viewBox="0 0 24 24" fill="none" xmlns="http://www.w3.org/2000/svg">
<path fill-rule="evenodd" clip-rule="evenodd" d="M11.1035 4.68945C14.9695 4.68945 18.1035 7.82346 18.1035 11.6895C18.1035 15.5554 14.9695 18.6895 11.1035 18.6895C7.23752 18.6895 4.10352 15.5554 4.10352 11.6895C4.10352 7.82346 7.23752 4.68945 11.1035 4.68945ZM20.1035 11.6895C20.1035 6.71889 16.0741 2.68945 11.1035 2.68945C6.13295 2.68945 2.10352 6.71889 2.10352 11.6895C2.10352 16.66 6.13295 20.6895 11.1035 20.6895C16.0741 20.6895 20.1035 16.66 20.1035 11.6895Z" fill="currentColor"/>
<path fill-rule="evenodd" clip-rule="evenodd" d="M14.6035 12.6895H2.63574V10.6895H17.6035L14.6035 12.6895Z" fill="currentColor"/>
<path fill-rule="evenodd" clip-rule="evenodd" d="M12.4721 20.1851C12.4719 20.1853 12.4718 20.1856 11.6035 19.6894C10.7353 19.1933 10.7351 19.1935 10.735 19.1937L10.7367 19.1908L10.749 19.1685C10.7607 19.1472 10.7792 19.113 10.8035 19.0666C10.8521 18.9737 10.9239 18.8321 11.0112 18.6465C11.186 18.2749 11.4222 17.7294 11.659 17.0484C12.1344 15.6818 12.6035 13.7959 12.6035 11.6894C12.6035 9.58297 12.1344 7.69711 11.659 6.33047C11.4222 5.64948 11.186 5.10397 11.0112 4.73243C10.9239 4.54684 10.8521 4.40519 10.8035 4.31233C10.7792 4.26591 10.7607 4.23173 10.749 4.21039L10.7367 4.18811L10.735 4.18516C10.7351 4.18537 10.7353 4.18559 11.6035 3.68945C12.4718 3.19331 12.4719 3.19356 12.4721 3.19382L12.4732 3.19584L12.4754 3.19966L12.4818 3.21114L12.503 3.24932C12.5206 3.28145 12.5451 3.32686 12.5754 3.38493C12.6362 3.50105 12.7207 3.66799 12.8208 3.88084C13.021 4.30618 13.2849 4.91692 13.548 5.67343C14.0727 7.18178 14.6035 9.29592 14.6035 11.6894C14.6035 14.083 14.0727 16.1971 13.548 17.7055C13.2849 18.462 13.021 19.0727 12.8208 19.4981C12.7207 19.7109 12.6362 19.8779 12.5754 19.994C12.5451 20.052 12.5206 20.0974 12.503 20.1296L12.4818 20.1678L12.4754 20.1792L12.4732 20.1831L12.4721 20.1851ZM10.735 19.1937C10.7349 19.1939 10.7349 19.194 10.735 19.1937V19.1937ZM10.735 4.18516C10.7349 4.18495 10.7349 4.18495 10.735 4.18516V4.18516Z" fill="currentColor"/>
<path fill-rule="evenodd" clip-rule="evenodd" d="M9.78941 3.10875C9.7896 3.10848 9.78978 3.10822 10.6035 3.68946C11.4172 4.2707 11.4174 4.27047 11.4176 4.27025L11.4182 4.26939L11.4157 4.27298L11.4005 4.29495C11.386 4.31607 11.3631 4.34999 11.3329 4.3961C11.2726 4.48836 11.1834 4.62916 11.0748 4.81367C10.8575 5.18317 10.5644 5.72501 10.2706 6.40069C9.68021 7.75854 9.10352 9.61935 9.10352 11.6895C9.10352 13.7596 9.68021 15.6204 10.2706 16.9782C10.5644 17.6539 10.8575 18.1957 11.0748 18.5653C11.1834 18.7498 11.2726 18.8906 11.3329 18.9828C11.3631 19.0289 11.386 19.0628 11.4005 19.084L11.4157 19.1059L11.4176 19.1087C11.4174 19.1084 11.4172 19.1082 10.6035 19.6895C9.78978 20.2707 9.7896 20.2704 9.78941 20.2702L9.78794 20.2681L9.78519 20.2642L9.77702 20.2526L9.75041 20.2141C9.72825 20.1818 9.69746 20.1361 9.65926 20.0777C9.5829 19.961 9.4768 19.7932 9.35096 19.5793C9.09956 19.1519 8.76767 18.5375 8.43645 17.7757C7.77682 16.2585 7.10352 14.1194 7.10352 11.6895C7.10352 9.25957 7.77682 7.12038 8.43644 5.60323C8.76767 4.84141 9.09956 4.227 9.35096 3.79963C9.4768 3.58569 9.5829 3.4179 9.65926 3.30118C9.69745 3.2428 9.72825 3.19712 9.75041 3.16478L9.77702 3.1263L9.78519 3.11468L9.78794 3.1108L9.78941 3.10875ZM11.4182 4.26939C11.4183 4.2692 11.4183 4.26917 11.4182 4.26939V4.26939ZM11.4182 19.1095C11.4183 19.1097 11.4183 19.1098 11.4182 19.1095V19.1095Z" fill="currentColor"/>
</svg>
