<svg width="16" height="16" viewBox="0 0 16 16" fill="none" xmlns="http://www.w3.org/2000/svg">
<path fill-rule="evenodd" clip-rule="evenodd" d="M2.21842 3.5H1V1.5H3.95301L4.99587 8.8H10.838L12.8608 8.80781L12.381 10.8H3.26128L2.21842 3.5Z" fill="currentColor"/>
<path d="M6.5 14.25C6.5 13.5596 5.94036 13 5.25 13C4.55964 13 4 13.5596 4 14.25C4 14.9404 4.55964 15.5 5.25 15.5C5.94036 15.5 6.5 14.9404 6.5 14.25Z" fill="currentColor"/>
<path d="M11.5 14.25C11.5 13.5596 10.9404 13 10.25 13C9.55964 13 9 13.5596 9 14.25C9 14.9404 9.55964 15.5 10.25 15.5C10.9404 15.5 11.5 14.9404 11.5 14.25Z" fill="currentColor"/>
<path d="M12 7.5V1.5M9 4.5H15" stroke="currentColor" stroke-width="2"/>
</svg>
