<svg width="16" height="16" viewBox="0 0 16 16" fill="none" xmlns="http://www.w3.org/2000/svg">
<path fill-rule="evenodd" clip-rule="evenodd" d="M2.71842 3.5H1.5V1.5H4.45301L5.49587 8.8H11.338L12.2038 5.5H6.36667L9.5 3.5H14.7962L12.881 10.8H3.76128L2.71842 3.5Z" fill="currentColor"/>
<path d="M7 14.25C7 13.5596 6.44036 13 5.75 13C5.05964 13 4.5 13.5596 4.5 14.25C4.5 14.9404 5.05964 15.5 5.75 15.5C6.44036 15.5 7 14.9404 7 14.25Z" fill="currentColor"/>
<path d="M12 14.25C12 13.5596 11.4404 13 10.75 13C10.0596 13 9.5 13.5596 9.5 14.25C9.5 14.9404 10.0596 15.5 10.75 15.5C11.4404 15.5 12 14.9404 12 14.25Z" fill="currentColor"/>
</svg>
