<svg width="16" height="16" viewBox="0 0 16 16" fill="none" xmlns="http://www.w3.org/2000/svg">
<path fill-rule="evenodd" clip-rule="evenodd" d="M6 5.50001L2 5.5L2 3.5L6 3.50001L6 5.50001Z" fill="currentColor"/>
<path fill-rule="evenodd" clip-rule="evenodd" d="M14 6L9 6L9 4L14 4L14 6Z" fill="currentColor"/>
<path fill-rule="evenodd" clip-rule="evenodd" d="M9.5 10.5L14 10.5L14 12.5L9.5 12.5L9.5 10.5Z" fill="currentColor"/>
<path fill-rule="evenodd" clip-rule="evenodd" d="M2 10.5L7 10.5L7 12.5L2 12.5L2 10.5Z" fill="currentColor"/>
<path fill-rule="evenodd" clip-rule="evenodd" d="M7.5 2L7.5 7L5.5 7L5.5 2L7.5 2Z" fill="currentColor"/>
<path fill-rule="evenodd" clip-rule="evenodd" d="M10.5 9L10.5 14L8.5 14L8.5 9L10.5 9Z" fill="currentColor"/>
</svg>
