<svg width="16" height="16" viewBox="0 0 16 16" fill="none" xmlns="http://www.w3.org/2000/svg">
<mask id="path-1-inside-1_1294_3919" fill="white">
<path d="M13.8368 8.46905L8.00648 14.5L2.17617 8.46905M2.17617 8.46905C1.7916 8.0782 1.48869 7.60843 1.2865 7.0893C1.08431 6.57018 0.987218 6.01295 1.00135 5.45271C1.01548 4.89247 1.14052 4.34135 1.3686 3.83407C1.59667 3.32678 1.92285 2.87431 2.32658 2.50515C2.73031 2.13599 3.20285 1.85814 3.71444 1.68909C4.22604 1.52004 4.76561 1.46346 5.29917 1.5229C5.83273 1.58235 6.34873 1.75654 6.81466 2.0345C7.2806 2.31246 7.68639 2.68817 8.00648 3.13798C8.32795 2.69144 8.73421 2.31901 9.19983 2.044C9.66545 1.76899 10.1804 1.59731 10.7125 1.53973C11.2445 1.48214 11.7823 1.53987 12.292 1.70931C12.8017 1.87876 13.2724 2.15626 13.6747 2.52446C14.0771 2.89266 14.4023 3.34362 14.63 3.84913C14.8578 4.35464 14.9832 4.90381 14.9984 5.46227C15.0136 6.02073 14.9183 6.57646 14.7184 7.09467C14.5186 7.61289 14.2184 8.08243 13.8368 8.47392"/>
</mask>
<path d="M15.2747 9.85914L16.6648 8.42121L13.789 5.64103L12.3989 7.07896L15.2747 9.85914ZM8.00648 14.5L6.56855 15.8901L8.00648 17.3775L9.44441 15.8901L8.00648 14.5ZM2.17617 8.46905L3.6141 7.07896L3.60797 7.07262L3.60179 7.06634L2.17617 8.46905ZM8.00648 3.13798L6.37695 4.29756L7.99704 6.57421L9.62961 4.3065L8.00648 3.13798ZM12.4046 7.07788L11.0086 8.51003L13.8729 11.3021L15.2689 9.86997L12.4046 7.07788ZM12.3989 7.07896L6.56855 13.1099L9.44441 15.8901L15.2747 9.85914L12.3989 7.07896ZM9.44441 13.1099L3.6141 7.07896L0.738235 9.85914L6.56855 15.8901L9.44441 13.1099ZM3.60179 7.06634C3.41078 6.87221 3.2554 6.63373 3.15013 6.36344L-0.577137 7.81516C-0.278027 8.58312 0.172427 9.2842 0.750537 9.87176L3.60179 7.06634ZM3.15013 6.36344C3.04481 6.09302 2.99323 5.79979 3.00071 5.50313L-0.998016 5.40228C-1.01879 6.22611 -0.876194 7.04733 -0.577137 7.81516L3.15013 6.36344ZM3.00071 5.50313C3.00819 5.20648 3.07445 4.91722 3.19271 4.65419L-0.455519 3.01394C-0.793416 3.76549 -0.977239 4.57845 -0.998016 5.40228L3.00071 5.50313ZM3.19271 4.65419C3.3109 4.39132 3.4771 4.16318 3.67618 3.98114L0.976969 1.02915C0.36859 1.58544 -0.117553 2.26224 -0.455519 3.01394L3.19271 4.65419ZM3.67618 3.98114C3.87503 3.79933 4.10239 3.66726 4.34194 3.5881L3.08695 -0.209925C2.30331 0.0490149 1.58559 0.472649 0.976969 1.02915L3.67618 3.98114ZM4.34194 3.5881C4.58125 3.50902 4.83128 3.48315 5.07771 3.5106L5.52063 -0.464798C4.69993 -0.556236 3.87083 -0.468946 3.08695 -0.209925L4.34194 3.5881ZM5.07771 3.5106C5.32423 3.53807 5.56676 3.6189 5.79002 3.75209L7.83931 0.316911C7.13069 -0.105821 6.34123 -0.373371 5.52063 -0.464798L5.07771 3.5106ZM5.79002 3.75209C6.01357 3.88545 6.21473 4.0696 6.37695 4.29756L9.636 1.97839C9.15805 1.30674 8.54764 0.739471 7.83931 0.316911L5.79002 3.75209ZM9.62961 4.3065C9.79242 4.08035 9.99366 3.89793 10.2169 3.76606L8.18272 0.321937C7.47475 0.740085 6.86348 1.30252 6.38335 1.96945L9.62961 4.3065ZM10.2169 3.76606C10.4399 3.63435 10.6819 3.55472 10.9277 3.52811L10.4972 -0.448662C9.67893 -0.360089 8.89097 -0.0963807 8.18272 0.321937L10.2169 3.76606ZM10.9277 3.52811C11.1734 3.50152 11.4226 3.52792 11.6611 3.6072L12.9229 -0.188571C12.1419 -0.448182 11.3157 -0.537245 10.4972 -0.448662L10.9277 3.52811ZM11.6611 3.6072C11.8998 3.68655 12.1263 3.81849 12.3245 3.99984L15.025 1.04908C14.4186 0.494033 13.7036 0.0709585 12.9229 -0.188571L11.6611 3.6072ZM12.3245 3.99984C12.5229 4.18141 12.6886 4.40879 12.8066 4.67072L16.4535 3.02754C16.116 2.27846 15.6313 1.6039 15.025 1.04908L12.3245 3.99984ZM12.8066 4.67072C12.9247 4.9328 12.9911 5.22102 12.9992 5.51672L16.9977 5.40782C16.9753 4.58659 16.7909 3.77648 16.4535 3.02754L12.8066 4.67072ZM12.9992 5.51672C13.0072 5.81243 12.9566 6.10491 12.8524 6.37493L16.5844 7.81442C16.8801 7.048 17.0201 6.22903 16.9977 5.40782L12.9992 5.51672ZM12.8524 6.37493C12.7483 6.64481 12.5943 6.8833 12.4046 7.07788L15.2689 9.86997C15.8425 9.28157 16.2888 8.58096 16.5844 7.81442L12.8524 6.37493Z" fill="currentColor" mask="url(#path-1-inside-1_1294_3919)"/>
</svg>
