<svg width="16" height="16" viewBox="0 0 16 16" fill="none" xmlns="http://www.w3.org/2000/svg">
<circle cx="8" cy="7" r="2" fill="currentColor"/>
<path fill-rule="evenodd" clip-rule="evenodd" d="M8 3C5.79086 3 4 4.79086 4 7C4 7.43515 4.21319 8.09935 4.66372 8.94461C5.09815 9.75965 5.68912 10.6268 6.29794 11.4328C6.50775 11.7106 6.71784 11.9786 6.92189 12.2321L5.58571 13.7592C5.3025 13.4138 5.00254 13.0361 4.70206 12.6383C4.06088 11.7894 3.40185 10.8292 2.89878 9.88534C2.41181 8.97172 2 7.94556 2 7C2 3.68629 4.68629 1 8 1C11.3137 1 14 3.68629 14 7C14 7.94556 13.5882 8.97172 13.1012 9.88534C12.5981 10.8292 11.9391 11.7894 11.2979 12.6383C10.654 13.4908 10.0124 14.2514 9.53294 14.7978C9.47064 14.8688 9.41101 14.9363 9.35438 15H8H6.8L7.99478 13.5065L8 13.5125L8.02956 13.4788C8.48764 12.9567 9.09603 12.2351 9.70206 11.4328C10.3109 10.6268 10.9019 9.75965 11.3363 8.94461C11.7868 8.09935 12 7.43515 12 7C12 4.79086 10.2091 3 8 3Z" fill="currentColor"/>
</svg>
