<svg width="32" height="32" viewBox="0 0 32 32" fill="none" xmlns="http://www.w3.org/2000/svg">
<path fill-rule="evenodd" clip-rule="evenodd" d="M25 23C27.2091 23 29 21.2091 29 19C29 16.7909 27.2091 15 25 15C22.7909 15 21 16.7909 21 19C21 21.2091 22.7909 23 25 23ZM25 25C28.3137 25 31 22.3137 31 19C31 15.6863 28.3137 13 25 13C21.6863 13 19 15.6863 19 19C19 22.3137 21.6863 25 25 25Z" fill="currentColor"/>
<path fill-rule="evenodd" clip-rule="evenodd" d="M7 23C9.20914 23 11 21.2091 11 19C11 16.7909 9.20914 15 7 15C4.79086 15 3 16.7909 3 19C3 21.2091 4.79086 23 7 23ZM7 25C10.3137 25 13 22.3137 13 19C13 15.6863 10.3137 13 7 13C3.68629 13 1 15.6863 1 19C1 22.3137 3.68629 25 7 25Z" fill="currentColor"/>
<path fill-rule="evenodd" clip-rule="evenodd" d="M9 6.49648L13 6.49648V8.49648H9.00056H5.5L8.99882 6.5L9 6.49648ZM17.882 6.5L24.5 6.5V8.5H21.118L21.8997 10.0634L25.9048 18.5742L24.0952 19.4258L20.837 12.5022L16.026 19.5H6V17.5H14.974L19.099 11.5H11.5542L9.348 15.03L7.652 13.97L10.4458 9.5H19.382L17.882 6.5Z" fill="currentColor"/>
</svg>
