<svg width="32" height="32" viewBox="0 0 32 32" fill="none" xmlns="http://www.w3.org/2000/svg">
<path d="M18.2227 5.9314L18.0803 6.16753C17.6164 6.93683 16.4391 6.66277 16.3627 5.76771L16.3399 5.5H13.8608L13.8163 5.81375C13.6904 6.7004 12.5051 6.91094 12.0816 6.12188L11.9372 5.85288L9.6644 6.85067L9.75224 7.12525C10.0222 7.96923 9.06774 8.6747 8.34015 8.16893L8.00315 7.93467L6.30068 9.74442L6.59147 10.119C7.12835 10.8105 6.49584 11.7922 5.64425 11.5892L5.17739 11.478L4.34047 13.8216L4.83521 14.0932C5.5932 14.5093 5.4192 15.6448 4.5714 15.8148L4 15.9294L4.19896 18.4116L4.85874 18.4718C5.70809 18.5493 6.01098 19.6358 5.32419 20.1415L4.77056 20.5492L5.96718 22.73L6.70848 22.4816C7.50363 22.2151 8.21574 23.0574 7.82082 23.7972L7.4414 24.5079L9.43652 25.9862L10.0003 25.4524C10.6103 24.8749 11.6124 25.3414 11.5631 26.1799L11.5161 26.9807L13.9454 27.4766L14.2526 26.725C14.5696 25.9494 15.6712 25.9589 15.9748 26.7398L16.2703 27.5L18.6788 26.9115L18.6396 26.1163C18.5982 25.2764 19.6065 24.8197 20.2105 25.4048L20.7773 25.9538L22.7103 24.3962L22.3952 23.8224C21.9831 23.072 22.7212 22.2118 23.5254 22.5052L24.1425 22.7303L25.2694 20.5119L24.7543 20.1224C24.0698 19.6048 24.3955 18.5151 25.2517 18.458L25.885 18.4157L26 15.9286L25.5211 15.8272C24.6658 15.6462 23.968 14.5136 25.5 13.5L25 12L23.17 13.447C22.2894 14.5193 22.5587 16.2686 23.6192 16.9826C22.5194 17.7596 22.0825 19.2547 22.597 20.5024C21.3194 20.7753 20.3444 21.9151 20.2739 23.2203C18.957 22.8928 17.5322 23.5505 16.9315 24.7713C15.8712 23.9339 14.3091 23.9397 13.2573 24.7976C12.6503 23.6 11.2444 22.9523 9.93864 23.273C9.89825 21.9046 8.86294 20.7027 7.5094 20.4677C7.99338 19.2293 7.55652 17.7565 6.46091 16.9895C7.38873 16.0632 7.59184 14.5645 6.92739 13.4254C8.14451 12.9465 8.93183 11.6558 8.77849 10.3461C10.0539 10.384 11.2446 9.54612 11.6544 8.34726C12.8063 8.87921 14.2375 8.59387 15.0902 7.64362C15.9323 8.58165 17.3469 8.88726 18.5014 8.36664C18.8065 9.80368 20 10.5 21.5 10.5L23.1078 9.08261L22.898 8.36853C21 9.5 20.2829 8.09853 20.5529 7.24634L20.6472 6.9489L18.2227 5.9314Z" fill="currentColor"/>
<path fill-rule="evenodd" clip-rule="evenodd" d="M27.5401 5.70042L30.3436 10.3741L17.687 19.173C15.8948 20.5073 13.3423 20.0025 12.193 18.0864C11.0436 16.1704 11.7999 13.6808 13.8208 12.7278L27.5401 5.70042ZM26.7561 8.28136L14.6739 14.5368C13.7232 14.9851 13.3674 16.1563 13.9081 17.0576C14.4488 17.959 15.6495 18.1965 16.4926 17.5688L27.6975 9.85073L26.7561 8.28136Z" fill="currentColor"/>
</svg>
