<svg width="32" height="32" viewBox="0 0 32 32" fill="none" xmlns="http://www.w3.org/2000/svg">
<path fill-rule="evenodd" clip-rule="evenodd" d="M3 28L5.99952 25.5L6 27L26 27L26 25.5L29 28L26 30.5L26 29L6 29L6 30.5L3 28Z" fill="currentColor"/>
<path fill-rule="evenodd" clip-rule="evenodd" d="M25 21.0035C27.2091 21.0035 29 19.2127 29 17.0035C29 14.7944 27.2091 13.0035 25 13.0035C22.7909 13.0035 21 14.7944 21 17.0035C21 19.2127 22.7909 21.0035 25 21.0035ZM25 23.0035C28.3137 23.0035 31 20.3172 31 17.0035C31 13.6898 28.3137 11.0035 25 11.0035C21.6863 11.0035 19 13.6898 19 17.0035C19 20.3172 21.6863 23.0035 25 23.0035Z" fill="currentColor"/>
<path fill-rule="evenodd" clip-rule="evenodd" d="M7 21.0035C9.20914 21.0035 11 19.2127 11 17.0035C11 14.7944 9.20914 13.0035 7 13.0035C4.79086 13.0035 3 14.7944 3 17.0035C3 19.2127 4.79086 21.0035 7 21.0035ZM7 23.0035C10.3137 23.0035 13 20.3172 13 17.0035C13 13.6898 10.3137 11.0035 7 11.0035C3.68629 11.0035 1 13.6898 1 17.0035C1 20.3172 3.68629 23.0035 7 23.0035Z" fill="currentColor"/>
<path fill-rule="evenodd" clip-rule="evenodd" d="M9 4.5L13 4.5V6.5H9.00056H5.5L8.99882 4.50352L9 4.5ZM17.882 4.50352L24.5 4.50352V6.50352H21.118L21.8997 8.06695L25.9048 16.5777L24.0952 17.4293L20.837 10.5057L16.026 17.5035H6V15.5035H14.974L19.099 9.50352H11.5542L9.348 13.0335L7.652 11.9735L10.4458 7.50352H19.382L17.882 4.50352Z" fill="currentColor"/>
</svg>
