<svg width="32" height="32" viewBox="0 0 32 32" fill="none" xmlns="http://www.w3.org/2000/svg">
<path fill-rule="evenodd" clip-rule="evenodd" d="M25.9979 16.802L26.0059 16.802C26.0073 16.8006 26.0087 16.7992 26.0101 16.7978C26.4452 16.3563 26.8185 15.8564 27.1202 15.3126C27.2708 15.0413 27.4035 14.7592 27.5173 14.4679C27.86 13.5909 28.0234 12.6505 27.9973 11.7054C27.9712 10.7603 27.7562 9.83093 27.3658 8.97545C26.9753 8.11998 26.4178 7.3568 25.7281 6.7337C25.0385 6.11059 24.2315 5.64097 23.3577 5.35422C22.4839 5.06747 21.5621 4.96977 20.6499 5.06723C19.7378 5.16469 18.855 5.45521 18.0568 5.92061C17.7951 6.07322 17.5443 6.24356 17.306 6.43024C16.8175 6.81285 16.3815 7.26408 16.0111 7.77196C15.6435 7.26205 15.21 6.80841 14.7238 6.42306C14.4841 6.23315 14.2317 6.05983 13.968 5.90454C13.1692 5.43414 12.2847 5.13936 11.37 5.03876C10.4553 4.93816 9.53035 5.03391 8.65333 5.31999C7.77631 5.60608 6.96624 6.07629 6.27413 6.70102C5.58202 7.32575 5.02287 8.09147 4.63188 8.94996C4.24089 9.80844 4.02653 10.7411 4.00231 11.6892C3.97809 12.6373 4.14452 13.5803 4.49114 14.4588C4.83775 15.3373 5.35703 16.1323 6.01628 16.7938L16.0111 27L25.9979 16.802ZM16.0111 24.3703L23.3965 16.8287L23.3952 16.8274L23.7082 16.5104L24.8657 15.3284C25.259 14.8858 25.5752 14.3702 25.7962 13.8047C26.0496 13.1562 26.1712 12.4583 26.1518 11.7556C26.1325 11.0529 25.9726 10.3639 25.6843 9.7323C25.3961 9.1008 24.9868 8.54244 24.4858 8.08978C23.9849 7.6373 23.4031 7.29999 22.7784 7.09497C22.1538 6.89001 21.4968 6.82065 20.8474 6.89004C20.198 6.95944 19.5662 7.16656 18.9916 7.50158C18.4168 7.83673 17.9101 8.29362 17.5063 8.84729L16.0024 10.9095L14.5099 8.8391C14.1078 8.28126 13.6016 7.82024 13.0263 7.48144C12.4512 7.14276 11.8181 6.93259 11.1668 6.86095C10.5155 6.78932 9.85629 6.8573 9.22947 7.06177C8.60246 7.2663 8.01848 7.604 7.51589 8.05766C7.01311 8.5115 6.60262 9.07172 6.31399 9.70546C6.0253 10.3393 5.86588 11.0307 5.84787 11.7357C5.82986 12.4407 5.95375 13.1404 6.21006 13.79C6.46633 14.4396 6.84838 15.0225 7.3284 15.5041L7.33412 15.5098L16.0111 24.3703Z" fill="currentColor"/>
</svg>
