<svg width="32" height="32" viewBox="0 0 32 32" fill="none" xmlns="http://www.w3.org/2000/svg">
<path d="M25 8L25.0215 24H18H14H12L8.5 26H14H18H27V6H5V26H6.97852V8H25Z" fill="currentColor"/>
<path fill-rule="evenodd" clip-rule="evenodd" d="M15 9.5V6.68945H16.9777L17 9.5C17 10.3975 17.6025 11 18.5 11C19.3975 11 20.0223 10.3975 20.0223 9.5L20 6.68945L22 6.68945V9.5C22 11.5 20.3973 13 18.5 13C16.636 13 15 11.5 15 9.5Z" fill="currentColor"/>
<path fill-rule="evenodd" clip-rule="evenodd" d="M20 9.5V6.68945H21.9777L22 9.5C22 10.3975 22.6025 11 23.5 11C24.3975 11 25.0223 10.3975 25.0223 9.5L25 6.68945L27 6.68945V9.5C27 11.5 25.3973 13 23.5 13C21.636 13 20 11.5 20 9.5Z" fill="currentColor"/>
<path fill-rule="evenodd" clip-rule="evenodd" d="M10 9.5V6.68945H11.9777L12 9.5C12 10.3975 12.6025 11 13.5 11C14.3975 11 15.0223 10.3975 15.0223 9.5L15 6.68945L17 6.68945V9.5C17 11.5 15.3973 13 13.5 13C11.636 13 10 11.5 10 9.5Z" fill="currentColor"/>
<path fill-rule="evenodd" clip-rule="evenodd" d="M5 9.5V6.68945H6.97769L7 9.5C7 10.3975 7.60254 11 8.5 11C9.39746 11 10.0223 10.3975 10.0223 9.5L10 6.68945L12 6.68945V9.5C12 11.5 10.3973 13 8.5 13C6.63604 13 5 11.5 5 9.5Z" fill="currentColor"/>
<path fill-rule="evenodd" clip-rule="evenodd" d="M19.9785 24.6895H18V18H13.9785V24.6895H12V15.9313H19.9785V24.6895Z" fill="currentColor"/>
</svg>
