<svg width="132" height="24" viewBox="0 0 132 24" fill="none" xmlns="http://www.w3.org/2000/svg">
<path d="M128.823 6.964L129.8 3.944H127.019L126.042 6.964H123.147L121.926 10.736H124.821L123.844 13.756H126.625L127.602 10.736H130.498L131.719 6.964H128.823ZM117.016 17.705L114.168 22H103.393L109.814 2.157H122.047L119.2 6.452H112.832L111.547 10.423H117.915L116.843 13.733H110.476L109.191 17.705H117.016ZM93.897 6.452H89.991L84.959 22H80.55L85.583 6.452H81.664L83.053 2.158H95.287L93.897 6.452ZM72.765 22H68.369L71.044 13.733H67.615L64.94 22H60.532L66.954 2.158H71.362L68.686 10.424H72.115L74.79 2.158H79.187L72.765 22ZM56.665 22H45.901C45.511 22 45.233 21.801 45.067 21.402C44.902 21.004 44.904 20.541 45.075 20.014L50.211 4.143C50.382 3.616 50.679 3.153 51.102 2.755C51.526 2.357 51.932 2.158 52.323 2.158H63.087L60.24 6.452H53.872L50.23 17.705H53.659L54.944 13.733H53.224L54.295 10.424H60.411L56.665 22ZM40.568 22H36.16L42.581 2.158H46.989L40.568 22ZM32.518 22H20.285L26.706 2.158H31.114L26.083 17.705H33.908L32.518 22ZM12.513 2.158L0 22H4.861L12.38 10.1L12.215 22H17.096L17.398 2.158H12.513Z" fill="black"/>
</svg>
