<svg width="118" height="24" viewBox="0 0 118 24" fill="none" xmlns="http://www.w3.org/2000/svg">
<path d="M81.1591 1.13691H79.2271V3.06891L81.1591 1.13691Z" fill="black"/>
<path d="M88.1981 1.14099V4.35099H82.7641V3.39599L79.2251 6.95099V5.00899L82.7641 1.46999V1.14099H88.1981Z" fill="black"/>
<path d="M79.2268 10.8214L82.7708 7.27735V5.33935L79.2268 8.88335V10.8214Z" fill="black"/>
<path d="M86.9921 10.5371V13.7941H82.7641V15.0321L79.2251 18.5711V16.6291L82.7641 13.0901V11.1481L79.2251 14.7031V12.7611L82.7641 9.22211V10.5371H86.9921Z" fill="black"/>
<path d="M79.2268 22.4495L82.7708 18.9055V16.9675L79.2268 20.5115V22.4495Z" fill="black"/>
<path d="M88.198 19.9802V23.1282H80.478L82.764 20.8412V19.9802H88.198Z" fill="black"/>
<path d="M31.1392 1.055V2.992L33.0762 1.055H31.1392Z" fill="black"/>
<path d="M31.1392 6.86749L34.5482 3.45849V1.52049L31.1392 4.92949V6.86749Z" fill="black"/>
<path d="M31.1392 10.7437L34.5482 7.33471V5.39671L31.1392 8.80571V10.7437Z" fill="black"/>
<path d="M31.1392 14.6197L34.5482 11.2107V9.27269L31.1392 12.6817V14.6197Z" fill="black"/>
<path d="M31.1392 18.4957L34.5482 15.0867V13.1487L31.1392 16.5577V18.4957Z" fill="black"/>
<path d="M39.5108 19.902V23.159H31.1328V19.902H31.6808L34.5468 17.02V18.962L33.6068 19.902H39.5108Z" fill="black"/>
<path d="M2.88641 1.00985L2.56641 3.25885L4.81641 1.00885L2.88641 1.00985Z" fill="black"/>
<path d="M10.884 23.128L7.376 23.112C7.219 21.766 6.797 18.399 6.781 18.195H3.884L3.993 17.334L0 21.327L0.313 19.072L4.275 15.11L4.307 14.875H6.389L5.966 11.477L0.642 16.817L0.955 14.562L5.747 9.76999L5.544 8.03199L1.284 12.291L1.597 10.036L5.356 6.27799L5.638 4.05399L1.926 7.78099L2.24 5.52599L5.92 1.84599L6.029 0.99999L7.83 1.01599C8.832 8.39199 9.85 15.736 10.884 23.128Z" fill="black"/>
<path d="M3.49435 21.3225L3.71435 19.5525L0.162354 23.1055H1.71135H2.10035H3.27235L3.43935 21.7665L3.49435 21.3225Z" fill="black"/>
<path d="M44.9616 1.07723L44.9536 1.08523C44.9536 1.12923 44.9526 1.85923 44.9526 3.02423L46.8996 1.07723H44.9616Z" fill="black"/>
<path d="M48.4614 1.45343L44.9514 4.96343C44.9514 5.56743 44.9514 6.21743 44.9514 6.90143L48.4594 3.39343C48.4604 2.51643 48.4614 1.84243 48.4614 1.45343Z" fill="black"/>
<path d="M48.4579 5.33338L44.9509 8.84038C44.9509 9.47738 44.9509 10.1264 44.9509 10.7784L48.4569 7.27238C48.4569 6.59238 48.4579 5.94138 48.4579 5.33338Z" fill="black"/>
<path d="M48.4557 9.21136L44.9507 12.7164C44.9507 13.3754 44.9507 14.0254 44.9517 14.6544L48.4557 11.1494C48.4557 10.4994 48.4557 9.85036 48.4557 9.21136Z" fill="black"/>
<path d="M44.9541 18.3982C44.9541 18.4402 44.9571 18.4822 44.9571 18.5242L48.4571 15.0242C48.4561 14.3972 48.4561 13.7482 48.4551 13.0872L44.9521 16.5912C44.9531 17.2422 44.9531 17.8522 44.9541 18.3982Z" fill="black"/>
<path d="M45.7294 21.628L48.4774 18.879C48.4734 18.756 48.4614 18.632 48.4624 18.512C48.4604 18.037 48.4594 17.515 48.4584 16.961L45.1514 20.268C45.2784 20.768 45.4704 21.225 45.7294 21.628Z" fill="black"/>
<path d="M54.6227 18.3987C54.6227 18.8837 54.6227 19.3857 54.5287 19.8707C54.2307 21.7187 52.9937 23.0337 51.2867 23.4887C51.0677 23.5507 50.8327 23.5977 50.5977 23.6297C50.3317 23.6607 50.0657 23.6757 49.7837 23.6757C49.0947 23.6917 48.4687 23.5667 47.8887 23.3477C47.7167 23.2847 47.5447 23.2217 47.3877 23.1437C47.1217 23.0027 46.8707 22.8467 46.6357 22.6587L49.0947 20.1997C49.1727 20.2467 49.2667 20.2937 49.3767 20.3247C49.5177 20.3567 49.6587 20.3877 49.7837 20.4037C49.9247 20.3877 50.0657 20.3567 50.2067 20.3247C50.7077 20.1837 51.0207 19.8547 51.0837 19.3227C51.1147 19.0567 51.1147 18.7747 51.1147 18.5087C51.1307 12.9487 51.1147 1.07869 51.1147 1.07869H54.6227V2.87969C54.6227 6.40269 54.6387 14.2017 54.6227 18.3987Z" fill="black"/>
<path d="M62.1516 2.9903L64.0906 1.0513H62.1526L62.1516 1.0523V2.9903Z" fill="black"/>
<path d="M72.2873 23.2064H68.6383C67.8243 20.5284 67.0093 17.8504 66.1803 15.1254C66.0233 15.1104 65.8663 15.1104 65.6633 15.0784V15.0944L62.1553 18.6024V16.6604L65.6633 13.1524V11.8054H66.6493C67.3703 11.8054 67.8083 11.6334 68.0273 11.2264C68.1683 10.9914 68.2473 10.6624 68.2473 10.2394V8.51736L62.1553 14.6244V12.6824L68.2473 6.59136C68.2473 6.16836 68.2153 5.85536 68.1843 5.57336C68.1683 5.49436 68.1533 5.41636 68.1373 5.33836C68.1213 5.27536 68.1063 5.22836 68.0903 5.18136C68.0593 5.10336 68.0273 5.00936 67.9963 4.94636C67.9963 4.93136 67.9803 4.93136 67.9803 4.91536L62.1553 10.7404V8.79936L66.6023 4.35136C66.3673 4.33636 66.1013 4.33636 65.7883 4.33636H65.6783V3.33336L62.1553 6.87336V4.93136L65.6783 1.40736V1.04736C66.0393 1.04736 66.4143 1.06336 66.7903 1.07836C67.4173 1.09436 68.0753 1.17236 68.6853 1.36036C70.4393 1.89336 71.6143 3.41236 71.6923 5.30636C71.7703 7.04536 71.7393 8.79936 71.7073 10.5374C71.6763 12.1504 71.0343 13.4654 69.6093 14.3894C70.5023 17.3184 71.3793 20.2314 72.2873 23.2064Z" fill="black"/>
<path d="M62.1516 22.3707L65.6676 18.8547L65.6646 16.9197L62.1516 20.4327V22.3707Z" fill="black"/>
<path d="M65.6734 21.9677L65.6714 20.7887L63.2554 23.2047H64.4364H65.1934H65.6754L65.6744 22.7237L65.6734 21.9677Z" fill="black"/>
<path d="M25.9623 19.8874L22.7173 23.1324H24.6543L27.9003 19.8874H25.9623Z" fill="black"/>
<path d="M26.4956 23.1324H28.1776V21.4504L26.4956 23.1324Z" fill="black"/>
<path d="M101.378 1.13691H99.446V3.06891L101.378 1.13691Z" fill="black"/>
<path d="M99.4458 10.8214L102.99 7.27735V5.33935L99.4458 8.88335V10.8214Z" fill="black"/>
<path d="M107.225 10.5371V13.7941H102.997V15.0321L99.4424 18.5711V16.6291L102.997 13.0901V11.1481L99.4424 14.7031V12.7611L102.997 9.22211V10.5371H107.225Z" fill="black"/>
<path d="M99.4458 22.4495L102.99 18.9055V16.9675L99.4458 20.5115V22.4495Z" fill="black"/>
<path d="M108.447 1.14099V4.35099H102.997V3.39599L99.4419 6.95099V5.00899L102.997 1.46999V1.14099H108.447Z" fill="black"/>
<path d="M108.447 19.9802V23.1282H100.695L102.997 20.8412V19.9802H108.447Z" fill="black"/>
<path d="M24.0227 19.8865L20.7807 23.1285H17.0537V1.07848H20.4677V21.4995L22.0807 19.8865H24.0227Z" fill="black"/>
<path d="M117.034 4.7386H114.935V2.5626H112.695V4.7386H110.596V6.6986H112.695V8.8736H114.935V6.6986H117.034V4.7386Z" fill="black"/>
</svg>
