<svg width="101" height="24" viewBox="0 0 101 24" fill="none" xmlns="http://www.w3.org/2000/svg">
<path d="M12.544 2.00029L0 21.8423H4.865L12.399 9.94429L12.344 13.7463L12.285 17.5483H12.283L12.219 21.8423H17.103L17.431 2.00029H12.544Z" fill="black"/>
<path d="M95.8444 17.548L92.9904 21.843H82.2114L88.6584 2.00002H100.896L98.0424 6.29502H91.6724L90.3824 10.266H96.7524L95.6764 13.576H89.3064L88.0164 17.548H95.8444Z" fill="black"/>
<path d="M32.4099 21.8428H20.1719L26.6189 2.00077H31.0289L25.9769 17.5478H33.8049L32.4099 21.8428Z" fill="black"/>
<path d="M47.7746 21.8428H35.5366L41.9836 2.00077H46.3936L41.3416 17.5478H49.1696L47.7746 21.8428Z" fill="black"/>
<path d="M79.1001 21.8428H75.1921L75.0331 10.2668H77.9731L79.2641 6.29477H75.8341L70.7821 21.8428H66.3721L72.8191 2.00077H83.5991C83.9891 2.00077 84.2631 2.19977 84.4211 2.59777C84.5861 2.99577 84.5831 3.45877 84.4121 3.98577L81.9411 11.5908C81.7701 12.1178 81.4721 12.5808 81.0481 12.9788C80.6321 13.3778 80.2281 13.5758 79.8381 13.5758H78.9771L79.1001 21.8428Z" fill="black"/>
<path d="M63.143 21.8428H52.375C51.984 21.8428 51.706 21.6438 51.541 21.2458C51.376 20.8468 51.379 20.3848 51.55 19.8568L57.352 2.00077H61.762L56.711 17.5478H60.14L65.192 2.00077H69.59L63.143 21.8428Z" fill="black"/>
</svg>
