<svg width="96" height="24" viewBox="0 0 96 24" fill="none" xmlns="http://www.w3.org/2000/svg">
<path d="M93.897 6.452H89.991L84.959 22H80.551L85.583 6.452H81.664L83.054 2.158H95.287L93.897 6.452ZM72.765 22H68.369L71.044 13.733H67.615L64.94 22H60.532L66.954 2.158H71.362L68.686 10.424H72.115L74.791 2.158H79.187L72.765 22ZM56.665 22H45.901C45.511 22 45.233 21.801 45.067 21.402C44.901 21.004 44.904 20.541 45.075 20.014L50.211 4.143C50.382 3.616 50.679 3.153 51.102 2.755C51.526 2.357 51.932 2.158 52.323 2.158H63.087L60.239 6.452H53.872L50.23 17.705H53.658L54.944 13.733H53.224L54.295 10.424H60.411L56.665 22ZM40.567 22H36.159L42.58 2.158H46.988L40.567 22ZM32.518 22H20.285L26.706 2.158H31.114L26.082 17.705H33.907L32.518 22ZM12.513 2.157L0 22H4.86L12.379 10.1L12.214 22H17.095L17.398 2.157H12.513Z" fill="black"/>
</svg>
