<svg width="136" height="24" viewBox="0 0 136 24" fill="none" xmlns="http://www.w3.org/2000/svg">
<path d="M82.8896 23.7597L77.8398 23.7402L85.21 1.08002H90.25L82.8896 23.7597ZM19.2695 23.7402L14.2197 23.7499V10.1601L5.59961 23.7402H0L14.3701 1.08002H19.2803L19.2695 23.7402ZM51.4199 1.08002C51.8049 1.08002 52.0984 1.25598 52.293 1.6015L52.3496 1.74994C52.5496 2.20991 52.5396 2.73983 52.3496 3.33978L45.7305 23.7402H40.7002L46.4697 5.98041H42.5498L36.7803 23.7499H31.7598L37.5303 5.98041H33.6104L27.8301 23.7402H22.7998L30.1602 1.08002H51.4199ZM55.1299 23.7499H50.0898L57.4502 1.08002H62.5L55.1299 23.7499ZM79.2598 5.98041L74.79 5.99017L69.0098 23.7499H63.9697L69.75 5.99017H65.2598L66.8604 1.08002H80.8496L79.2598 5.98041ZM120.9 5.99017H113.63L112.16 10.5204L119.44 10.5302L118.21 14.3105L110.92 14.2997L109.45 18.8398H118.4L115.14 23.7499H102.82L110.18 1.08002H124.17L120.9 5.99017ZM133.61 4.87006L131.95 9.9599H135.74L134.14 14.8798H130.36L128.71 19.9599H125.06L126.72 14.8798L122.94 14.8701L124.54 9.9599H128.32L129.97 4.86029L133.61 4.87006ZM101.33 14.8798H90.1299L91.7305 9.9599L102.93 9.95013L101.33 14.8798Z" fill="black"/>
</svg>
