<svg width="176" height="24" viewBox="0 0 176 24" fill="none" xmlns="http://www.w3.org/2000/svg">
<path d="M21.7266 2.02051V2.00977C23.9022 2.00977 24.6473 3.98672 23.3857 6.40723L15.249 22H9.93457L14.6338 13.0039H10.0137L5.31543 21.9902H0L10.4316 2L21.7266 2.02051ZM52.6191 2C54.8986 2.00003 55.6753 3.97617 54.3594 6.39551L45.8945 22H40.165L48.7959 6.09277C48.8684 5.95178 48.9101 5.82078 48.9102 5.70996C48.9102 5.59917 48.8892 5.50804 48.8271 5.4375C48.7546 5.33671 48.6403 5.28615 48.4746 5.28613H44.6924L35.626 22H30L40.8486 2H52.6191ZM86 2L84.2324 5.34668H79.0703L70.2627 22H65L73.8076 5.34668H68.7168L70.4951 2H86ZM103.25 9.12695H107.692L111.449 2H117L106.453 22H100.902L106.281 11.8086H101.829L96.4502 22H91L101.547 2H107.007L103.25 9.12695ZM143.246 5.28613H135.457L133.397 9.13672H140.493L139.107 11.7383H132.011L128.341 18.623H136.13L134.325 22H121L131.675 2H145L143.246 5.28613ZM173.725 2C175.895 2 176.648 3.97371 175.39 6.39062L167.294 21.9795H163.171L170.861 7.23633C170.931 7.09548 170.97 6.9642 170.97 6.85352C170.97 6.74295 170.95 6.65243 170.891 6.58203C170.821 6.49146 170.712 6.44141 170.554 6.44141H168.394L160.297 21.9902H156.442L164.132 7.24707C164.201 7.10617 164.241 6.97499 164.241 6.86426C164.241 6.75348 164.222 6.66229 164.162 6.5918C164.093 6.5013 163.984 6.4512 163.825 6.45117H161.615L153.519 22H149L159.386 2.02051H173.735L173.725 2ZM11.3652 10.4111H15.9844L18.2295 6.10449H18.2393C18.3088 5.96336 18.3486 5.83258 18.3486 5.72168C18.3586 5.46954 18.2098 5.28809 17.9316 5.28809H14.0371L11.3652 10.4111Z" fill="black"/>
</svg>
