<svg width="301" height="24" viewBox="0 0 301 24" fill="none" xmlns="http://www.w3.org/2000/svg">
<path d="M18.347 6.16691L16.084 10.4379L14.938 10.4369L12.584 10.4329L11.435 10.4309L14.124 5.35891L18.04 5.36491C18.318 5.36491 18.469 5.53491 18.46 5.78391C18.456 5.89691 18.421 6.02791 18.347 6.16691ZM21.867 2.11091L10.501 2.09291L0 21.9129L5.348 21.9199L10.073 13.0019L11.218 13.0039L13.573 13.0079L14.719 13.0109L9.995 21.9269L15.343 21.9359L23.538 6.46991C24.81 4.06891 24.061 2.11391 21.867 2.11091Z" fill="black"/>
<path d="M138.441 6.13792L131.826 18.6469L128.136 18.6449C127.978 18.6449 127.863 18.5919 127.792 18.5019C127.737 18.4309 127.71 18.3379 127.714 18.2259C127.719 18.1149 127.754 17.9819 127.826 17.8449L134.441 5.33492L138.132 5.33692C138.288 5.33692 138.406 5.39092 138.473 5.48392C138.53 5.55292 138.555 5.64692 138.552 5.75492C138.55 5.86892 138.514 5.99892 138.441 6.13792ZM142.05 2.07492L136.068 2.07192L130.716 2.06892L128.972 5.37292L122.534 17.5479C121.265 19.9509 122.015 21.9069 124.21 21.9089L129.988 21.9119L135.543 21.9149L137.288 18.6109L143.724 6.43492C144.996 4.03192 144.244 2.07592 142.05 2.07492Z" fill="black"/>
<path d="M115.909 2.06063L100.552 2.05163L98.7951 5.37863L103.838 5.38063L95.1091 21.8926L100.315 21.8956L109.045 5.38363L114.151 5.38663L115.909 2.06063Z" fill="black"/>
<path d="M197.993 6.43324C197.759 6.88524 197.547 7.27424 197.356 7.63724C196.8 8.69424 195.614 9.54624 194.305 9.54524C193.957 9.54524 191.951 9.54424 191.951 9.54424L194.1 5.45824C194.1 5.45824 197.08 5.46024 197.29 5.46024C197.945 5.46024 198.237 5.95924 197.993 6.43324ZM201.744 2.10824L190.467 2.10224L179.979 21.9402L185.401 21.9432L190.549 12.2072L194.933 12.2092L189.786 21.9452L195.289 21.9482L199.286 14.3862C200.405 12.2422 198.641 11.0062 198.369 10.7342C198.408 10.7132 201.212 10.8042 202.885 7.64224L203.464 6.54524C204.752 4.11324 203.967 2.11024 201.744 2.10824Z" fill="black"/>
<path d="M154.091 21.9253L165.221 21.9313L175.708 2.09427L170.356 2.09127L161.594 18.6663L157.919 18.6643C157.763 18.6643 157.646 18.6103 157.576 18.5173C157.52 18.4463 157.492 18.3523 157.497 18.2433C157.503 18.1303 157.538 18.0013 157.61 17.8623L165.95 2.08827L160.599 2.08527L152.416 17.5653C151.144 19.9683 151.898 21.9243 154.091 21.9253Z" fill="black"/>
<path d="M80.5011 2.09267L75.6651 11.2517C75.2261 12.0877 74.2501 12.7607 73.4861 12.7607H71.4811C70.7201 12.7607 70.4611 12.0877 70.9001 11.2517L75.7331 2.09267H70.4691C70.4691 2.09267 67.4161 7.85467 65.9831 10.5597C64.4701 13.4137 65.4211 16.0237 67.9831 16.0237H71.7611C72.2411 16.0237 74.2231 16.0157 74.2231 16.0157C74.2231 16.0157 73.3981 17.2827 73.0701 17.6287C72.4071 18.3297 71.5741 18.5397 70.4381 18.5397H62.4201L60.6261 21.9357H70.8711C74.5071 21.9357 76.5121 19.7327 77.9411 17.0277L79.5761 13.9287L82.3931 8.59867L85.8251 2.09267H80.5011Z" fill="black"/>
<path d="M51.8931 2.09267H40.5301L30.0571 21.9357H35.4861L44.2401 5.35667H47.8861C48.0411 5.35667 48.1581 5.40967 48.2271 5.50267C48.2831 5.57267 48.3111 5.66667 48.3071 5.77667C48.3031 5.88967 48.2661 6.01767 48.1951 6.15667L39.8621 21.9357H45.3941L53.5691 6.45067C54.8391 4.04767 54.0861 2.09267 51.8931 2.09267Z" fill="black"/>
<path d="M250.604 2.05239H245.684L240.219 7.27538V2.05239H235.485V11.7964L224.916 21.8954H229.834L235.485 16.4964V21.8954H240.219V11.9744L250.604 2.05239Z" fill="black"/>
<path d="M275.76 7.27726L276.95 8.07526L272.301 16.8793L269.654 21.8953L282.099 8.38826L280.931 7.60526L282.141 5.31526H289.865L291.588 2.05226H278.516L275.76 7.27726ZM280.968 11.7093L277.359 18.5393H284.493L282.722 21.8953H271.583L280.968 11.7093L283.341 9.13326L287.178 9.13426L285.819 11.7093H280.968Z" fill="black"/>
<path d="M292.752 11.5836H289.74L290.968 9.2626H293.981L295.654 6.1026H298.79L297.117 9.2626H300.129L298.901 11.5836H295.888L294.22 14.7356H291.083L292.752 11.5836Z" fill="black"/>
</svg>
