<svg width="256" height="24" viewBox="0 0 256 24" fill="none" xmlns="http://www.w3.org/2000/svg">
<path d="M18.347 6.15534L16.084 10.4263L14.938 10.4253L12.584 10.4213L11.435 10.4193L14.124 5.34734L18.04 5.35334C18.318 5.35334 18.469 5.52334 18.46 5.77234C18.456 5.88534 18.421 6.01634 18.347 6.15534ZM21.867 2.09934L10.501 2.08134L0 21.9003L5.349 21.9083L10.074 12.9903L11.218 12.9923L13.574 12.9963L14.719 12.9983L9.995 21.9153L15.343 21.9233L23.537 6.45834C24.809 4.05734 24.06 2.10234 21.867 2.09934Z" fill="black"/>
<path d="M138.436 6.12634L131.821 18.6353L128.131 18.6333C127.974 18.6333 127.858 18.5803 127.788 18.4903C127.732 18.4183 127.706 18.3253 127.709 18.2143C127.715 18.1033 127.749 17.9703 127.821 17.8333L134.436 5.32334L138.127 5.32534C138.283 5.32534 138.401 5.38034 138.468 5.47234C138.525 5.54134 138.55 5.63534 138.547 5.74334C138.545 5.85734 138.509 5.98734 138.436 6.12634ZM142.045 2.06334L136.063 2.06034L130.712 2.05734L128.967 5.36134L122.529 17.5353C121.261 19.9393 122.011 21.8953 124.206 21.8963L129.983 21.8993L135.538 21.9023L137.283 18.5993L143.719 6.42334C144.991 4.02034 144.239 2.06534 142.045 2.06334Z" fill="black"/>
<path d="M115.905 2.04906L100.548 2.04006L98.7922 5.36706L103.834 5.36906L95.1062 21.8801L100.312 21.8831L109.041 5.37206L114.147 5.37506L115.905 2.04906Z" fill="black"/>
<path d="M197.985 6.42152C197.751 6.87352 197.539 7.26252 197.348 7.62552C196.792 8.68252 195.606 9.53352 194.297 9.53352C193.949 9.53352 191.943 9.53152 191.943 9.53152L194.092 5.44652C194.092 5.44652 197.072 5.44852 197.282 5.44852C197.937 5.44852 198.229 5.94752 197.985 6.42152ZM201.736 2.09752L190.459 2.09052L179.971 21.9275L185.394 21.9305L190.541 12.1955L194.925 12.1975L189.778 21.9325L195.281 21.9365L199.278 14.3745C200.397 12.2305 198.633 10.9945 198.361 10.7225C198.4 10.7015 201.204 10.7925 202.877 7.63052L203.456 6.53352C204.744 4.10152 203.959 2.09852 201.736 2.09752Z" fill="black"/>
<path d="M154.086 21.9129L165.216 21.9189L175.702 2.08294L170.351 2.07994L161.589 18.6539L157.914 18.6519C157.758 18.6519 157.641 18.5979 157.571 18.5049C157.515 18.4339 157.487 18.3399 157.492 18.2309C157.497 18.1179 157.533 17.9889 157.605 17.8499L165.945 2.07694L160.594 2.07394L152.411 17.5529C151.139 19.9559 151.893 21.9119 154.086 21.9129Z" fill="black"/>
<path d="M80.4986 2.08122L75.6626 11.2392C75.2236 12.0752 74.2476 12.7482 73.4846 12.7482H71.4796C70.7186 12.7482 70.4586 12.0752 70.8976 11.2392L75.7306 2.08122H70.4676C70.4676 2.08122 67.4146 7.84322 65.9816 10.5472C64.4686 13.4012 65.4186 16.0122 67.9816 16.0122H71.7586C72.2386 16.0122 74.2206 16.0042 74.2206 16.0042C74.2206 16.0042 73.3956 17.2702 73.0686 17.6162C72.4046 18.3172 71.5716 18.5272 70.4356 18.5272H62.4186L60.6246 21.9232H70.8686C74.5046 21.9232 76.5096 19.7202 77.9386 17.0162L79.5736 13.9172L82.3906 8.58722L85.8216 2.08122H80.4986Z" fill="black"/>
<path d="M51.8918 2.08122H40.5288L30.0558 21.9232H35.4858L44.2388 5.34522H47.8848C48.0408 5.34522 48.1568 5.39822 48.2258 5.49122C48.2828 5.56122 48.3098 5.65522 48.3058 5.76522C48.3018 5.87822 48.2648 6.00622 48.1938 6.14522L39.8618 21.9232H45.3938L53.5678 6.43922C54.8378 4.03622 54.0848 2.08122 51.8918 2.08122Z" fill="black"/>
<path d="M231.011 7.34196L232.201 8.13996L227.552 16.944L224.905 21.96L237.35 8.45296L236.182 7.66996L237.392 5.37996H245.116L246.839 2.11696H233.767L231.011 7.34196ZM236.219 11.774L232.61 18.604H239.744L237.973 21.96H226.834L236.219 11.774L238.592 9.19796L242.429 9.19896L241.07 11.774H236.219Z" fill="black"/>
<path d="M248.003 11.6483H244.991L246.219 9.32729H249.232L250.905 6.16729H254.041L252.368 9.32729H255.38L254.152 11.6483H251.139L249.471 14.8003H246.334L248.003 11.6483Z" fill="black"/>
</svg>
