<svg width="206" height="24" viewBox="0 0 206 24" fill="none" xmlns="http://www.w3.org/2000/svg">
<path d="M21.7178 2.02051L21.7275 2.01074C23.9023 2.01074 24.6469 3.98763 23.3857 6.4082L15.2529 22H9.94043L14.6279 13.0039H10.0098L5.3125 21.9902H0L10.4268 2L21.7178 2.02051ZM51.7148 2C53.9028 2.00028 54.6489 3.97636 53.3857 6.39551L45.2588 22H39.7578L48.0439 6.09277C48.1135 5.95174 48.1533 5.82079 48.1533 5.70996C48.1533 5.59912 48.1339 5.50805 48.0742 5.4375C48.0046 5.33669 47.8846 5.28613 47.7354 5.28613H44.1045L35.4014 22H30L40.415 2H51.7148ZM71.5957 11.2295C71.1419 12.0757 71.4103 12.7509 72.1943 12.751H74.2686C75.0526 12.7508 76.0637 12.0757 76.5176 11.2295L81.5107 2H87L83.4609 8.55957L80.5518 13.9297L78.8594 17.0527C77.384 19.7831 75.3208 21.9999 71.5654 22H61L62.8467 18.5742H71.1211C72.287 18.5742 73.154 18.3625 73.835 17.6572C74.1653 17.3142 75.0215 16.0352 75.0215 16.0352H68.583C65.942 16.0349 64.9617 13.4056 66.5195 10.5342C68.0052 7.8037 71.1523 2 71.1523 2H76.5791L71.5957 11.2295ZM117 2L115.232 5.35742H110.07L101.263 22H96L104.809 5.35742H99.7168L101.485 2H117ZM142.745 2C144.904 2.00019 145.64 3.97627 144.394 6.39551L138.083 18.6738L136.375 22H125.255C123.096 21.9998 122.36 20.0246 123.606 17.6055L129.917 5.32715L131.625 2H142.745ZM158.835 17.9072C158.765 18.0484 158.725 18.1801 158.725 18.291C158.725 18.4015 158.745 18.4921 158.805 18.5625C158.875 18.6633 158.986 18.7139 159.146 18.7139H162.834L171.625 2H177L166.48 22H155.309C153.098 22 152.345 20.0247 153.621 17.6055L161.829 2H167.204L158.835 17.9072ZM203.569 2C205.874 2 206.694 4.02619 205.355 6.47559L204.753 7.58496C203.02 10.7693 200.115 10.6801 200.071 10.7002C200.352 10.9729 202.188 12.2226 201.026 14.3789L196.884 22H191.174L196.51 12.1816H191.963L186.627 22H181L191.88 2H203.569ZM128.799 17.9072C128.73 18.0484 128.69 18.1801 128.69 18.291C128.69 18.4118 128.71 18.5028 128.769 18.5732C128.837 18.6639 128.946 18.7139 129.103 18.7139H132.725L139.212 6.10352C139.281 5.96239 139.319 5.83061 139.319 5.71973C139.319 5.60916 139.3 5.51869 139.241 5.44824C139.173 5.34744 139.064 5.29688 138.907 5.29688H135.286L128.799 17.9072ZM11.3604 10.4219H15.9785L18.2227 6.11523H18.2324C18.3018 5.97426 18.3417 5.84325 18.3418 5.73242C18.3517 5.4804 18.2026 5.29803 17.9248 5.29785H14.0312L11.3604 10.4219ZM193.427 9.5H195.866C197.226 9.5 198.452 8.64368 199.033 7.5752C199.23 7.21231 199.458 6.81883 199.697 6.36523V6.35547C199.957 5.88168 199.646 5.37696 198.971 5.37695H195.659L193.427 9.5Z" fill="black"/>
</svg>
