<svg width="173" height="24" viewBox="0 0 173 24" fill="none" xmlns="http://www.w3.org/2000/svg">
<path d="M139.749 2.07911H128.388L117.916 21.9201H123.345L132.098 5.34311H135.743C135.898 5.34311 136.014 5.39511 136.084 5.48811C136.14 5.5591 136.168 5.65411 136.163 5.76311C136.16 5.87611 136.123 6.00411 136.051 6.14311L127.72 21.9201H133.251L141.425 6.43711C142.695 4.03411 141.942 2.07911 139.749 2.07911Z" fill="black"/>
<path d="M100.996 11.7366H107.952L109.313 9.15862H102.354L104.373 5.34162H112.01L113.732 2.07862H100.664L90.1891 21.9196H103.256L105.028 18.5656H97.3911L100.996 11.7366Z" fill="black"/>
<path d="M85.9392 2.07886H70.5832L68.8292 5.40586H73.8712L65.1532 21.9199H70.3592L79.0782 5.40586H84.1832L85.9392 2.07886Z" fill="black"/>
<path d="M55.7826 2.07886H40.4266L38.6726 5.40586H43.7146L34.9966 21.9199H40.2026L48.9216 5.40586H54.0266L55.7826 2.07886Z" fill="black"/>
<path d="M166.009 6.18062C166.009 6.18062 160.898 15.8646 160.623 16.3846C159.826 17.8956 158.314 18.6596 155.883 18.6596H155.048L162.046 5.34462H165.577C166.138 5.34462 166.266 5.63862 166.009 6.18062ZM169.609 2.07862H163.83H158.352L147.876 21.9196H157.762C161.403 21.9196 163.762 20.8746 164.944 18.6156C165.35 17.8396 171.373 6.43762 171.373 6.43762C172.643 4.03462 171.803 2.07862 169.609 2.07862Z" fill="black"/>
<path d="M18.345 6.15333L16.082 10.4253L14.936 10.4243L12.581 10.4203L11.434 10.4183L14.122 5.34533L18.038 5.35133C18.315 5.35133 18.467 5.52133 18.458 5.77133C18.454 5.88433 18.419 6.01533 18.345 6.15333ZM21.864 2.09833L10.499 2.08033L0 21.8973L5.347 21.9063L10.072 12.9893L11.216 12.9913L13.572 12.9943L14.717 12.9963L9.994 21.9133L15.342 21.9213L23.535 6.45733C24.807 4.05633 24.058 2.10233 21.864 2.09833Z" fill="black"/>
</svg>
