<svg width="80" height="24" viewBox="0 0 80 24" fill="none" xmlns="http://www.w3.org/2000/svg">
<path d="M21.7266 2.02051C23.9022 2.02051 24.6473 3.9968 23.3857 6.40723L15.249 22H9.93457L14.624 13.0039H10.0039L5.31543 21.9902H0L10.4316 2L21.7266 2.02051ZM53 2L51.2324 5.35645H46.0703L37.2627 22H32L40.8076 5.35645H35.7168L37.4951 2H53ZM69.8945 7.26172L75.21 2H80L69.8945 12V22H65.2803V16.5566L59.7803 22H55L65.2803 11.8184V2H69.8945V7.26172ZM11.3652 10.4111H15.9844L18.2295 6.10449L18.2402 6.11523C18.3098 5.97403 18.3486 5.84239 18.3486 5.73145C18.3585 5.47944 18.2097 5.29785 17.9316 5.29785H14.0371L11.3652 10.4111Z" fill="black"/>
</svg>
