<svg width="162" height="24" viewBox="0 0 162 24" fill="none" xmlns="http://www.w3.org/2000/svg">
<path d="M22.29 23.6904H16.2803L16.5195 18.9004H8.90039L6.01953 23.6904H0L14.9404 1.00977H22.0801L22.29 23.6904ZM34.7998 17.7803H34.9199L44.6201 1.00977H50.5898L36.6504 23.6904H29.2402L30.0303 1.00977H36.2002L34.7998 17.7803ZM65.8701 23.6904H59.8604L60.0996 18.9004H52.4902L49.6104 23.6904H43.5996L58.54 1.00977H65.6699L65.8701 23.6904ZM75.96 23.6904H70.1904L77.5596 1.00977H83.3301L75.96 23.6904ZM88.8096 19.9404H99.0303L97.8096 23.6904H81.8203L89.1904 1.00977H94.96L88.8096 19.9404ZM133.02 23.6904H127.01L127.25 18.9004H119.64L116.76 23.6904H110.75L125.69 1.00977H132.81L133.02 23.6904ZM154.479 1C156.649 1 157.85 1.05023 159.12 1.49023C161.39 2.29027 162.23 4.03004 161.39 6.70996H161.38C160.36 9.94996 157.8 12.2099 155.13 13.1699L156.83 23.6797H150.44L149.99 14.0898H146.479L143.36 23.6797H137.59L144.96 1H154.479ZM11.1104 15.1396H16.7197L17.2695 4.94043H17.1904L11.1104 15.1396ZM54.71 15.1396H60.3203L60.8701 4.94043H60.79L54.71 15.1396ZM121.86 15.1396H127.47L128.02 4.94043H127.94L121.86 15.1396ZM149.65 4.37988L147.52 10.9199H150.28C152.7 10.9198 154.58 9.90001 155.37 7.49023C156.12 5.17032 154.62 4.37994 152.45 4.37988H149.65Z" fill="black"/>
</svg>
