<svg width="152" height="24" viewBox="0 0 152 24" fill="none" xmlns="http://www.w3.org/2000/svg">
<path d="M146.467 0.675051L145.425 3.88005H142.033L141.157 6.57405H144.55L143.515 9.76005H146.914L147.948 6.57405H151.105L151.981 3.88005H148.825L149.865 0.675051H146.467ZM136.335 4.42405H126.118L124.383 9.76005H134L132.784 13.5081H123.167L121.184 19.6051H131.805L130.586 23.3521H114.196L121.564 0.675051H137.553L136.335 4.42405ZM89.185 0.677052H94.957L88.806 19.6061H99.024L97.806 23.3521H81.816L89.185 0.677052ZM77.564 0.677052H83.336L75.966 23.3521H70.195L77.564 0.677052ZM60.321 14.8101L60.869 4.61505H60.789L54.711 14.8101H60.321ZM65.674 0.677052L65.879 23.3521H59.869L60.105 18.5581H52.491L49.61 23.3521H43.599L58.543 0.677052H65.674ZM34.8 17.4461H34.919L44.617 0.677052H50.588L36.646 23.3521H29.233L30.031 0.677052H36.202L34.8 17.4461ZM16.721 14.8101L17.269 4.61505H17.189L11.113 14.8101H16.721ZM22.076 0.677052L22.281 23.3521H16.269L16.507 18.5581H8.89099L6.00999 23.3521H0L14.943 0.677052H22.076Z" fill="black"/>
</svg>
