<svg width="100" height="24" viewBox="0 0 100 24" fill="none" xmlns="http://www.w3.org/2000/svg">
<path d="M89.185 0.999989H94.957L88.805 19.929H99.023L97.806 23.675H81.816L89.185 0.999989ZM77.564 0.999989H83.336L75.965 23.675H70.195L77.564 0.999989ZM60.321 15.133L60.869 4.93699H60.789L54.711 15.133H60.321ZM65.674 0.999989L65.879 23.675H59.869L60.105 18.881H52.491L49.61 23.675H43.599L58.542 0.999989H65.674ZM34.8 17.769H34.919L44.617 0.999989H50.588L36.646 23.675H29.233L30.031 0.999989H36.202L34.8 17.769ZM16.721 15.133L17.269 4.93699H17.189L11.113 15.133H16.721ZM22.076 0.999989L22.281 23.675H16.269L16.507 18.881H8.891L6.00999 23.675H0L14.943 0.999989H22.076Z" fill="black"/>
</svg>
