<svg width="103" height="24" viewBox="0 0 103 24" fill="none" xmlns="http://www.w3.org/2000/svg">
<path d="M79.021 1.43L76.815 17.632H76.893L85.409 1.43H90.752L88.741 17.632H88.817L97.141 1.43H102.485L90.333 23.339H84.099L86.166 7.446H86.089L77.826 23.339H71.593L73.678 1.43H79.021ZM52.681 16.144C52.435 17.177 52.344 18.014 52.406 18.661C52.467 19.304 52.702 19.777 53.109 20.072C53.516 20.37 54.133 20.517 54.959 20.517C55.785 20.517 56.498 20.37 57.097 20.072C57.696 19.777 58.237 19.304 58.717 18.661C59.198 18.014 59.65 17.177 60.078 16.144C60.502 15.111 60.955 13.858 61.434 12.385C61.911 10.912 62.273 9.665 62.515 8.641C62.756 7.618 62.849 6.779 62.791 6.125C62.733 5.47 62.499 4.994 62.093 4.699C61.686 4.402 61.068 4.254 60.243 4.254C59.416 4.254 58.703 4.402 58.105 4.699C57.505 4.994 56.963 5.47 56.48 6.125C55.996 6.779 55.542 7.618 55.119 8.641C54.697 9.665 54.247 10.912 53.767 12.385C53.29 13.858 52.927 15.111 52.681 16.144ZM49.973 7.796C50.621 6.396 51.439 5.195 52.423 4.192C53.407 3.188 54.61 2.406 56.032 1.844C57.453 1.281 59.208 1 61.3 1C63.39 1 64.963 1.281 66.02 1.844C67.076 2.406 67.77 3.188 68.103 4.192C68.437 5.195 68.471 6.396 68.21 7.796C67.948 9.199 67.548 10.728 67.009 12.385C66.464 14.062 65.87 15.598 65.224 16.988C64.578 18.379 63.762 19.577 62.778 20.578C61.794 21.58 60.597 22.346 59.186 22.88C57.773 23.411 56.023 23.677 53.933 23.677C51.841 23.677 50.263 23.411 49.196 22.88C48.131 22.346 47.431 21.58 47.098 20.578C46.766 19.577 46.728 18.379 46.987 16.988C47.246 15.598 47.648 14.062 48.192 12.385C48.731 10.728 49.324 9.199 49.973 7.796ZM33.622 17.632H33.738L43.106 1.43H48.876L35.407 23.339H28.244L29.014 1.43H34.977L33.622 17.632ZM16.155 15.085L16.683 5.234H16.607L10.737 15.085H16.155ZM21.328 1.43L21.527 23.339H15.719L15.947 18.707H8.59L5.80701 23.339H0L14.436 1.43H21.328Z" fill="black"/>
</svg>
