<svg width="92" height="24" viewBox="0 0 92 24" fill="none" xmlns="http://www.w3.org/2000/svg">
<path d="M39.235 9.56503L40.143 6.77103H28.222L28.221 6.77303H28.218L22.728 23.674V23.677H34.948L36.157 19.97H28.877L30.057 16.337H36.586L37.494 13.543H30.964L32.256 9.56503H39.235ZM15.314 9.77303C14.441 10.224 13.213 10.449 11.628 10.449H10.003L11.911 4.57603H13.972C15.399 4.57603 16.37 4.79603 16.888 5.23603C17.406 5.67503 17.491 6.43003 17.143 7.49703C16.797 8.56503 16.187 9.32303 15.314 9.77303ZM14.707 16.95C14.285 18.249 13.572 19.139 12.571 19.62C11.568 20.102 10.381 20.342 9.008 20.342H6.788L8.982 13.59H11.439C12.074 13.59 12.637 13.642 13.132 13.747C13.626 13.852 14.022 14.035 14.321 14.297C14.619 14.558 14.81 14.904 14.895 15.334C14.979 15.763 14.917 16.302 14.707 16.95ZM20.949 10.056C21.944 9.18803 22.64 8.14603 23.034 6.93103C23.381 5.86403 23.475 4.96403 23.318 4.23103C23.159 3.49803 22.795 2.91203 22.225 2.47203C21.654 2.03203 20.904 1.71903 19.975 1.53003C19.045 1.34103 17.999 1.24703 16.837 1.24703H7.286L0 23.672H9.63C11.295 23.672 12.745 23.494 13.984 23.138C15.222 22.782 16.289 22.305 17.183 21.708C18.077 21.112 18.798 20.416 19.347 19.62C19.897 18.825 20.314 17.987 20.6 17.108C21.09 15.6 21.018 14.397 20.386 13.496C19.754 12.596 18.672 12.062 17.142 11.894L17.163 11.831C18.691 11.517 19.954 10.926 20.949 10.056ZM91.505 6.77603L80.664 23.677H74.325L74.306 6.77603H80.012L79.135 18.871H79.215L86.036 6.77603H91.505ZM72.216 1.00003L71.012 4.70603H65.544L66.749 1.00003H72.216ZM70.339 6.77603L64.848 23.677H59.379L64.871 6.77603H70.339ZM46.575 1.25203H52.281L46.199 19.97H56.303L55.099 23.677H39.288L46.575 1.25203Z" fill="black"/>
</svg>
