<svg width="86" height="24" viewBox="0 0 86 24" fill="none" xmlns="http://www.w3.org/2000/svg">
<g clip-path="url(#clip0_8350_2269)">
<path d="M19.6904 0.400024C20.1401 0.400171 20.4499 0.630059 20.6299 1.07971C20.8198 1.5396 20.82 2.06974 20.6201 2.66956L18.4102 9.4801C18.2102 10.0901 17.8696 10.62 17.3896 11.0699C16.9097 11.5199 16.45 11.7496 16 11.7496C16.41 11.7696 16.7397 11.9604 16.9697 12.3004C17.2096 12.6304 17.2395 13.0806 17.0596 13.6305L14.7305 20.8102C14.5305 21.4202 14.2 21.95 13.71 22.4C13.24 22.85 12.78 23.0797 12.3301 23.0797H0L7.37012 0.400024H19.6904ZM25 18.1696H32.29L32.3604 23.0797H18.3701L25.7305 0.400024H30.7695L25 18.1696ZM41.5 23.0797H36.46L43.8301 0.400024H48.8701L41.5 23.0797ZM65.6299 5.31018H57.2598C57.1098 5.31027 56.9502 5.3905 56.7803 5.55042C56.6103 5.70041 56.4997 5.88047 56.4297 6.09045L56.4199 6.10022L55.4502 9.07971C55.3902 9.27964 55.3903 9.46978 55.4502 9.61975C55.5202 9.77975 55.6303 9.85999 55.7803 9.85999H62.4902C62.94 9.86006 63.2497 10.08 63.4297 10.5397C63.6297 10.9896 63.6296 11.5198 63.4297 12.1198L60.6104 20.8102C60.4203 21.4102 60.0698 21.94 59.5898 22.4C59.1199 22.85 58.6599 23.0797 58.21 23.0797H47.5596L47.4805 18.1696H55.8701C56.03 18.1695 56.1897 18.0899 56.3496 17.9401C56.5196 17.7801 56.6402 17.6002 56.7002 17.3903L57.6699 14.4098C57.7299 14.2099 57.7399 14.0297 57.6699 13.8698C57.6099 13.7099 57.4995 13.6305 57.3496 13.6305H50.6396C50.1898 13.6304 49.8696 13.4097 49.6797 12.9498C49.4798 12.4999 49.4897 11.9598 49.6797 11.36L52.5 2.66956C52.7 2.05978 53.0397 1.53958 53.5195 1.07971C54.0095 0.629742 54.4799 0.400055 54.9199 0.400024H67.2305L65.6299 5.31018ZM84 5.31018H75.6299C75.4799 5.31022 75.3203 5.39046 75.1504 5.55042C74.9804 5.70042 74.8698 5.88045 74.7998 6.09045L74.7803 6.10022L73.8096 9.07971C73.7496 9.27954 73.7497 9.46981 73.8096 9.61975C73.8795 9.77963 73.9898 9.85986 74.1396 9.85999H80.8496C81.2995 9.85999 81.61 10.0799 81.79 10.5397C81.99 10.9896 81.99 11.5199 81.79 12.1198L78.9697 20.8102C78.7797 21.41 78.4301 21.9401 77.9502 22.4C77.4803 22.8499 77.0202 23.0796 76.5703 23.0797H65.9199L65.8398 18.1696H74.2305C74.3903 18.1694 74.5501 18.0899 74.71 17.9401C74.8799 17.7801 74.9995 17.6001 75.0596 17.3903L76.0303 14.4098C76.0902 14.2099 76.1002 14.0297 76.0303 13.8698C75.9703 13.7099 75.8599 13.6305 75.71 13.6305H69C68.55 13.6305 68.23 13.4098 68.04 12.9498C67.8401 12.4999 67.8501 11.9599 68.04 11.36L70.8604 2.66956C71.0604 2.05978 71.4 1.53958 71.8799 1.07971C72.3699 0.629769 72.8403 0.400024 73.2803 0.400024H85.5898L84 5.31018ZM8.09961 13.6305L6.62988 18.1696H9.87988C10.0598 18.1696 10.2397 18.0799 10.4297 17.9C10.6296 17.7101 10.7598 17.5002 10.8398 17.2604L11.7305 14.5397C11.8003 14.2999 11.8004 14.0897 11.7305 13.9098C11.6605 13.72 11.5401 13.6306 11.3604 13.6305H8.09961ZM10.8203 5.31018L9.33984 9.85022H12.5996C12.7796 9.84022 12.9597 9.74969 13.1396 9.57971C13.3396 9.38974 13.4698 9.18002 13.5498 8.94006L14.4404 6.22034C14.5104 5.98057 14.5102 5.77034 14.4404 5.59045C14.3604 5.40045 14.2396 5.31018 14.0596 5.31018H10.8203Z" fill="black"/>
</g>
<defs>
<clipPath id="clip0_8350_2269">
<rect width="86" height="24" fill="white"/>
</clipPath>
</defs>
</svg>
