<svg width="113" height="24" viewBox="0 0 113 24" fill="none" xmlns="http://www.w3.org/2000/svg">
<g clip-path="url(#clip0_8350_2274)">
<path d="M17.03 1.35999C18.2 1.35999 19.26 1.45999 20.2 1.63999C21.14 1.82999 21.9 2.14999 22.48 2.58999C23.06 3.02999 23.42 3.62999 23.58 4.36999C23.74 5.10999 23.64 6.01999 23.29 7.09999C22.89 8.32999 22.19 9.37998 21.18 10.26C20.17 11.14 18.9 11.74 17.35 12.05L17.33 12.11C18.88 12.28 19.97 12.82 20.61 13.73C21.25 14.64 21.32 15.86 20.83 17.38C20.54 18.27 20.12 19.12 19.56 19.92C19 20.73 18.27 21.43 17.37 22.03C16.47 22.63 15.39 23.12 14.14 23.48C12.89 23.84 11.42 24.02 9.74 24.02H0L7.37 1.35999H17.03ZM9.11 20.67C10.5 20.67 11.7 20.43 12.71 19.94C13.72 19.45 14.44 18.56 14.87 17.24C15.08 16.58 15.15 16.04 15.06 15.6C14.97 15.17 14.78 14.82 14.48 14.55C14.18 14.29 13.78 14.1 13.28 14C12.78 13.89 12.21 13.84 11.57 13.84H9.08L6.86 20.67H9.1H9.11ZM11.76 10.67C13.36 10.67 14.61 10.44 15.49 9.98999C16.37 9.52999 16.99 8.76999 17.34 7.68999C17.69 6.60999 17.6 5.84999 17.08 5.39999C16.56 4.95999 15.57 4.72999 14.13 4.72999H12.05L10.12 10.67H11.76ZM68.74 1.35999L68.95 24.04H62.94L63.18 19.25H55.57L52.69 24.04H46.68L61.61 1.35999H68.74ZM63.39 15.49L63.94 5.28999H63.86L57.78 15.49H63.39ZM81.47 18.13H81.59L91.29 1.35999H97.26L83.32 24.04H75.91L76.71 1.35999H82.88L81.48 18.13H81.47ZM112.34 1.35999L112.55 24.04H106.54L106.78 19.25H99.17L96.29 24.04H90.28L105.21 1.35999H112.34ZM106.99 15.49L107.54 5.28999H107.46L101.38 15.49H106.99ZM36.48 24.04L36.03 14.45H32.52L29.4 24.04H23.63L31 1.35999H40.52C42.69 1.35999 43.88 1.39999 45.16 1.84999C47.43 2.64999 48.26 4.38999 47.43 7.06999C46.42 10.31 43.85 12.57 41.18 13.53L42.88 24.04H36.49H36.48ZM33.55 11.27H36.31C38.73 11.27 40.61 10.25 41.4 7.83999C42.15 5.50999 40.65 4.72999 38.48 4.72999H35.68L33.55 11.27Z" fill="black"/>
</g>
<defs>
<clipPath id="clip0_8350_2274">
<rect width="113" height="24" fill="white"/>
</clipPath>
</defs>
</svg>
