<svg width="272" height="24" viewBox="0 0 272 24" fill="none" xmlns="http://www.w3.org/2000/svg">
<path fill-rule="evenodd" clip-rule="evenodd" d="M19.7458 2.00977C21.9039 2.00981 22.6399 3.9858 21.3942 6.41504L20.9626 7.25195H16.4401L16.9694 6.22363C17.0773 6.00193 17.1064 5.80059 17.0476 5.64941C17.0476 5.63933 17.0378 5.61879 17.028 5.59863C16.9692 5.48796 16.842 5.4171 16.6657 5.41699H12.947C12.7019 5.41714 12.4079 5.55869 12.1628 5.78027C12.0843 5.84076 12.0156 5.91154 11.9567 5.99219C11.898 6.06265 11.8485 6.14284 11.7995 6.2334L5.85421 17.8066C5.78564 17.9376 5.74678 18.0689 5.74678 18.1797C5.73709 18.4316 5.89406 18.6025 6.16866 18.6025H9.88643C10.2886 18.6025 10.8082 18.2397 11.0339 17.7861L11.446 16.9795H15.9685L15.655 17.5947C14.3993 20.0242 11.6326 22 9.47432 22H2.2546C0.0963619 22 -0.639731 20.0242 0.606159 17.5947L6.35518 6.40527C7.60103 3.97603 10.367 2.00023 12.5251 2H19.7458V2.00977ZM49.7448 2.00977C51.9039 2.00983 52.6397 3.98522 51.3933 6.40332L45.0827 18.6748L43.3747 22H32.2556C30.0965 22 29.36 20.0254 30.6062 17.6074L36.9167 5.33496L38.6247 2H49.7448V2.00977ZM79.7146 2C81.9028 2.00011 82.6487 3.97622 81.3855 6.39551L73.2585 22H67.7585L76.0437 6.09277C76.1132 5.95176 76.153 5.82079 76.153 5.70996C76.153 5.59912 76.1336 5.50805 76.0739 5.4375C76.0044 5.33679 75.8949 5.28623 75.736 5.28613H72.1052L63.4011 22H57.9997L68.4147 2H79.7146ZM112.222 5.35645H107.071L98.2624 22H92.9997L101.808 5.35645H96.7175L98.4851 2H114L112.222 5.35645ZM140.237 5.28613H132.461L130.402 9.13672H137.496L136.109 11.7383H129.016L125.338 18.623H133.124L131.32 22H118L128.68 2H142L140.237 5.28613ZM167.715 2C169.903 2.00016 170.649 3.97625 169.385 6.39551L161.258 22H155.758L164.044 6.09277C164.113 5.95176 164.153 5.82079 164.153 5.70996C164.153 5.59912 164.134 5.50805 164.074 5.4375C164.004 5.33669 163.894 5.28613 163.735 5.28613H160.105L151.401 22H146L156.415 2H167.715ZM197.653 2C199.834 2 200.672 3.97615 199.407 6.39551C199.389 6.42966 193.409 17.8887 193.002 18.6738C191.826 20.9517 189.476 22 185.85 22H176L186.438 2H197.653ZM242.717 2.02051L242.727 2.00977C244.902 2.00977 245.647 3.9868 244.386 6.40723L236.253 22H230.94L235.628 13.0039H231.009L226.313 21.9902H221L231.426 2L242.717 2.02051ZM269.667 2C271.879 2 272.667 4.02532 271.382 6.47363L270.803 7.58203C269.141 10.7728 266.354 10.6852 266.308 10.7051C266.577 10.9771 268.341 12.2267 267.225 14.3828L263.249 22H257.767L262.889 12.1865H258.524L253.402 22H248L258.445 2.00977H269.687L269.667 2ZM183.141 18.7139H183.978C186.398 18.7138 187.902 17.9477 188.699 16.4258C188.978 15.9016 194.068 6.13281 194.068 6.13281H194.058C194.317 5.57866 194.187 5.28617 193.63 5.28613H190.114L183.141 18.7139ZM35.7888 17.8994C35.7201 18.0405 35.6804 18.1714 35.6804 18.2822C35.6804 18.4031 35.7006 18.4939 35.7595 18.5645C35.8282 18.6549 35.9358 18.705 36.0925 18.7051H39.7146L46.2019 6.10059C46.2705 5.95961 46.3093 5.82855 46.3093 5.71777C46.3093 5.60713 46.2899 5.51676 46.2312 5.44629C46.1625 5.35561 46.0542 5.29492 45.8972 5.29492H42.2761L35.7888 17.8994ZM232.36 10.4111H236.978L239.222 6.10449L239.232 6.11523C239.302 5.97403 239.342 5.84239 239.342 5.73145C239.351 5.47948 239.202 5.2979 238.925 5.29785H235.032L232.36 10.4111ZM262.073 5.38574L259.929 9.50586H262.272C263.578 9.5057 264.753 8.64981 265.311 7.58203C265.501 7.21941 265.72 6.82629 265.949 6.37305V6.3623C266.198 5.8888 265.899 5.38574 265.252 5.38574H262.073Z" fill="black"/>
</svg>
