<svg width="200" height="24" viewBox="0 0 200 24" fill="none" xmlns="http://www.w3.org/2000/svg">
<path fill-rule="evenodd" clip-rule="evenodd" d="M19.7457 2H12.5255C10.3672 2 7.60074 3.97581 6.35485 6.40524L0.606108 17.5948C-0.639782 20.0242 0.0960322 22 2.25427 22H9.47453C11.6328 22 14.3993 20.0242 15.655 17.5948L15.9688 16.9798H11.4464L11.0343 17.7863C10.8087 18.2399 10.2888 18.6028 9.8866 18.6028H6.16851C5.89383 18.6028 5.73681 18.4314 5.74662 18.1794C5.74662 18.0685 5.78597 17.9375 5.85464 17.8065L11.7995 6.23387C11.8486 6.14315 11.8977 6.0625 11.9565 5.99194C12.0154 5.91129 12.084 5.84073 12.1625 5.78024C12.4078 5.55847 12.7021 5.41734 12.9474 5.41734H16.6653C16.8419 5.41734 16.9694 5.4879 17.0283 5.59879L17.0284 5.599C17.0382 5.61909 17.0479 5.63915 17.0479 5.64919C17.1068 5.8004 17.0774 6.00202 16.9695 6.22379L16.4397 7.25202H20.9622L21.3939 6.41532C22.6398 3.98589 21.904 2.01008 19.7457 2.01008V2ZM129.017 11.7379H136.11L137.496 9.1371H130.403L132.461 5.28629H140.237L142 2H128.68L118 22H131.32L133.124 18.623H125.338L129.017 11.7379ZM156.414 2H167.714C169.903 2 170.649 3.97581 169.385 6.39516L161.259 22H155.758L164.044 6.09274C164.114 5.95161 164.153 5.82056 164.153 5.70968C164.153 5.59879 164.133 5.50806 164.074 5.4375C164.004 5.33669 163.895 5.28629 163.735 5.28629H160.105L151.401 22H146L156.414 2ZM79.7144 2H68.4146L58 22H63.4013L72.1049 5.28629H75.7356C75.8947 5.28629 76.0041 5.33669 76.0737 5.4375C76.1334 5.50806 76.1533 5.59879 76.1533 5.70968C76.1533 5.82056 76.1135 5.95161 76.0439 6.09274L67.7581 22H73.2588L81.3854 6.39516C82.6487 3.97581 81.9027 2 79.7144 2ZM38.6249 2H49.7447V2.01008C51.9039 2.01008 52.6401 3.98489 51.3936 6.40302L45.0828 18.6751L43.3751 22H32.2553C30.0961 22 29.3599 20.0252 30.6064 17.6071L36.9172 5.33501L38.6249 2ZM39.7143 18.7053L46.2017 6.10076C46.2704 5.9597 46.3096 5.82872 46.3096 5.71788C46.3096 5.60705 46.2901 5.51637 46.2312 5.44584C46.1625 5.35516 46.0544 5.29471 45.8974 5.29471H42.2759L35.7885 17.8992C35.7198 18.0403 35.6805 18.1713 35.6805 18.2821C35.6805 18.403 35.7001 18.4937 35.759 18.5642C35.8277 18.6549 35.9356 18.7053 36.0927 18.7053H39.7143ZM114 2H98.4849L96.7172 5.35685H101.808L93 22H98.2626L107.071 5.35685H112.222L114 2ZM186.438 2H197.653C199.835 2 200.671 3.97581 199.406 6.39516C199.406 6.39516 193.41 17.8871 193.002 18.6734C191.827 20.9516 189.476 22 185.851 22H176L186.438 2ZM188.699 16.4254C188.978 15.9012 194.068 6.13306 194.068 6.13306H194.058C194.317 5.57863 194.187 5.28629 193.63 5.28629H190.114L183.142 18.7137H183.978C186.398 18.7137 187.902 17.9476 188.699 16.4254Z" fill="currentColor"/>
</svg>
