<svg width="265" height="24" viewBox="0 0 265 24" fill="none" xmlns="http://www.w3.org/2000/svg">
<path fill-rule="evenodd" clip-rule="evenodd" d="M19.7458 2.02051C21.904 2.02055 22.6401 3.99637 21.3942 6.42578L20.9626 7.26172H16.4401L16.9694 6.2334C17.0772 6.00173 17.1064 5.80054 17.0476 5.64941C17.0476 5.63933 17.0378 5.61879 17.028 5.59863C16.9692 5.48796 16.842 5.4171 16.6657 5.41699H12.947C12.7019 5.41714 12.4079 5.55869 12.1628 5.78027C12.0843 5.84076 12.0156 5.91154 11.9567 5.99219C11.898 6.06265 11.8485 6.14284 11.7995 6.2334L5.85421 17.8066C5.78564 17.9376 5.74678 18.0689 5.74678 18.1797C5.73709 18.4316 5.89406 18.6025 6.16866 18.6025H9.88643C10.2886 18.6025 10.8082 18.2397 11.0339 17.7861L11.446 16.9795H15.9685L15.655 17.5947C14.3993 20.0242 11.6326 22 9.47432 22H2.2546C0.0963619 22 -0.639731 20.0242 0.606159 17.5947L6.35518 6.40527C7.60103 3.97603 10.367 2.00023 12.5251 2H19.7458V2.02051ZM49.7448 2C51.9039 2.00006 52.6397 3.97619 51.3933 6.39551L45.0827 18.6738L43.3747 22H32.2556C30.0964 22 29.3597 20.0238 30.6062 17.6045L36.9167 5.32617L38.6247 2H49.7448ZM80.6189 2C82.8984 2 83.676 3.97615 82.3601 6.39551L73.8942 22H68.1647L76.7956 6.09277C76.8681 5.95176 76.9098 5.82079 76.9099 5.70996C76.9099 5.59908 76.889 5.50806 76.8269 5.4375C76.7543 5.33669 76.6401 5.28613 76.4743 5.28613H72.6931L63.6267 22H57.9997L68.8483 2H80.6189ZM113.222 5.35645H108.071L99.2624 22H93.9997L102.808 5.35645H97.7175L99.4851 2H115L113.222 5.35645ZM141.237 5.28613H133.461L131.402 9.13672H138.496L137.109 11.7383H130.016L126.338 18.623H134.124L132.32 22H119L129.68 2H143L141.237 5.28613ZM168.715 2C170.903 2.00016 171.649 3.97625 170.385 6.39551L162.258 22H156.758L165.044 6.09277C165.113 5.95177 165.153 5.82079 165.153 5.70996C165.153 5.60919 165.134 5.50806 165.074 5.4375C165.004 5.33669 164.894 5.28613 164.735 5.28613H161.105L152.401 22H147L157.415 2H168.715ZM199.555 2C201.828 2 202.699 3.97615 201.382 6.39551C201.342 6.46782 195.135 17.89 194.711 18.6738C193.486 20.9518 191.038 21.9999 187.261 22H177L187.873 2H199.555ZM240.292 2C246.082 2.00057 247.023 2.52627 245.088 6.15332L244.323 7.59473H239.2L239.965 6.15332C240.709 4.77227 240.848 4.55078 238.931 4.55078C237.015 4.55082 236.926 4.77238 236.191 6.15332L235.169 8.0791C234.633 9.0869 234.554 9.25801 236.688 10.0039C241.801 11.778 242.049 12.2019 240.699 14.7422L239.031 17.877C237.095 21.506 235.605 22 229.637 22C224.018 22 223.025 21.3043 224.802 17.877L226.828 13.9961H232.05L229.985 17.877C229.26 19.2277 229.102 19.4795 230.978 19.4795C232.855 19.4795 232.994 19.2377 233.718 17.877L235.288 14.9434C235.983 13.6331 236.201 13.3608 233.997 12.5947C228.913 10.8408 228.734 10.2761 229.935 8.02832L230.938 6.15332C232.873 2.51631 234.323 2.0006 240.292 2ZM256.234 18.623H263.942L262.159 22H249L259.55 2H265L256.234 18.623ZM35.7888 17.9072C35.7201 18.0482 35.6804 18.1792 35.6804 18.29C35.6804 18.411 35.7006 18.5017 35.7595 18.5723C35.8282 18.6629 35.9356 18.7138 36.0925 18.7139H39.7146L46.2019 6.10254C46.2705 5.96152 46.3093 5.83054 46.3093 5.71973C46.3093 5.60885 46.29 5.51782 46.2312 5.44727C46.1624 5.34661 46.0541 5.2959 45.8972 5.2959H42.2761L35.7888 17.9072ZM191.702 5.28613L184.439 18.7139H185.31C187.831 18.7139 189.398 17.9477 190.228 16.4258C190.519 15.9016 195.821 6.13281 195.821 6.13281H195.81C196.08 5.57851 195.945 5.28613 195.364 5.28613H191.702Z" fill="black"/>
</svg>
