<svg width="291" height="24" viewBox="0 0 291 24" fill="none" xmlns="http://www.w3.org/2000/svg">
<path d="M21.6533 2C23.8346 2 24.6712 3.97615 23.4062 6.39551C23.3679 6.46907 17.409 17.8901 17.002 18.6738C15.8266 20.9518 13.4759 22 9.85059 22H0L10.4385 2H21.6533ZM49.7178 2.02051L49.7275 2.00977C51.9023 2.00977 52.6469 3.98667 51.3857 6.40723L43.2529 22H37.9404L42.6279 13.0039H38.0098L33.3125 21.9902H28L38.4268 2L49.7178 2.02051ZM62.4004 22H57L67.5889 2H73L62.4004 22ZM85.2402 18.623H92.9424L91.1602 22H78L88.5527 2H94L85.2402 18.623ZM111.596 11.2295C111.142 12.0756 111.41 12.7509 112.194 12.751H114.269C115.053 12.7508 116.064 12.0756 116.518 11.2295L121.511 2H127L123.461 8.55957L120.552 13.9297L118.859 17.0527C117.384 19.7831 115.321 21.9999 111.565 22H101L102.847 18.5742H111.121C112.287 18.5742 113.154 18.3625 113.835 17.6572C114.165 17.3144 115.021 16.0352 115.021 16.0352H108.583C105.942 16.0349 104.962 13.4055 106.52 10.5342C108.004 7.80568 111.148 2.00841 111.152 2H116.579L111.596 11.2295ZM152.232 5.35645H147.07L138.263 22H133L141.809 5.35645H136.717L138.485 2H154L152.232 5.35645ZM177.745 2C179.904 2.00019 180.64 3.97627 179.394 6.39551L173.083 18.6738L171.375 22H160.255C158.096 21.9998 157.36 20.0237 158.606 17.6045L164.917 5.32617L166.625 2H177.745ZM193.835 17.9072C193.765 18.0482 193.725 18.1792 193.725 18.29C193.725 18.4008 193.745 18.492 193.805 18.5625C193.875 18.6633 193.986 18.7139 194.146 18.7139H197.834L206.625 2H212L201.48 22H190.309C188.098 22 187.345 20.0238 188.621 17.6045L196.829 2H202.204L193.835 17.9072ZM238.569 2C240.874 2 241.695 4.02609 240.355 6.47559L239.753 7.58496C238.023 10.7635 235.125 10.6795 235.071 10.6992C235.352 10.9714 237.189 12.2217 236.026 14.3789L231.884 22H226.174L231.51 12.1816H226.963L221.627 22H216L226.88 2H238.569ZM285.93 2.00977L284.21 5.27051H276.49L275.28 7.55957L276.45 8.33984L264 21.8496L266.65 16.8301L271.3 8.03027L270.11 7.23047H270.1L272.86 2.00977H285.93ZM280.16 11.6602H275.32L271.71 18.4902H278.84L277.07 21.8496H265.93L275.31 11.6602L277.68 9.08008H281.52L280.16 11.6602ZM7.15137 18.7139H7.97852C10.3985 18.7138 11.9024 17.9477 12.6992 16.4258C12.9781 15.9016 18.0674 6.13281 18.0674 6.13281C18.3263 5.57848 18.1972 5.2862 17.6396 5.28613H14.124L7.15137 18.7139ZM163.799 17.9072C163.73 18.0482 163.69 18.1792 163.69 18.29C163.69 18.4108 163.71 18.5017 163.769 18.5723C163.837 18.663 163.946 18.7139 164.103 18.7139H167.725L174.212 6.10254C174.281 5.96154 174.319 5.83052 174.319 5.71973C174.319 5.60885 174.3 5.51783 174.241 5.44727C174.173 5.34652 174.064 5.2959 173.907 5.2959H170.286L163.799 17.9072ZM39.3604 10.4219H43.9785L46.2227 6.11523H46.2324C46.3019 5.97403 46.3418 5.84239 46.3418 5.73145C46.3516 5.47957 46.2025 5.29803 45.9248 5.29785H42.0312L39.3604 10.4219ZM228.427 9.5H230.866C232.226 9.5 233.452 8.64277 234.033 7.57422C234.23 7.21151 234.459 6.81857 234.697 6.36523V6.35449C234.957 5.88077 234.645 5.37696 233.971 5.37695H230.659L228.427 9.5ZM289.8 2L289.13 3.25977H290.56L290.15 4.00977H288.74L288.08 5.25977H287.23L287.89 4H286.47L286.88 3.25H288.29L288.95 2H289.8Z" fill="black"/>
</svg>
