<svg width="304" height="24" viewBox="0 0 304 24" fill="none" xmlns="http://www.w3.org/2000/svg">
<path d="M48.3711 6.15516L46.1081 10.4262L44.9621 10.4252L42.6081 10.4212L41.4601 10.4192L44.1481 5.34716L48.0641 5.35316C48.3421 5.35316 48.4931 5.52316 48.4841 5.77216C48.4801 5.88516 48.4451 6.01616 48.3711 6.15516ZM51.8911 2.09916L40.5251 2.08116L30.0251 21.9002L35.3731 21.9072L40.0981 12.9902L41.2421 12.9922L43.5981 12.9962L44.7431 12.9982L40.0191 21.9142L45.3671 21.9232L53.5611 6.45816C54.8331 4.05716 54.0841 2.10216 51.8911 2.09916Z" fill="black"/>
<path d="M70.5275 2.08116L60.0505 21.9232H65.3955L75.8705 2.08116H70.5275Z" fill="black"/>
<path d="M18.134 6.18342C18.134 6.18342 13.022 15.8694 12.747 16.3874C11.95 17.8994 10.438 18.6634 8.008 18.6634H7.172L14.171 5.34842H17.701C18.263 5.34842 18.391 5.64142 18.134 6.18342ZM21.734 2.08142H15.955H10.477L0 21.9224H9.887C13.528 21.9224 15.886 20.8784 17.069 18.6194C17.475 17.8434 23.499 6.44142 23.499 6.44142C24.769 4.03742 23.928 2.08142 21.734 2.08142Z" fill="black"/>
<path d="M186.031 6.12616L179.416 18.6342L175.727 18.6322C175.569 18.6322 175.453 18.5802 175.383 18.4892C175.328 18.4182 175.301 18.3252 175.304 18.2142C175.31 18.1022 175.344 17.9702 175.417 17.8322L182.031 5.32316L185.722 5.32516C185.878 5.32516 185.996 5.38016 186.063 5.47216C186.12 5.54116 186.145 5.63516 186.142 5.74316C186.14 5.85716 186.104 5.98716 186.031 6.12616ZM189.64 2.06316L183.658 2.06016L178.307 2.05716L176.563 5.36116L170.125 17.5352C168.856 19.9382 169.606 21.8942 171.801 21.8962L177.579 21.8992L183.133 21.9022L184.878 18.5982L191.313 6.42316C192.586 4.02016 191.834 2.06516 189.64 2.06316Z" fill="black"/>
<path d="M163.501 2.04914L148.145 2.04014L146.388 5.36614L151.431 5.36914L142.702 21.8791L147.909 21.8821L156.637 5.37214L161.743 5.37514L163.501 2.04914Z" fill="black"/>
<path d="M245.579 6.42136C245.345 6.87336 245.133 7.26236 244.942 7.62536C244.386 8.68236 243.2 9.53336 241.891 9.53336C241.543 9.53236 239.537 9.53136 239.537 9.53136L241.686 5.44636C241.686 5.44636 244.666 5.44836 244.876 5.44836C245.531 5.44836 245.823 5.94736 245.579 6.42136ZM249.329 2.09736L238.053 2.09036L227.566 21.9274L232.988 21.9304L238.135 12.1944L242.519 12.1974L237.372 21.9324L242.875 21.9354L246.872 14.3744C247.991 12.2304 246.226 10.9944 245.955 10.7224C245.994 10.7004 248.798 10.7924 250.471 7.63036L251.05 6.53336C252.337 4.10136 251.553 2.09836 249.329 2.09736Z" fill="black"/>
<path d="M201.68 21.9125L212.809 21.9185L223.295 2.08252L217.944 2.07952L209.183 18.6535L205.508 18.6515C205.352 18.6515 205.235 18.5975 205.165 18.5045C205.109 18.4335 205.081 18.3395 205.086 18.2305C205.091 18.1185 205.126 17.9885 205.198 17.8495L213.539 2.07752L208.187 2.07452L200.005 17.5525C198.733 19.9555 199.487 21.9115 201.68 21.9125Z" fill="black"/>
<path d="M128.095 2.08116L123.259 11.2392C122.82 12.0752 121.844 12.7482 121.081 12.7482H119.076C118.315 12.7482 118.055 12.0752 118.495 11.2392L123.327 2.08116H118.064C118.064 2.08116 115.011 7.84316 113.578 10.5472C112.065 13.4012 113.016 16.0112 115.578 16.0112H119.356C119.835 16.0112 121.817 16.0042 121.817 16.0042C121.817 16.0042 120.992 17.2702 120.665 17.6162C120.001 18.3172 119.169 18.5272 118.032 18.5272H110.015L108.221 21.9232H118.465C122.101 21.9232 124.107 19.7202 125.535 17.0152L127.17 13.9172L129.987 8.58716L133.418 2.08116H128.095Z" fill="black"/>
<path d="M95.8753 2.08118H90.4663L79.9923 21.9222H93.0613L94.8323 18.5682H87.1743L95.8753 2.08118Z" fill="black"/>
<path d="M278.604 7.34178L279.794 8.13978L275.145 16.9438L272.498 21.9598L284.943 8.45278L283.775 7.66978L284.985 5.37978H292.709L294.432 2.11678H281.36L278.604 7.34178ZM283.812 11.7738L280.203 18.6038H287.337L285.566 21.9598H274.427L283.812 11.7738L286.185 9.19778L290.022 9.19878L288.663 11.7738H283.812Z" fill="black"/>
<path d="M295.595 11.6479H292.583L293.812 9.32687H296.824L298.497 6.16687H301.633L299.96 9.32687H302.972L301.743 11.6479H298.731L297.063 14.7999H293.926L295.595 11.6479Z" fill="black"/>
</svg>
