<svg width="161" height="24" viewBox="0 0 161 24" fill="none" xmlns="http://www.w3.org/2000/svg">
<path d="M40.779 11.7188H47.735L49.096 9.1418H42.138L44.156 5.3228H51.793L53.517 2.0608H40.447L29.97 21.9028H43.039L44.811 18.5488H37.174L40.779 11.7188Z" fill="black"/>
<path d="M18.134 6.16305C18.134 6.16305 13.022 15.849 12.747 16.368C11.95 17.879 10.438 18.643 8.007 18.643H7.172L14.171 5.32805H17.701C18.263 5.32805 18.391 5.62105 18.134 6.16305ZM21.734 2.06105H15.955H10.476L0 21.903H9.887C13.528 21.903 15.886 20.859 17.069 18.599C17.475 17.823 23.499 6.42105 23.499 6.42105C24.769 4.01705 23.928 2.06105 21.734 2.06105Z" fill="black"/>
<path d="M105.984 2.06068L101.148 11.2187C100.709 12.0547 99.7331 12.7277 98.9701 12.7277H96.9651C96.2041 12.7277 95.9441 12.0547 96.3831 11.2187L101.216 2.06068H95.9531C95.9531 2.06068 92.9001 7.82268 91.4671 10.5267C89.9541 13.3807 90.9041 15.9917 93.4671 15.9917H97.2441C97.7241 15.9917 99.7061 15.9837 99.7061 15.9837C99.7061 15.9837 98.8811 17.2497 98.5541 17.5957C97.8901 18.2967 97.0571 18.5067 95.9211 18.5067H87.9041L86.1101 21.9027H96.3541C99.9901 21.9027 101.995 19.6997 103.424 16.9957L105.059 13.8967L107.876 8.56668L111.307 2.06068H105.984Z" fill="black"/>
<path d="M69.3833 10.1196L71.9163 5.32356H79.5683L81.2913 2.06056H68.2223L57.7483 21.9026H63.1943L68.0253 12.6956H74.9973L76.3563 10.1196H69.3833Z" fill="black"/>
<path d="M136.422 7.32154L137.612 8.11954L132.963 16.9235L130.316 21.9395L142.761 8.43254L141.593 7.64954L142.803 5.35954H150.527L152.25 2.09654H139.178L136.422 7.32154ZM141.63 11.7535L138.021 18.5835H145.155L143.384 21.9395H132.245L141.63 11.7535L144.003 9.17754L147.84 9.17854L146.481 11.7535H141.63Z" fill="black"/>
<path d="M153.414 11.6278H150.402L151.63 9.30675H154.643L156.316 6.14676H159.452L157.779 9.30675H160.791L159.563 11.6278H156.55L154.882 14.7798H151.745L153.414 11.6278Z" fill="black"/>
</svg>
