<svg width="112" height="24" viewBox="0 0 112 24" fill="none" xmlns="http://www.w3.org/2000/svg">
<path d="M21.6533 2C23.8346 2 24.6712 3.97615 23.4062 6.39551C23.3833 6.43946 17.4095 17.889 17.002 18.6738C15.8266 20.9519 13.476 22 9.85059 22H0L10.4385 2H21.6533ZM52.2471 5.28613H44.4609L42.4023 9.1377H49.4951L48.1094 11.7383H41.0166L37.3477 18.623H45.124L43.3193 22H30L40.6807 2H54L52.2471 5.28613ZM80.2461 5.28613H72.4365L69.8574 10.125H76.9639L75.5771 12.7266H68.4707L63.5459 22H58L68.6748 2H82L80.2461 5.28613ZM101.98 2L97.1885 11.2295C96.752 12.0758 97.0098 12.7509 97.7637 12.751H99.748C100.502 12.7509 101.475 12.0758 101.911 11.2295L106.712 2H112L108.598 8.55957L105.8 13.9297L104.173 17.0527C102.754 19.7831 100.77 21.9998 97.1592 22H87L88.7754 18.5742H96.7324C97.8531 18.5742 98.6862 18.363 99.3408 17.6582C99.6583 17.3156 100.482 16.0352 100.482 16.0352H94.292C91.7523 16.0352 90.8096 13.4057 92.3076 10.5342C93.7362 7.80364 96.7617 2 96.7617 2H101.98ZM7.15137 18.7139H7.97852C10.3986 18.7138 11.9024 17.9478 12.6992 16.4258C12.977 15.9037 18.0258 6.21362 18.0674 6.13379C18.3263 5.57941 18.1973 5.2862 17.6396 5.28613H14.124L7.15137 18.7139Z" fill="black"/>
</svg>
