<svg width="132" height="24" viewBox="0 0 132 24" fill="none" xmlns="http://www.w3.org/2000/svg">
<path d="M9.097 20.0868C10.076 20.0868 10.905 19.9538 11.584 19.6888C12.263 19.4228 12.877 18.9838 13.424 18.3698C13.971 17.7548 14.465 16.9478 14.907 15.9448C15.347 14.9438 15.81 13.6938 16.295 12.2008C16.699 10.9528 17.002 9.8588 17.206 8.9158C17.408 7.9758 17.449 7.1938 17.329 6.5688C17.209 5.9448 16.885 5.4748 16.356 5.1568C15.827 4.8398 15.035 4.6828 13.978 4.6828H11.621L6.623 20.0868H9.097ZM16.233 1.4278C18.165 1.4278 19.644 1.6798 20.666 2.1818C21.689 2.6818 22.378 3.3968 22.734 4.3298C23.089 5.2608 23.171 6.3798 22.977 7.6898C22.785 8.9978 22.426 10.4618 21.902 12.0788C21.278 14.0008 20.587 15.6728 19.829 17.0948C19.071 18.5178 18.182 19.6888 17.162 20.6088C16.142 21.5308 14.953 22.2168 13.596 22.6638C12.237 23.1168 10.632 23.3418 8.776 23.3418H0L7.109 1.4278H16.233Z" fill="black"/>
<path d="M44.6667 5.04906H34.8087L33.1367 10.2061H42.4147L41.2397 13.8271H31.9617L30.0497 19.7191H40.2957L39.1207 23.3411H23.3077L30.4167 1.42806H45.8417L44.6667 5.04906Z" fill="black"/>
<path d="M54.1985 17.6338H54.3135L63.6695 1.4278H69.4285L55.9805 23.3418H48.8285L49.5965 1.4278H55.5495L54.1985 17.6338Z" fill="black"/>
<path d="M73.2308 16.144C72.9838 17.177 72.8938 18.017 72.9548 18.662C73.0178 19.307 73.2508 19.777 73.6578 20.072C74.0628 20.369 74.6778 20.517 75.5028 20.517C76.3278 20.517 77.0398 20.369 77.6408 20.072C78.2378 19.777 78.7778 19.307 79.2558 18.662C79.7368 18.017 80.1888 17.177 80.6158 16.144C81.0398 15.11 81.4918 13.857 81.9678 12.384C82.4468 10.912 82.8068 9.663 83.0498 8.642C83.2898 7.618 83.3818 6.78 83.3238 6.125C83.2648 5.471 83.0338 4.993 82.6268 4.698C82.2198 4.401 81.6048 4.253 80.7798 4.253C79.9548 4.253 79.2428 4.401 78.6448 4.698C78.0468 4.993 77.5058 5.471 77.0218 6.125C76.5388 6.78 76.0848 7.618 75.6648 8.642C75.2428 9.663 74.7928 10.912 74.3148 12.384C73.8378 13.857 73.4758 15.11 73.2308 16.144ZM70.5258 7.798C71.1728 6.395 71.9878 5.194 72.9728 4.192C73.9548 3.188 75.1548 2.407 76.5748 1.844C77.9958 1.281 79.7478 1 81.8358 1C83.9238 1 85.4948 1.281 86.5488 1.844C87.6028 2.407 88.2968 3.188 88.6288 4.192C88.9598 5.194 88.9958 6.395 88.7348 7.798C88.4748 9.197 88.0738 10.728 87.5368 12.384C86.9918 14.064 86.3978 15.597 85.7528 16.988C85.1078 18.379 84.2948 19.576 83.3128 20.58C82.3298 21.582 81.1328 22.349 79.7238 22.881C78.3148 23.412 76.5658 23.677 74.4778 23.677C72.3908 23.677 70.8148 23.412 69.7498 22.881C68.6848 22.349 67.9878 21.582 67.6558 20.58C67.3228 19.576 67.2848 18.379 67.5428 16.988C67.8018 15.597 68.2018 14.064 68.7478 12.384C69.2848 10.728 69.8778 9.197 70.5258 7.798Z" fill="black"/>
<path d="M111.062 5.04906H105.032L99.0968 23.3411H93.5308L99.4628 5.04906H93.4338L94.6068 1.42806H112.237L111.062 5.04906Z" fill="black"/>
<path d="M130.748 5.04906H120.892L119.218 10.2061H128.497L127.321 13.8271H118.042L116.132 19.7191H126.377L125.202 23.3411H109.39L116.498 1.42806H131.923L130.748 5.04906Z" fill="black"/>
</svg>
