<svg width="186" height="24" viewBox="0 0 186 24" fill="none" xmlns="http://www.w3.org/2000/svg">
<path d="M173.909 1.431H167.482L160.364 23.337H165.473L170.46 7.997H170.537L172.367 23.337H178.714L185.831 1.431H180.722L175.847 16.434H175.768L173.909 1.431ZM162.578 1.431H147.13L140.014 23.337H155.847L157.023 19.716H146.765L148.679 13.828H157.97L159.147 10.206H149.857L151.532 5.051H161.403L162.578 1.431ZM134.026 6.573C133.91 5.944 133.582 5.476 133.051 5.159C132.524 4.842 131.73 4.682 130.671 4.682H128.316L123.308 20.084H125.788C126.761 20.084 127.597 19.955 128.272 19.689C128.953 19.421 129.569 18.982 130.117 18.366C130.666 17.751 131.159 16.943 131.603 15.943C132.041 14.937 132.503 13.697 132.991 12.198C133.399 10.951 133.697 9.859 133.905 8.916C134.106 7.978 134.149 7.194 134.026 6.573ZM139.684 7.692C139.488 9.002 139.129 10.463 138.607 12.076C137.978 14 137.291 15.675 136.529 17.094C135.775 18.512 134.879 19.689 133.862 20.608C132.839 21.526 131.652 22.21 130.287 22.66C128.929 23.109 127.321 23.336 125.465 23.336H116.678L123.79 1.432H132.93C134.868 1.432 136.346 1.682 137.369 2.182C138.391 2.687 139.081 3.398 139.44 4.33C139.793 5.263 139.879 6.384 139.684 7.692ZM96.796 23.337H112.241L113.418 19.716H103.547L109.491 1.431H103.913L96.796 23.337ZM91.175 6.128C91.114 5.47 90.882 4.995 90.475 4.697C90.067 4.404 89.453 4.252 88.631 4.252C87.802 4.252 87.089 4.404 86.487 4.697C85.889 4.995 85.348 5.47 84.867 6.128C84.379 6.778 83.929 7.619 83.503 8.642C83.083 9.665 82.632 10.914 82.151 12.387C81.676 13.861 81.316 15.109 81.067 16.144C80.823 17.172 80.733 18.013 80.793 18.659C80.854 19.305 81.091 19.773 81.498 20.066C81.901 20.363 82.522 20.516 83.345 20.516C84.173 20.516 84.885 20.363 85.483 20.066C86.086 19.773 86.621 19.305 87.102 18.659C87.583 18.013 88.034 17.172 88.466 16.144C88.886 15.109 89.343 13.861 89.818 12.387C90.299 10.914 90.658 9.665 90.902 8.642C91.139 7.619 91.236 6.778 91.175 6.128ZM96.595 7.802C96.333 9.195 95.931 10.732 95.395 12.387C94.847 14.061 94.258 15.596 93.612 16.985C92.966 18.379 92.149 19.573 91.164 20.578C90.183 21.575 88.983 22.344 87.571 22.879C86.158 23.409 84.411 23.677 82.315 23.677C80.226 23.677 78.65 23.409 77.583 22.879C76.518 22.344 75.818 21.575 75.483 20.578C75.154 19.573 75.118 18.379 75.375 16.985C75.636 15.596 76.032 14.061 76.579 12.387C77.115 10.732 77.711 9.195 78.356 7.802C79.009 6.395 79.825 5.195 80.805 4.191C81.792 3.193 82.997 2.405 84.416 1.846C85.842 1.28 87.595 1 89.684 1C91.778 1 93.349 1.28 94.404 1.846C95.455 2.405 96.157 3.193 96.486 4.191C96.82 5.195 96.858 6.395 96.595 7.802ZM67.055 5.329C66.551 4.899 65.6 4.682 64.206 4.682H62.189L60.326 10.42H61.916C63.463 10.42 64.662 10.201 65.514 9.763C66.367 9.325 66.965 8.581 67.305 7.534C67.64 6.492 67.562 5.756 67.055 5.329ZM65.107 15.195C65.021 14.773 64.838 14.433 64.547 14.176C64.255 13.92 63.864 13.745 63.383 13.642C62.902 13.538 62.349 13.488 61.734 13.488H59.334L57.19 20.084H59.358C60.698 20.084 61.856 19.853 62.835 19.377C63.816 18.909 64.509 18.039 64.925 16.772C65.132 16.138 65.192 15.61 65.107 15.195ZM73.06 6.986C72.676 8.173 71.994 9.19 71.02 10.037C70.046 10.889 68.815 11.462 67.324 11.772L67.299 11.833C68.797 11.997 69.852 12.516 70.472 13.397C71.087 14.275 71.16 15.451 70.679 16.924C70.399 17.782 69.99 18.604 69.454 19.377C68.918 20.157 68.212 20.833 67.341 21.419C66.472 22.003 65.429 22.471 64.218 22.819C63.006 23.165 61.587 23.336 59.961 23.336H50.552L57.671 1.432H67.007C68.139 1.432 69.162 1.524 70.069 1.707C70.977 1.889 71.708 2.199 72.267 2.626C72.822 3.057 73.181 3.631 73.334 4.344C73.491 5.061 73.395 5.944 73.06 6.986ZM27.523 1.431L20.405 23.337H25.515L31.196 5.85H31.275L30.509 23.337H34.844L45.442 5.85H45.52L39.84 23.337H44.948L52.064 1.431H43.82L34.807 16.895H34.731L35.806 1.431H27.523ZM21.387 5.051H11.517L9.841 10.206H19.131L17.954 13.828H8.66499L6.75099 19.716H17.01L15.834 23.337H0L7.11699 1.431H22.564L21.387 5.051Z" fill="black"/>
</svg>
