<svg width="235" height="24" viewBox="0 0 235 24" fill="none" xmlns="http://www.w3.org/2000/svg">
<path d="M229.678 1.432L228.672 4.528H225.395L224.549 7.13H227.827L226.827 10.208H230.11L231.109 7.13H234.158L235.004 4.528H231.955L232.96 1.432H229.678ZM219.891 5.054H210.021L208.345 10.208H217.635L216.46 13.829H207.17L205.255 19.718H215.514L214.337 23.338H198.504L205.622 1.432H221.067L219.891 5.054ZM173.909 1.431H167.482L160.364 23.337H165.473L170.46 7.997H170.537L172.366 23.337H178.713L185.831 1.431H180.722L175.847 16.433H175.768L173.909 1.431ZM162.578 1.431H147.13L140.014 23.337H155.847L157.023 19.716H146.764L148.679 13.827H157.969L159.146 10.205H149.856L151.532 5.05H161.402L162.578 1.431ZM134.026 6.572C133.91 5.944 133.582 5.476 133.051 5.159C132.523 4.841 131.73 4.682 130.671 4.682H128.315L123.308 20.084H125.788C126.761 20.084 127.597 19.955 128.272 19.689C128.953 19.421 129.568 18.982 130.116 18.366C130.665 17.751 131.158 16.942 131.603 15.943C132.041 14.937 132.503 13.696 132.991 12.198C133.399 10.951 133.697 9.859 133.904 8.916C134.105 7.978 134.149 7.194 134.026 6.572ZM139.683 7.692C139.488 9.002 139.129 10.463 138.607 12.076C137.977 14 137.291 15.675 136.529 17.094C135.775 18.512 134.879 19.689 133.862 20.608C132.839 21.525 131.652 22.209 130.287 22.66C128.929 23.109 127.321 23.336 125.464 23.336H116.677L123.79 1.431H132.929C134.867 1.431 136.346 1.681 137.369 2.182C138.391 2.687 139.081 3.398 139.44 4.33C139.793 5.263 139.879 6.383 139.683 7.692ZM96.796 23.337H112.241L113.418 19.716H103.546L109.49 1.431H103.912L96.796 23.337ZM91.174 6.127C91.114 5.47 90.882 4.995 90.475 4.697C90.066 4.404 89.453 4.252 88.63 4.252C87.801 4.252 87.088 4.404 86.487 4.697C85.889 4.995 85.348 5.47 84.867 6.127C84.379 6.778 83.928 7.619 83.503 8.642C83.082 9.665 82.632 10.913 82.151 12.386C81.675 13.86 81.316 15.108 81.066 16.143C80.823 17.172 80.733 18.013 80.793 18.659C80.854 19.305 81.091 19.772 81.498 20.066C81.901 20.363 82.521 20.516 83.345 20.516C84.173 20.516 84.885 20.363 85.483 20.066C86.085 19.772 86.621 19.305 87.102 18.659C87.583 18.013 88.033 17.172 88.465 16.143C88.886 15.108 89.342 13.86 89.818 12.386C90.298 10.913 90.658 9.665 90.902 8.642C91.139 7.619 91.236 6.778 91.174 6.127ZM96.595 7.801C96.333 9.195 95.931 10.732 95.394 12.386C94.846 14.061 94.257 15.595 93.611 16.985C92.965 18.378 92.148 19.573 91.163 20.578C90.182 21.575 88.983 22.343 87.57 22.879C86.158 23.408 84.41 23.677 82.315 23.677C80.226 23.677 78.649 23.408 77.583 22.879C76.518 22.343 75.817 21.575 75.483 20.578C75.154 19.573 75.118 18.378 75.374 16.985C75.636 15.595 76.032 14.061 76.578 12.386C77.115 10.732 77.711 9.195 78.356 7.801C79.009 6.395 79.824 5.195 80.805 4.191C81.792 3.193 82.996 2.405 84.416 1.845C85.842 1.28 87.595 1 89.684 1C91.778 1 93.349 1.28 94.403 1.845C95.455 2.405 96.156 3.193 96.486 4.191C96.819 5.195 96.857 6.395 96.595 7.801ZM67.055 5.329C66.551 4.899 65.6 4.682 64.205 4.682H62.189L60.326 10.42H61.916C63.463 10.42 64.662 10.2 65.514 9.763C66.367 9.325 66.965 8.58 67.305 7.534C67.64 6.492 67.562 5.756 67.055 5.329ZM65.107 15.194C65.021 14.773 64.838 14.433 64.547 14.176C64.254 13.92 63.864 13.745 63.383 13.642C62.902 13.537 62.348 13.488 61.734 13.488H59.334L57.19 20.084H59.358C60.698 20.084 61.855 19.852 62.835 19.377C63.816 18.908 64.509 18.039 64.925 16.772C65.131 16.138 65.191 15.609 65.107 15.194ZM73.059 6.985C72.675 8.173 71.994 9.19 71.019 10.037C70.045 10.888 68.815 11.461 67.324 11.772L67.298 11.832C68.797 11.997 69.851 12.515 70.472 13.397C71.086 14.275 71.16 15.45 70.679 16.924C70.399 17.781 69.99 18.604 69.454 19.377C68.917 20.156 68.212 20.833 67.341 21.418C66.471 22.002 65.429 22.471 64.217 22.819C63.006 23.165 61.586 23.336 59.961 23.336H50.552L57.671 1.431H67.007C68.138 1.431 69.162 1.523 70.069 1.706C70.977 1.889 71.708 2.199 72.267 2.626C72.821 3.057 73.181 3.631 73.334 4.344C73.491 5.061 73.395 5.944 73.059 6.985ZM27.523 1.431L20.405 23.337H25.514L31.196 5.85H31.274L30.509 23.337H34.844L45.442 5.85H45.52L39.839 23.337H44.947L52.064 1.431H43.819L34.807 16.894H34.731L35.805 1.431H27.523ZM21.387 5.05H11.516L9.84 10.205H19.131L17.954 13.827H8.66399L6.75099 19.716H17.01L15.833 23.337H0L7.11699 1.431H22.564L21.387 5.05Z" fill="black"/>
</svg>
