<svg width="224" height="24" viewBox="0 0 224 24" fill="none" xmlns="http://www.w3.org/2000/svg">
<path d="M49.7791 2.07725H38.4161L27.9431 21.9193H33.3731L42.1261 5.34125H45.7721C45.9281 5.34125 46.0441 5.39425 46.1141 5.48725C46.1701 5.55725 46.1971 5.65125 46.1931 5.76125C46.1891 5.87425 46.1531 6.00225 46.0811 6.14125L37.7491 21.9193H43.2811L51.4551 6.43525C52.7251 4.03225 51.9721 2.07725 49.7791 2.07725Z" fill="black"/>
<path d="M106.384 6.14618L99.7695 18.6552L96.0795 18.6532C95.9225 18.6532 95.8065 18.6002 95.7365 18.5102C95.6805 18.4382 95.6545 18.3452 95.6575 18.2342C95.6635 18.1232 95.6975 17.9902 95.7705 17.8532L102.384 5.34318L106.076 5.34518C106.231 5.34518 106.349 5.40018 106.417 5.49218C106.473 5.56118 106.499 5.65518 106.495 5.76318C106.493 5.87718 106.457 6.00718 106.384 6.14618ZM109.993 2.08318L104.011 2.08018L98.6605 2.07718L96.9155 5.38118L90.4775 17.5552C89.2095 19.9592 89.9595 21.9152 92.1545 21.9162L97.9315 21.9192L103.486 21.9222L105.231 18.6192L111.667 6.44318C112.939 4.04018 112.187 2.08518 109.993 2.08318Z" fill="black"/>
<path d="M83.8533 2.08598L68.4963 2.07698L66.7393 5.40298L71.7823 5.40598L63.0543 21.917L68.2603 21.92L76.9893 5.40898L82.0953 5.41198L83.8533 2.08598Z" fill="black"/>
<path d="M165.933 6.40791C165.699 6.85991 165.487 7.24891 165.296 7.61191C164.74 8.66891 163.554 9.51991 162.245 9.51991C161.897 9.51991 159.891 9.51791 159.891 9.51791L162.04 5.43291C162.04 5.43291 165.02 5.43491 165.23 5.43491C165.885 5.43491 166.177 5.93391 165.933 6.40791ZM169.684 2.08391L158.407 2.07691L147.919 21.9139L153.342 21.9169L158.489 12.1819L162.873 12.1839L157.726 21.9189L163.229 21.9229L167.226 14.3609C168.345 12.2169 166.581 10.9809 166.309 10.7089C166.348 10.6869 169.152 10.7789 170.825 7.61691L171.404 6.51991C172.692 4.08791 171.907 2.08491 169.684 2.08391Z" fill="black"/>
<path d="M122.034 21.9162L133.164 21.9222L143.65 2.08618L138.299 2.08318L129.537 18.6572L125.862 18.6552C125.706 18.6552 125.589 18.6012 125.519 18.5082C125.463 18.4372 125.435 18.3432 125.44 18.2342C125.445 18.1212 125.481 17.9922 125.553 17.8532L133.893 2.08018L128.542 2.07718L120.359 17.5562C119.087 19.9592 119.841 21.9152 122.034 21.9162Z" fill="black"/>
<path d="M10.809 11.7353H17.765L19.126 9.15825H12.168L14.186 5.33925H21.823L23.547 2.07725H10.477L0 21.9193H13.069L14.841 18.5653H7.204L10.809 11.7353Z" fill="black"/>
<path d="M198.959 7.30418L200.149 8.10218L195.5 16.9062L192.853 21.9222L205.298 8.41518L204.13 7.63218L205.34 5.34218H213.064L214.787 2.07918H201.715L198.959 7.30418ZM204.167 11.7362L200.558 18.5662H207.692L205.921 21.9222H194.782L204.167 11.7362L206.54 9.16018L210.377 9.16118L209.018 11.7362H204.167Z" fill="black"/>
<path d="M215.951 11.6103H212.939L214.167 9.28927H217.18L218.853 6.12927H221.989L220.316 9.28927H223.328L222.1 11.6103H219.087L217.419 14.7623H214.282L215.951 11.6103Z" fill="black"/>
</svg>
