<svg width="113" height="32" viewBox="0 0 113 32" fill="none" xmlns="http://www.w3.org/2000/svg">
<path d="M20.891 2.0141L12.253 7.6141L26.213 7.6101L29.212 2.0121L20.891 2.0141ZM18.701 18.4771L21.635 13.0631L15.257 13.0651L18.203 7.6121L9.057 13.5431L0 30.3461L14.052 30.3431L17.053 24.7441L8.932 24.7461L12.323 18.4791L18.701 18.4771Z" fill="black"/>
<path d="M27.0417 13.0609L32.2017 13.0599L31.7387 21.2009L36.7707 13.0579L42.0287 13.0569L31.3407 30.3389L26.1477 30.3399L26.7917 21.9719L21.6127 30.3409L16.3527 30.3429L27.0417 13.0609Z" fill="black"/>
<path d="M42.013 13.1023L42.029 13.0573L48.11 13.0553L44.124 23.5053L53.783 13.0543L59.864 13.0523L59.848 13.0973L42.679 30.3353L36.746 30.3373L42.013 13.1023Z" fill="black"/>
<path d="M59.8641 13.0524L65.7971 13.0504L54.5441 30.3324L48.6121 30.3344L59.8641 13.0524Z" fill="black"/>
<path d="M83.3278 1.99999L83.1648 2.10499L74.5268 7.70499L74.2098 7.91099L62.1248 30.33L75.1028 30.327L78.1298 24.654L71.0848 24.655L83.3278 1.99999Z" fill="black"/>
<path d="M89.0539 13.0446L94.9869 13.0426L83.7339 30.3246L77.8009 30.3266L89.0539 13.0446Z" fill="black"/>
<path d="M94.9699 13.0884L94.9859 13.0434L101.067 13.0414L97.0809 23.4914L106.74 13.0404L112.821 13.0384L112.805 13.0834L95.6359 30.3214L89.7029 30.3234L94.9699 13.0884Z" fill="black"/>
<path d="M71.3449 8.68518L62.7539 13.0502L59.8759 13.0512L62.7229 8.68718L71.3449 8.68518Z" fill="black"/>
<path d="M100.522 8.67834L91.9312 13.0433L89.0532 13.0443L91.9002 8.68034L100.522 8.67834Z" fill="black"/>
</svg>
