<svg width="125" height="24" viewBox="0 0 125 24" fill="none" xmlns="http://www.w3.org/2000/svg">
<path d="M21.89 4.96H11.79L10.08 10.23H19.59L18.39 13.94H8.88L6.92 19.97H17.42L16.22 23.68H0L7.29 1.25H23.1L21.9 4.96H21.89ZM62.86 6.77L52.02 23.67H45.68L45.66 6.77H51.37L50.49 18.86H50.57L57.39 6.77H62.86ZM72.27 6.77L66.78 23.67H61.31L66.8 6.77H72.27ZM74.15 1L72.95 4.71H67.48L68.68 1H74.15ZM79.65 1.25H85.36L79.28 19.96H89.38L88.18 23.67H72.37L79.65 1.25ZM103.41 6.77L97.92 23.67H92.45L97.94 6.77H103.41ZM105.29 1L104.09 4.71H98.62L99.82 1H105.29ZM124.57 6.77L113.73 23.67H107.39L107.37 6.77H113.07L112.19 18.86H112.27L119.09 6.77H124.56H124.57ZM36.9 6.78L33.35 17.71L32 6.78H26.6L21.11 23.68H26.05L29.27 13.76L30.45 23.68H36.68L42.13 6.78H36.89H36.9Z" fill="black"/>
</svg>
