<svg width="223" height="24" viewBox="0 0 223 24" fill="none" xmlns="http://www.w3.org/2000/svg">
<path d="M105.425 6.15262L103.162 10.4246L102.016 10.4226L99.6616 10.4186L98.5136 10.4176L101.202 5.34362L105.119 5.34962C105.396 5.35061 105.547 5.52061 105.538 5.77061C105.534 5.88362 105.499 6.01362 105.425 6.15262ZM108.945 2.09661L97.5786 2.07862L87.0786 21.8976L92.4266 21.9056L97.1516 12.9886L98.2966 12.9906L100.652 12.9936L101.798 12.9956L97.0726 21.9126L102.422 21.9216L110.616 6.45662C111.888 4.05561 111.138 2.10061 108.945 2.09661Z" fill="black"/>
<path d="M78.7705 2.07888H71.4105C69.2125 2.07888 66.3885 4.04188 65.1155 6.44788L59.2555 17.5489C57.9825 19.9599 58.7385 21.9209 60.9385 21.9209H68.2955C70.4955 21.9209 73.3195 19.9599 74.5925 17.5489L74.9175 16.9339H70.3055L69.8815 17.7319C69.6475 18.1819 69.1225 18.5449 68.7135 18.5449H64.9195C64.6395 18.5449 64.4835 18.3739 64.4915 18.1199C64.4965 18.0089 64.5315 17.8819 64.6015 17.7469C64.6055 17.7409 70.6615 6.26688 70.6615 6.26688C70.7075 6.18088 70.7605 6.09988 70.8235 6.02388C70.8835 5.94688 70.9535 5.87588 71.0295 5.81188C71.2745 5.59588 71.5755 5.45488 71.8325 5.45488H75.6245C75.8035 5.45488 75.9325 5.52388 75.9975 5.63888C76.0085 5.65688 76.0155 5.67588 76.0215 5.69288C76.0815 5.83988 76.0555 6.04388 75.9365 6.26688L75.3995 7.28188H80.0145L80.4515 6.44788C81.7235 4.04188 80.9685 2.07888 78.7705 2.07888Z" fill="black"/>
<path d="M157.936 11.7368H164.892L166.253 9.16076H159.295L161.313 5.34076H168.951L170.674 2.07876H157.604L147.129 21.9208H160.197L161.968 18.5668H154.331L157.936 11.7368Z" fill="black"/>
<path d="M10.807 11.7368H17.764L19.124 9.16076H12.166L14.184 5.34076H21.821L23.545 2.07876H10.475L0 21.9208H13.068L14.839 18.5668H7.202L10.807 11.7368Z" fill="black"/>
<path d="M135.402 6.77674C135.137 7.23774 134.98 7.47174 134.757 7.83774C134.107 8.90774 132.606 9.45474 131.294 9.45474H129.274L131.294 5.55174H134.807C135.464 5.55174 135.688 6.27774 135.402 6.77674ZM138.309 2.07874H127.775L117.298 21.9217H122.649L127.434 12.9197H129.898C134.846 12.9197 136.735 12.2517 138.389 9.82074C139.579 8.07074 140.519 6.27074 140.519 6.27074C141.788 3.86574 140.503 2.07874 138.309 2.07874Z" fill="black"/>
<path d="M45.6976 2.07888C39.6816 2.07888 38.2176 2.59388 36.2726 6.19388L35.2656 8.05588C34.0606 10.2859 34.2376 10.8499 39.3586 12.5889C41.5826 13.3469 41.3636 13.6169 40.6626 14.9149L39.0856 17.8289C38.3586 19.1759 38.2106 19.4219 36.3226 19.4219C34.4786 19.4219 34.5946 19.1759 35.3236 17.8289L37.4026 13.9819H32.1386L30.1016 17.8289C28.3126 21.2279 29.3086 21.9209 34.9726 21.9209C40.9846 21.9209 42.4816 21.4299 44.4276 17.8289L46.1076 14.7189C47.4726 12.1959 47.2156 11.7799 42.0666 10.0159C39.9156 9.28188 39.9936 9.10888 40.5366 8.10388L41.5686 6.19388C42.3116 4.82188 42.4026 4.60188 44.3336 4.60188C46.2636 4.60188 46.1186 4.82188 45.3746 6.19388L44.6036 7.62588H49.7676L50.5406 6.19388C52.4886 2.59388 51.5356 2.07888 45.6976 2.07888Z" fill="black"/>
<path d="M197.962 7.30337L199.152 8.10137L194.503 16.9054L191.856 21.9214L204.301 8.41437L203.133 7.63137L204.343 5.34137H212.067L213.79 2.07837H200.718L197.962 7.30337ZM203.17 11.7354L199.561 18.5654H206.695L204.924 21.9214H193.785L203.17 11.7354L205.543 9.15937L209.38 9.16037L208.021 11.7354H203.17Z" fill="black"/>
<path d="M214.954 11.6097H211.942L213.17 9.2887H216.183L217.856 6.1287H220.992L219.319 9.2887H222.331L221.103 11.6097H218.09L216.422 14.7617H213.285L214.954 11.6097Z" fill="black"/>
</svg>
