<svg width="172" height="24" viewBox="0 0 172 24" fill="none" xmlns="http://www.w3.org/2000/svg">
<path d="M22.2461 5.29688H14.457L12.3975 9.1377H19.4932L18.1074 11.7383H11.0107L7.34082 18.623H15.1299L13.3252 22H0L10.6748 2H24L22.2461 5.29688ZM46.293 2C52.0739 2.00057 53.0251 2.5264 51.0898 6.15332L50.3252 7.59473H45.2012L45.9658 6.15332C46.7105 4.77245 46.8491 4.55078 44.9326 4.55078C43.0166 4.55082 42.9271 4.77256 42.1924 6.15332L41.1689 8.0791C40.6329 9.08679 40.5541 9.26822 42.6885 10.0039C47.8026 11.7781 48.0507 12.2019 46.7002 14.7422L45.0322 17.877C43.0959 21.5059 41.6065 22 35.6387 22C30.0181 22 29.0242 21.3044 30.8018 17.877L32.8281 13.9961H38.0518L35.9854 17.877C35.2605 19.2277 35.102 19.4804 36.9785 19.4805C38.8554 19.4805 38.9948 19.2378 39.7197 17.877L41.2891 14.9434C41.9839 13.6334 42.2019 13.3607 39.998 12.5947C34.9137 10.8407 34.735 10.2763 35.9365 8.02832L36.9395 6.15332C38.8747 2.5267 40.3239 2.00061 46.293 2ZM79.6426 2.01074C81.8996 2.01096 82.6692 3.98671 81.3662 6.41602L80.9141 7.25195H76.1846L76.7383 6.22363C76.8613 6.00196 76.8926 5.80057 76.8311 5.64941C76.831 5.63931 76.8208 5.61874 76.8105 5.59863C76.7489 5.48788 76.6152 5.41798 76.4307 5.41797H72.542C72.2855 5.41797 71.967 5.5585 71.7207 5.78027C71.6387 5.8407 71.5674 5.91164 71.5059 5.99219C71.4443 6.06275 71.3931 6.14365 71.3418 6.23438L65.123 17.8066C65.0512 17.9377 65.0107 18.0688 65.0107 18.1797C65.0005 18.4317 65.1648 18.6035 65.4521 18.6035H69.3408C69.7615 18.6034 70.3051 18.2397 70.541 17.7861L70.9717 16.9805H75.7021L75.374 17.5947C74.0607 20.0242 71.1665 22 68.9092 22H61.3574C59.1004 21.9998 58.3308 20.024 59.6338 17.5947L65.6465 6.40527C66.9599 3.9759 69.854 2 72.1113 2H79.6631L79.6426 2.01074ZM109.727 2.02051V2.01074C111.902 2.01074 112.647 3.98763 111.386 6.4082L103.249 22H97.9346L102.624 13.0039H98.0039L93.3154 21.9902H88L98.4316 2L109.727 2.02051ZM139.257 2C141.472 2.00009 142.777 3.79435 141.492 6.22363C141.492 6.22363 140.542 8.03867 139.338 9.80273C137.669 12.2523 135.756 12.9277 130.748 12.9277H128.259L123.413 22H118L128.603 2H139.257ZM170.246 5.29688H162.457L160.397 9.1377H167.493L166.107 11.7383H159.011L155.341 18.623H163.13L161.325 22H148L158.675 2H172L170.246 5.29688ZM99.3652 10.4219H103.984L106.229 6.11523L106.24 6.125C106.31 5.98401 106.349 5.85299 106.349 5.74219C106.359 5.49004 106.21 5.30859 105.932 5.30859H102.037L99.3652 10.4219ZM130.121 9.43945H132.164C133.489 9.43945 135.007 8.88527 135.665 7.80664C135.888 7.44381 136.039 7.20191 136.312 6.73828C136.606 6.24439 136.383 5.50897 135.716 5.50879H132.164L130.121 9.43945Z" fill="black"/>
</svg>
