<svg width="248" height="24" viewBox="0 0 248 24" fill="none" xmlns="http://www.w3.org/2000/svg">
<path d="M185.695 11.6587H192.652L194.012 9.08175H187.054L189.072 5.26275H196.71L198.434 2.00075H185.363L174.886 21.8438H187.955L189.727 18.4887H182.09L185.695 11.6587Z" fill="black"/>
<path d="M162.887 6.32663C162.653 6.77763 162.441 7.16763 162.25 7.53163C161.695 8.58763 160.511 9.44063 159.199 9.44063H156.846L158.993 5.35363H162.183C162.838 5.35363 163.131 5.85263 162.887 6.32663ZM166.636 2.00063H155.358L144.882 21.8436H150.303L155.447 12.1036H159.831L154.688 21.8436H160.191L164.185 14.2786C165.302 12.1356 163.536 10.8986 163.266 10.6276C163.304 10.6066 166.108 10.6956 167.779 7.53263L168.357 6.43463C169.644 4.00263 168.859 2.00063 166.636 2.00063Z" fill="black"/>
<path d="M53.0972 2.00051H48.1772L42.7122 7.22351V2.00051H37.9792V11.7435L27.4102 21.8435H32.3282L37.9792 16.4435V21.8435H42.7122V11.9225L53.0972 2.00051Z" fill="black"/>
<path d="M75.603 6.69775C75.338 7.15975 75.181 7.39275 74.959 7.75975C74.309 8.82875 72.808 9.37575 71.495 9.37575H69.476L71.495 5.47275H75.008C75.665 5.47275 75.889 6.19875 75.603 6.69775ZM78.51 2.00075H67.976L57.499 21.8438H62.85L67.635 12.8418H70.099C75.047 12.8418 76.936 12.1737 78.591 9.74175C79.78 7.99175 80.721 6.19175 80.721 6.19175C81.989 3.78775 80.704 2.00075 78.51 2.00075Z" fill="black"/>
<path d="M10.81 11.6587H17.766L19.127 9.08175H12.169L14.187 5.26275H21.824L23.548 2.00075H10.477L0 21.8438H13.07L14.842 18.4887H7.205L10.81 11.6587Z" fill="black"/>
<path d="M103.007 2.00053H97.598L87.124 21.8425H100.193L101.964 18.4875H94.306L103.007 2.00053Z" fill="black"/>
<path d="M133.071 6.0649L126.463 18.5779H122.773C122.615 18.5779 122.501 18.5249 122.43 18.4349C122.374 18.3639 122.348 18.2699 122.35 18.1589C122.356 18.0469 122.391 17.9149 122.464 17.7779L129.071 5.2639H132.762C132.918 5.2639 133.035 5.3179 133.104 5.4109C133.16 5.4799 133.186 5.5729 133.181 5.6819C133.18 5.7949 133.143 5.9259 133.071 6.0649ZM136.677 2.0009H130.696H125.344L123.601 5.3049L117.17 17.4829C115.903 19.8869 116.654 21.8429 118.85 21.8429H124.627H130.182L131.925 18.5389L138.354 6.3589C139.625 3.9549 138.872 2.0009 136.677 2.0009Z" fill="black"/>
<path d="M223.462 7.22502L224.652 8.02302L220.003 16.827L217.356 21.843L229.801 8.33602L228.633 7.55302L229.843 5.26302H237.567L239.29 2.00002H226.218L223.462 7.22502ZM228.67 11.657L225.061 18.487H232.195L230.424 21.843H219.285L228.67 11.657L231.043 9.08102L234.88 9.08202L233.521 11.657H228.67Z" fill="black"/>
<path d="M240.455 11.5313H237.443L238.671 9.21035H241.684L243.357 6.05035H246.493L244.82 9.21035H247.832L246.604 11.5313H243.591L241.923 14.6833H238.786L240.455 11.5313Z" fill="black"/>
</svg>
