<svg width="85" height="38" viewBox="0 0 85 38" fill="none" xmlns="http://www.w3.org/2000/svg">
<path d="M71.3233 17.9572C71.3253 17.9452 71.3273 17.9332 71.3303 17.9212C71.3353 17.9242 71.3413 17.9272 71.3493 17.9302C71.3403 17.9392 71.3313 17.9472 71.3233 17.9572ZM71.3113 18.0302C71.3113 18.0302 71.3113 18.0272 71.3103 18.0262C71.3113 18.0232 71.3113 18.0202 71.3123 18.0172C71.3123 18.0242 71.3113 18.0302 71.3113 18.0302ZM63.9173 20.4532C63.3503 21.2532 62.5663 21.8032 61.7593 22.3242C61.5423 22.6232 60.9163 22.7542 61.1993 23.2582C61.1713 23.2552 61.1433 23.2522 61.1153 23.2492C61.0523 23.2232 60.9743 23.2112 60.9283 23.2542C60.0363 24.0942 58.9833 24.7342 58.0713 25.5562C57.8933 25.4232 58.0613 25.2582 58.0333 25.1072C58.0513 24.8692 58.1013 24.6272 57.9653 24.4042C57.9443 24.3902 57.9253 24.3802 57.9053 24.3732C57.7513 23.9412 57.9473 23.5112 57.9183 23.0802C57.9383 23.0702 57.9593 23.0572 57.9793 23.0392C58.0983 22.6152 58.0523 22.1722 58.1313 21.7432C58.1533 21.4302 58.1793 21.1192 58.2343 20.8102C58.3653 20.2462 58.7423 20.0812 59.2783 20.1552C59.6073 20.2002 59.9393 20.1942 60.2703 20.1832C60.5063 20.1502 60.7403 20.1842 60.9743 20.2062C61.3273 20.2322 61.6773 20.1562 62.0303 20.1712C62.5533 20.0972 63.0733 20.1782 63.5963 20.1942C63.8113 20.2062 64.0363 20.0862 64.2693 20.2062C64.1583 20.3542 64.0103 20.3622 63.9173 20.4532ZM57.6913 24.4052C57.6563 24.4282 57.6233 24.4572 57.5903 24.4892C57.4903 24.6452 57.4723 24.8172 57.4863 24.9962C57.5403 25.2532 57.5183 25.5092 57.4883 25.7652C57.4683 25.9392 57.4693 26.1432 57.3133 26.2412C56.7053 26.6242 56.2563 27.2152 55.6073 27.5412C55.5193 27.5842 55.4463 27.6432 55.3913 27.7252C55.3503 27.8192 55.3443 27.9102 55.4123 27.9962C55.4113 28.0042 55.4103 28.0122 55.4093 28.0192C55.2363 27.8532 55.0573 28.0932 54.9043 28.2222C54.3563 28.6822 53.8253 29.1632 53.2123 29.5402C52.9123 29.7622 52.7053 30.0832 52.4003 30.2982C52.1933 30.5422 51.9443 30.7372 51.7023 30.9412C51.7643 30.6642 51.9303 30.4642 52.0593 30.2432C52.0903 30.1902 52.1193 30.1352 52.1423 30.0782C52.4713 29.2542 53.0333 28.5542 53.3873 27.7432C53.3933 27.7512 53.4033 27.7582 53.4043 27.7672C53.4093 27.8112 53.4353 27.8402 53.4853 27.8542C53.5483 27.8522 53.6013 27.8292 53.6423 27.7802C53.7343 27.6452 53.7583 27.4882 53.7873 27.3322C54.1323 26.5692 54.5953 25.8752 55.0513 25.1772C55.0943 25.0972 55.1423 25.0202 55.1923 24.9452C55.4353 24.6442 55.5713 24.2592 55.9063 24.0312C56.0263 23.8282 56.0903 23.6082 56.1103 23.3752C56.1073 23.3422 56.1053 23.3082 56.1043 23.2752C56.2103 23.1462 56.3163 23.0182 56.4213 22.8902C56.4233 22.8902 56.4253 22.8902 56.4273 22.8902C56.8303 22.7792 56.8953 22.3392 57.1833 22.1162C57.2283 22.0452 57.2713 21.9742 57.3193 21.9042C57.3713 21.8502 57.4293 21.8052 57.4993 21.7692C57.6303 21.7722 57.5153 21.8312 57.5263 21.8602C57.5073 21.9092 57.4913 21.9642 57.4843 22.0192C57.4533 22.3902 57.4153 22.7622 57.6823 23.0782C57.6833 23.0792 57.6843 23.0792 57.6863 23.0792C57.5693 23.5192 57.7533 23.9642 57.6913 24.4052ZM29.2453 26.2172C28.6803 27.1972 28.0043 28.0892 27.3173 28.9782C27.1123 29.2432 26.9053 29.5122 26.8823 29.8532C26.6113 29.8532 26.4993 30.1002 26.3573 30.2752C26.0643 30.6362 25.8033 31.0222 25.5133 31.3852C25.2533 31.7092 25.0093 32.1072 24.4823 31.8552C23.9553 31.6042 23.4043 31.3682 23.5263 30.6152C23.4973 30.3212 23.0513 30.4232 23.0423 30.1092C22.9643 29.9242 22.9053 29.7332 22.8663 29.5352C22.8523 29.4792 22.8373 29.4232 22.8163 29.3692C22.8063 29.3402 22.7973 29.3112 22.7883 29.2832C22.8173 29.2622 22.8473 29.2422 22.8773 29.2212C22.8463 29.2082 22.8153 29.1942 22.7853 29.1812C22.7743 29.1792 22.7633 29.1782 22.7533 29.1772C22.7373 29.1292 22.7213 29.0822 22.7053 29.0342C22.5543 28.6322 22.8213 28.4242 23.0813 28.2042L27.4463 25.0722C27.5013 25.0532 27.5563 25.0322 27.6073 25.0032C27.6153 24.9952 27.6173 24.9862 27.6233 24.9782C27.6223 24.9812 27.6223 24.9842 27.6223 24.9862C27.6213 24.9862 27.6213 24.9862 27.6203 24.9862C27.6203 24.9892 27.6203 24.9922 27.6203 24.9952C27.6203 24.9972 27.6203 24.9982 27.6193 25.0002C27.6203 25.0322 27.6213 25.0632 27.6193 25.0952C27.7093 25.1252 27.7493 25.0932 27.7393 24.9982C27.7433 24.9622 27.7463 24.9252 27.7503 24.8892C27.9493 24.8842 28.0593 24.7092 28.1893 24.5862C28.5923 24.2052 29.0623 23.9312 29.5883 23.6392C29.8013 24.5812 29.7193 25.3972 29.2453 26.2172ZM84.4423 8.65315C84.0623 7.84615 84.2963 6.95215 84.0563 6.13015C83.9763 5.85515 83.9553 5.40715 83.6413 5.44215C83.2573 5.48515 82.7653 5.41015 82.4833 5.82815C81.8453 6.77415 80.8723 7.39815 80.1423 8.25715C80.0303 8.38815 79.8743 8.48815 79.7253 8.58215C78.9503 9.06815 78.2513 9.65415 77.5563 10.2442C76.8243 10.8672 76.0143 11.4022 75.2493 11.9672C74.5103 12.5122 73.8133 13.1062 73.0913 13.6682L73.1043 13.6582C72.4913 14.0612 71.7873 14.3762 71.2883 14.8892C70.6643 15.5312 69.9583 16.0622 69.2443 16.5642C68.8943 16.8112 68.7033 17.3172 68.1823 17.3202C67.6483 17.8032 67.1243 18.2982 66.5753 18.7642C66.3823 18.9292 66.1963 18.9662 66.1543 18.5822C66.1093 18.1812 66.0013 17.7922 66.0173 17.3782C66.0313 17.0032 65.9073 16.4742 65.5213 16.5442C64.8333 16.6702 64.1453 16.6322 63.4773 16.6192C62.9063 16.6082 62.1633 16.9702 61.7303 16.2332C61.7323 16.2352 61.7343 16.2372 61.7363 16.2402C61.7353 16.1972 61.7353 16.1542 61.7353 16.1122C61.7023 16.1212 61.6693 16.1302 61.6353 16.1392C61.6633 16.1672 61.6913 16.1942 61.7183 16.2222C61.5213 16.3092 61.3433 16.5232 61.0893 16.3212C61.1843 16.0552 61.3863 15.8792 61.5143 15.6572C61.4423 15.3732 61.8293 15.2012 61.6653 14.8652C61.3133 14.1412 60.9853 13.3992 60.8013 12.6102C60.7173 12.2522 60.4633 12.1482 60.1703 12.0602C59.8833 12.0502 59.6113 12.0782 59.3943 12.3062C59.1983 12.5122 59.0083 12.7272 58.7593 12.8752C58.6893 12.9352 58.6453 13.0142 58.5983 13.0922C58.5143 13.2112 58.6333 13.4242 58.4173 13.4822C57.6483 13.8842 56.8913 14.2982 56.5943 15.1662C56.0253 15.6532 55.7603 16.5012 54.8723 16.6052C54.5583 16.5732 54.2453 16.5402 53.9313 16.5082C53.3963 16.4222 52.8433 16.4582 52.3223 16.4902C51.6543 16.5302 50.9963 16.3632 50.3263 16.5012C49.6193 16.6462 49.4983 16.8802 49.7353 17.5352C49.9953 18.2512 50.5593 18.8272 50.6573 19.6092C50.6183 19.6532 50.5783 19.6962 50.5383 19.7402C50.5653 19.7492 50.5913 19.7502 50.6183 19.7482C50.6193 19.7622 50.6163 19.7752 50.6193 19.7902C50.6863 19.9102 50.7873 19.9812 50.9213 20.0072C51.1313 20.0472 51.3493 19.9292 51.5643 20.0322C51.4533 20.2112 51.2413 20.2672 51.1373 20.4362C50.8673 20.8052 50.5223 21.1052 50.2113 21.4372C50.0573 21.6022 49.8333 21.7412 49.8813 22.0072C49.6863 22.0822 49.5273 22.2182 49.3763 22.3632C48.8573 22.8592 48.3603 23.3762 47.8613 23.8932C47.5603 24.1842 47.3683 24.5872 46.9673 24.7762C46.3523 25.3762 45.8043 26.0432 45.1373 26.5912C44.6633 26.9792 44.3913 27.5792 43.7743 27.9322C43.9463 27.3882 44.1763 26.9652 44.3783 26.5312C44.9173 25.2312 45.6003 23.9922 46.0683 22.6602C46.1773 22.3482 46.4123 22.0232 46.1893 21.7002C46.4413 21.3392 46.5353 20.8252 46.3393 20.5562C45.9273 19.9892 45.8483 19.3082 45.5133 18.7302C45.3433 18.4352 45.2613 17.9822 44.8833 17.9792C44.4803 17.9752 43.9883 18.2322 43.8723 18.5842C43.5353 19.6192 42.7363 20.3082 42.1393 21.1432C41.8043 21.2172 41.6273 21.5062 41.4093 21.7392C40.6653 22.5342 39.8813 23.1992 39.0793 23.8992C38.2413 24.6302 37.7913 25.7422 36.9483 26.4892C36.3023 27.0612 35.7333 27.7152 35.1423 28.3442C35.0653 28.4342 34.9943 28.5292 34.9203 28.6202C34.8633 28.6872 34.8073 28.7532 34.7583 28.8272C34.6703 28.9852 34.5293 29.1002 34.4243 29.2432C34.2963 29.4492 34.1853 29.6722 33.9933 29.8262C33.7753 30.0032 33.6223 30.4162 33.3613 30.3432C33.0343 30.2522 33.1263 29.8202 33.0963 29.5302C32.8573 27.2482 32.6643 24.9582 31.7513 22.8102C31.6233 22.5102 31.6773 22.2212 31.8523 21.9282C32.2523 21.2572 32.0913 20.5582 31.4693 20.0872C31.4093 19.8902 31.3583 19.6892 31.2763 19.5012C31.0633 19.0132 31.0143 18.3302 30.1713 18.5472C30.0293 18.5842 30.0643 18.3982 30.0593 18.2962C29.4933 18.3022 29.5603 18.8562 29.3233 19.1462C29.0653 19.3832 28.8073 19.6202 28.5493 19.8572C28.3073 19.8752 28.3213 20.1752 28.1233 20.2422C27.2403 20.8902 26.3613 21.5432 25.4753 22.1842C24.7473 22.7112 24.0503 23.2972 23.2683 23.7262C22.0863 24.3752 21.1173 25.3032 20.0033 26.0372C19.8433 26.1422 19.6323 26.3252 19.6593 26.5782C19.8323 28.1802 20.4383 29.6342 21.3053 30.9652C22.0503 32.1082 23.0533 33.1662 24.1273 34.0002C24.8413 34.5552 25.5563 35.1942 26.5693 35.1512C26.6523 35.1502 26.7373 35.1622 26.8173 35.1462C27.8483 34.9372 28.0733 33.9332 28.6263 33.2662C29.2773 32.4792 29.7293 31.5412 30.3953 30.7582C30.6283 30.5572 30.8583 30.3872 31.0423 30.8092C31.4543 31.2842 31.4453 31.8942 31.6163 32.4522C31.8563 33.2362 32.3283 33.9462 32.9143 34.5422C33.2363 34.8692 33.5193 35.2902 34.0383 35.3342C34.3883 35.3642 34.5173 35.0632 34.6923 34.8342C34.7673 34.7362 34.8663 34.6552 35.0233 34.7632C35.4383 35.0502 35.5763 34.7152 35.7493 34.4302C35.9413 34.1132 35.9623 33.6772 36.3703 33.5042C36.9053 32.2092 38.1503 31.4082 38.7003 30.1182C38.5863 30.4432 38.5173 30.7532 38.6513 31.0812C38.8543 31.5772 38.8283 32.0942 38.6733 32.5812C38.4953 33.1402 38.6913 33.5342 39.1023 33.8642C39.5503 34.2242 39.9773 34.6122 40.4453 34.9482C41.4233 35.6502 41.8793 35.2032 42.6813 34.5332C43.4683 33.8772 44.1753 33.2792 44.8593 32.5052C45.6663 31.5902 46.6983 30.8142 47.4023 29.8142C47.4913 29.6892 47.6123 29.5992 47.7303 29.5042C48.2003 28.9622 48.7113 28.4572 49.2033 27.9252C48.9203 28.5942 48.5903 29.2362 48.3453 29.9152C47.9123 30.9582 47.5443 32.0042 48.2123 33.0952C48.2743 33.2702 48.7693 33.2622 48.4223 33.6132C48.0033 34.0372 48.2093 34.4172 48.5403 34.7662C48.9873 35.2362 49.5743 35.5162 50.1023 35.8722C50.9323 36.4312 51.4403 36.4182 52.1833 35.7312C53.0743 34.9092 54.0023 34.1282 54.8633 33.2752C54.9403 33.1632 55.0053 33.0452 55.0503 32.9172C55.5243 32.8502 55.7023 32.3082 56.1283 32.1622C56.1803 32.1402 56.2313 32.1172 56.2813 32.0902C56.2873 32.0872 56.2923 32.0832 56.2983 32.0802C56.3013 32.0862 56.3053 32.0932 56.3103 32.0992C56.2963 32.1182 56.2823 32.1372 56.2673 32.1562C56.2553 32.2072 56.2493 32.2592 56.2503 32.3122C56.2563 32.3212 56.2623 32.3302 56.2653 32.3362C56.2363 32.3202 56.2073 32.3372 56.1793 32.3862C56.1613 32.4702 56.1943 32.5102 56.2813 32.5012C56.2953 32.4612 56.3003 32.4192 56.2953 32.3772L56.3083 32.3842C56.3093 32.3822 56.3063 32.3792 56.3053 32.3762C56.4803 32.3732 56.4423 32.2442 56.4363 32.1362C56.4473 32.0922 56.4583 32.0482 56.4693 32.0042C56.4573 31.9902 56.4443 31.9802 56.4313 31.9742C56.4353 31.9702 56.4393 31.9662 56.4433 31.9622C56.4523 31.9742 56.4613 31.9872 56.4703 31.9992C56.5573 32.0032 56.6113 31.9732 56.5983 31.8742C56.6273 31.8352 56.6313 31.7942 56.6103 31.7502C56.7093 31.2922 57.0443 31.0272 57.4043 30.7832C57.7733 30.8402 57.8453 30.5302 57.9883 30.3092C58.3993 29.9392 58.8103 29.5702 59.2403 29.1842C59.5463 29.5712 59.8013 29.9062 60.0693 30.2302C60.4043 30.6352 60.7693 30.6902 61.1993 30.4102C62.1123 29.8182 63.0173 29.2122 63.9383 28.6332C65.0373 27.9422 66.1313 27.2382 67.2643 26.6062C68.1403 26.1172 69.0093 25.5972 69.9873 25.2782C70.0553 25.6662 69.8153 25.9312 69.6603 26.2312C68.8013 27.9012 67.6453 29.3992 66.8563 31.1092C66.6353 31.5872 66.5693 32.0592 66.7253 32.5522C66.9843 33.3722 67.5773 33.9482 68.1373 34.5752C69.0993 35.6522 70.0923 35.5842 71.2833 34.9362C72.4933 34.2772 73.6673 33.5452 74.8273 32.7982C77.1303 31.3142 79.2963 29.6252 81.6413 28.2042C81.8303 28.0902 81.8073 27.9342 81.7893 27.8172C81.6623 26.9972 81.5083 26.1812 81.3633 25.3642C81.3703 25.1132 81.4063 24.8422 81.0483 24.7982C80.5683 24.7382 80.0873 24.6902 79.7823 25.1942C79.5813 25.3842 79.3923 25.5892 79.1763 25.7612C77.5963 27.0162 75.9273 28.1542 74.2893 29.3302C73.1983 30.1132 71.9553 30.6822 70.7883 31.3612C70.6403 31.4472 70.4923 31.5222 70.3783 31.4022C70.2553 31.2722 70.3813 31.1412 70.4613 31.0012C70.8683 30.2852 71.3503 29.6182 71.7603 28.9012C72.5473 27.5252 73.1263 26.1042 73.2883 24.5232C73.3843 24.2222 73.3433 23.9352 73.2453 23.6352C73.0273 22.9682 72.8543 22.2912 72.8003 21.5832C72.7803 21.3202 72.6913 21.0572 72.5633 20.7972C72.4303 20.5272 72.2613 20.4792 72.0613 20.5472C71.6213 20.6952 71.1953 20.8882 70.7693 21.0762C69.8143 21.4992 68.8653 21.9352 67.9083 22.3542C67.7493 22.4232 67.5133 22.6032 67.4023 22.3472C67.3133 22.1402 67.5023 21.9282 67.6693 21.8122C68.6513 21.1332 69.5873 20.3902 70.4863 19.6042C71.2053 18.9762 71.9163 18.5342 72.6673 17.9952C73.5693 17.3482 74.3333 16.4492 75.2333 15.7732C76.0293 15.1742 76.8953 14.5752 77.6683 14.0002C78.7383 13.2032 79.8483 12.4622 80.9153 11.6582C82.0293 10.8182 82.8943 9.66615 84.1913 9.05615C84.3173 8.99715 84.4803 8.73415 84.4423 8.65315Z" fill="black"/>
<path d="M16.0726 18.1789C16.0736 18.1699 16.0736 18.1619 16.0736 18.1529C16.0766 18.1559 16.0786 18.1589 16.0846 18.1609C16.0806 18.1669 16.0766 18.1729 16.0726 18.1789ZM13.9636 24.1119C13.9656 24.1009 13.9676 24.0899 13.9696 24.0789C13.9746 24.0829 13.9806 24.0869 13.9856 24.0889C13.9766 24.0959 13.9696 24.1039 13.9636 24.1119ZM13.9496 24.2289C13.9516 24.2159 13.9526 24.2019 13.9536 24.1889C13.9546 24.1909 13.9536 24.1919 13.9536 24.1939C13.9536 24.1989 13.9596 24.2049 13.9696 24.2109C13.9626 24.2169 13.9566 24.2229 13.9496 24.2289ZM13.9446 24.3179C13.9446 24.3149 13.9436 24.3129 13.9446 24.3099C13.9456 24.3119 13.9466 24.3139 13.9486 24.3159C13.9466 24.3169 13.9456 24.3169 13.9446 24.3179ZM10.7606 24.3149C10.6616 24.8769 9.45456 30.8689 9.60056 30.9179C9.06456 30.7389 8.41156 29.6139 7.92356 29.1439C7.44056 28.6789 6.93956 28.2289 6.47256 27.7479C6.19256 27.4589 5.79056 27.1459 5.43156 27.3269C5.54956 27.0049 5.87056 26.8109 6.17056 26.6429C7.72356 25.7699 9.27756 24.8979 10.8306 24.0249L10.7606 24.3149ZM22.4256 18.1219C22.9256 17.8549 23.4906 17.7149 23.9356 17.3439C23.7206 16.3859 23.2996 15.5019 22.9476 14.5939C22.7726 14.1409 22.4656 14.1889 22.0526 14.3729C21.6586 14.5469 21.4116 14.8829 21.0326 15.0839C20.2896 15.4779 19.4696 15.7429 18.8296 16.3709C18.5446 16.6499 18.0736 16.9669 17.5436 16.8339C17.4546 16.8149 17.3666 16.7959 17.2776 16.7769C17.2556 16.7439 17.2336 16.7099 17.2116 16.6769C17.1956 16.7069 17.1796 16.7369 17.1646 16.7669C17.2036 16.7759 17.2436 16.7839 17.2836 16.7919C17.3186 16.8449 17.3536 16.8969 17.3886 16.9489C17.3866 16.9609 17.4016 16.9739 17.4316 16.9879C17.4366 16.9899 17.4426 16.9879 17.4476 16.9889C17.4486 17.0059 17.4496 17.0289 17.4496 17.0299C17.4576 17.0659 17.4636 17.1009 17.4726 17.1359C17.4526 17.1759 17.4226 17.1809 17.3896 17.1569C17.3266 17.1349 17.2606 17.1369 17.1956 17.1549C16.9906 17.2449 16.7996 17.3569 16.6466 17.5259C16.6076 17.5959 16.5936 17.6719 16.5766 17.7489C16.5706 17.7619 16.5626 17.7729 16.5546 17.7839C16.5436 17.7859 16.5336 17.7869 16.5226 17.7879C16.4736 17.8089 16.4236 17.8269 16.3736 17.8439C16.3316 17.8799 16.3096 17.9249 16.3106 17.9809C16.2936 17.9369 16.2686 17.8979 16.2286 17.8689C16.1836 17.8749 16.1376 17.8799 16.0916 17.8859C16.0066 17.8469 15.9716 17.8879 15.9616 17.9679C15.9596 17.9849 15.9686 18.0029 15.9866 18.0219C15.9976 18.0339 16.0106 18.0379 16.0266 18.0359C16.0306 18.0679 16.0406 18.0979 16.0576 18.1249C16.0196 18.1239 15.9816 18.1259 15.9436 18.1329C15.9336 18.1679 15.9236 18.2029 15.9136 18.2379C15.9136 18.2339 15.9136 18.2299 15.9136 18.2259C15.8766 18.2369 15.8396 18.2459 15.8016 18.2529C15.7756 18.2649 15.7606 18.2799 15.7556 18.2989C15.7376 18.3039 15.7206 18.3109 15.7026 18.3159C15.6796 18.3189 15.6556 18.3259 15.6236 18.3419C15.5716 18.3619 15.5206 18.3829 15.4716 18.4119C15.4466 18.4259 15.4246 18.4439 15.4006 18.4599C15.3236 18.4599 15.2506 18.4699 15.2146 18.5739C15.2106 18.5769 15.2076 18.5799 15.2046 18.5819C15.1926 18.5879 15.1816 18.5949 15.1696 18.5989C15.1046 18.6119 15.0406 18.5989 14.9766 18.5829C14.8846 18.5589 14.7896 18.5479 14.6966 18.5259C14.6016 18.4809 14.5326 18.4019 14.4586 18.3289C14.5066 18.2949 14.5476 18.2529 14.5746 18.1979C14.6456 17.2589 14.5856 16.3299 14.3676 15.4119C14.0206 14.0919 13.9126 12.7329 13.7126 11.3889C13.6856 11.2019 13.8506 11.1539 13.9966 11.0879C15.7616 10.2859 17.5316 9.49591 19.2826 8.66391C21.5386 7.59291 23.7736 6.47891 26.0266 5.40191C26.5896 5.13191 26.4756 4.74191 26.2396 4.36891C26.1516 4.22791 25.9886 4.19291 26.2176 4.06191C26.2716 4.03391 26.2876 3.99191 26.2576 3.93691L26.2316 3.94691C26.2066 3.88891 26.1626 3.83991 26.1416 3.77891C26.1236 3.52791 26.0656 3.28591 26.0576 3.02791C26.0286 2.18591 25.6256 1.90191 24.7746 2.02891C24.6276 2.05091 24.4726 2.01591 24.3216 2.00691C23.8416 2.27991 23.3916 2.60391 22.8966 2.85391C19.7026 4.46891 16.5656 6.20091 13.2906 7.65491C12.7026 7.91591 12.1246 8.18891 11.4596 8.16091C11.3696 8.18491 11.2856 8.22391 11.2096 8.27891C11.1616 8.31591 11.1156 8.35391 11.0726 8.39791C10.9176 8.56591 10.6596 8.66191 10.6956 8.95791C10.7986 9.30391 10.9096 9.64791 10.9276 10.0129C10.9486 10.5429 11.1316 11.0489 11.1686 11.5769C11.1746 11.6309 11.1716 11.6829 11.1646 11.7359C11.1446 11.7399 11.1236 11.7429 11.1036 11.7459L11.1226 11.7159C11.0836 11.7449 11.0436 11.7739 11.0046 11.8029C11.0376 11.8219 11.0696 11.8409 11.1026 11.8599C11.1126 11.9549 11.0186 12.0889 11.2006 12.1179C11.2426 12.1339 11.2836 12.1509 11.3256 12.1669C11.3186 12.2769 11.2776 12.3979 11.3096 12.4949C11.7156 13.7359 11.6716 15.0179 11.7536 16.2969C11.7916 16.8949 11.4956 17.5079 11.8146 18.0879C11.7776 18.3689 11.6986 18.6529 11.7126 18.9319C11.7626 19.9329 11.6776 20.8389 10.5336 21.2329C10.2786 21.3209 10.0566 21.5069 9.81956 21.6479C9.65956 21.6289 9.59256 21.7509 9.51156 21.8519C8.40656 22.3989 7.38656 23.0729 6.38156 23.7229C5.70256 24.1619 5.07356 24.7069 4.27056 24.9369C4.22656 24.9629 4.19056 24.9979 4.16256 25.0409C4.10456 25.0969 4.02656 25.1099 3.95556 25.1389C3.79156 25.2329 3.65856 25.3639 3.52456 25.4949C2.65056 26.2209 1.77656 26.9469 0.90256 27.6729L0.90956 27.6649C0.64956 28.0229 -0.0624402 27.9569 0.0105598 28.6259C-0.0194402 28.7189 0.0145596 28.7609 0.11156 28.7519C0.16956 29.3029 0.51456 29.6089 0.91256 29.9749C1.18856 30.2279 1.62656 30.2749 1.77256 30.6349C1.92656 31.0139 2.17556 30.9749 2.47956 30.8899C3.41056 30.6299 4.26156 30.1909 5.10956 29.7419C5.78056 29.3879 6.98156 29.5009 7.48156 29.9499L7.53056 29.9389L7.57756 29.9579C7.57756 29.9579 7.54456 29.9959 7.54556 29.9959C7.56256 30.0259 7.57456 30.0589 7.58256 30.0939L7.61556 30.0829C7.57056 30.3049 7.50056 30.5369 7.81756 30.6259C7.85456 30.6439 7.89156 30.6609 7.92856 30.6779C7.96256 30.7059 7.99456 30.7349 8.02556 30.7649C8.03456 30.7719 8.04156 30.7799 8.04856 30.7909C8.04556 30.8409 8.04256 30.8909 8.03956 30.9409C8.06256 30.9759 8.09456 30.9909 8.13256 30.9939C8.10156 31.0559 8.09556 31.1189 8.12856 31.1819C8.11656 31.1779 8.10556 31.1729 8.09356 31.1689C8.06656 31.1789 8.03956 31.1889 8.01256 31.1999C8.00856 31.2859 8.04956 31.3369 8.13456 31.3539L8.13056 31.3389C8.13756 31.3409 8.14356 31.3399 8.15056 31.3419C8.14456 31.3459 8.13956 31.3499 8.13456 31.3539C8.12656 31.3969 8.12956 31.4389 8.14356 31.4799C8.11156 31.5689 8.16456 31.6109 8.23556 31.6419C8.23756 31.6099 8.24656 31.5799 8.25656 31.5509C8.25856 31.5549 8.25956 31.5599 8.26156 31.5639C8.31556 31.8179 8.36356 32.0729 8.41756 32.3269C8.43156 32.8329 9.06356 33.0209 9.08756 33.4289C9.12656 34.1059 9.61956 34.3139 10.0196 34.6649C10.4586 35.0489 10.9906 35.2699 11.4786 35.5589C12.3936 36.0979 12.7346 35.8979 12.8546 34.8639C12.8626 34.7979 12.8726 34.7329 12.8806 34.6669C12.9536 34.6539 13.0176 34.6319 13.0006 34.5359C13.0146 34.4509 13.0286 34.3669 13.0426 34.2819C13.0246 34.2459 12.9996 34.2309 12.9686 34.2369C12.9716 34.2189 12.9776 34.1829 12.9776 34.1829L12.9536 34.1229C12.9576 33.8259 13.2276 33.6349 13.2616 33.3599C13.2966 33.0769 13.1496 32.9229 13.1426 32.6759C13.1236 32.0209 13.2846 31.2919 13.3676 30.6399C13.4086 30.3169 13.3916 29.1579 13.5796 28.9729C13.8276 28.7289 13.8406 28.4609 13.6646 28.1729C13.6836 28.0929 13.7026 28.0139 13.7216 27.9339C13.7606 27.8909 13.7996 27.8479 13.8386 27.8049C13.8396 27.7919 13.8316 27.7789 13.8146 27.7629C13.8066 27.7559 13.7966 27.7539 13.7866 27.7549C13.7876 27.7359 13.7896 27.7169 13.7886 27.6979C13.8106 27.7029 13.8336 27.6909 13.8566 27.6509C13.8776 27.6189 13.8826 27.5839 13.8716 27.5479C13.8356 27.5319 13.7976 27.5249 13.7576 27.5259C13.7546 27.5289 13.7516 27.5319 13.7496 27.5349C13.7436 27.5169 13.7386 27.4979 13.7336 27.4799C13.7176 27.4389 13.7016 27.3969 13.6826 27.3569C13.6816 27.3559 13.6456 27.3029 13.6436 27.3029C13.6426 27.3029 13.6036 27.2519 13.6016 27.2529C13.5906 27.2379 13.5856 27.2209 13.5776 27.2049C13.6036 27.1709 13.6306 27.1379 13.6606 27.1069L13.6676 27.1149C13.6706 27.0689 13.6736 27.0219 13.6766 26.9759C13.6356 26.9719 13.5956 26.9679 13.5546 26.9639C13.5556 26.9569 13.5566 26.9509 13.5576 26.9439C13.5766 26.8769 13.6036 26.8119 13.6306 26.7469C13.6626 26.6819 13.6896 26.6149 13.7086 26.5449C13.7266 26.4769 13.7466 26.4089 13.7806 26.3429C13.8026 26.3489 13.8266 26.3449 13.8576 26.3189C13.8796 26.2809 13.8906 26.2399 13.8916 26.1959C13.8836 26.1859 13.8746 26.1769 13.8666 26.1709C13.8676 26.1689 13.8696 26.1659 13.8716 26.1639C13.8776 26.1749 13.8846 26.1859 13.8916 26.1959C13.9746 26.1959 14.0276 26.1659 14.0166 26.0719C14.0496 25.9869 13.9966 25.9479 13.9316 25.9159C14.0466 25.4859 14.3046 25.0719 14.0726 24.6039C14.0696 24.5179 14.0656 24.4309 14.0626 24.3439C14.0666 24.2979 14.0716 24.2519 14.0766 24.2059C14.1046 24.1689 14.1096 24.1289 14.0916 24.0859C14.0966 24.0359 14.1016 23.9859 14.1066 23.9349C14.1346 23.8959 14.1376 23.8549 14.1176 23.8119C14.1506 23.6369 14.1836 23.4619 14.2166 23.2869C14.4306 22.7409 15.0336 22.6029 15.3736 22.1889C15.9166 21.8479 16.4636 21.5139 17.0016 21.1639C18.1406 20.4229 19.4376 19.9499 20.5166 19.1059C21.1536 18.7779 21.7946 18.4579 22.4256 18.1219Z" fill="black"/>
<path d="M45.0991 15.9162C45.1591 16.1772 45.2671 16.5892 45.6361 16.6792C46.1111 16.7962 46.8951 16.1852 47.0731 15.6892C47.5061 14.4822 48.1291 13.3732 48.9061 12.3522C48.9751 11.9892 49.1961 11.7052 49.3711 11.3912C49.8181 10.5932 50.3711 9.87021 50.8741 9.11221C50.9971 8.92721 51.0771 8.71921 50.9521 8.56721C50.4041 7.90421 50.0411 7.12621 49.5671 6.42021C49.2451 5.94121 48.9771 6.01021 48.5621 6.39621C47.8731 7.03421 47.5471 7.91321 47.0431 8.66321C46.1741 9.95621 45.2631 11.2452 44.6351 12.6942C44.5061 12.9932 44.3301 13.3222 43.9681 13.4482C43.8351 13.9372 44.0831 14.3012 44.3301 14.6892C44.5871 15.0922 44.9781 15.3942 45.0991 15.9162Z" fill="black"/>
</svg>
