<svg width="283" height="24" viewBox="0 0 283 24" fill="none" xmlns="http://www.w3.org/2000/svg">
<path d="M195.341 6.15236L193.078 10.4244L191.932 10.4224L189.578 10.4194L188.43 10.4174L191.118 5.34436L195.035 5.35036C195.312 5.35036 195.463 5.52036 195.454 5.77036C195.45 5.88336 195.415 6.01336 195.341 6.15236ZM198.861 2.09636L187.495 2.07836L176.995 21.8984L182.343 21.9064L187.068 12.9884L188.211 12.9904L190.568 12.9934L191.714 12.9954L186.989 21.9134L192.337 21.9214L200.532 6.45636C201.804 4.05536 201.054 2.10036 198.861 2.09636Z" fill="black"/>
<path d="M46.1883 6.15236L43.9253 10.4244L42.7793 10.4224L40.4253 10.4194L39.2763 10.4174L41.9653 5.34436L45.8813 5.35036C46.1593 5.35036 46.3103 5.52036 46.3013 5.77036C46.2983 5.88336 46.2613 6.01336 46.1883 6.15236ZM49.7083 2.09636L38.3423 2.07836L27.8413 21.8984L33.1903 21.9064L37.9153 12.9884L39.0593 12.9904L41.4153 12.9934L42.5603 12.9954L37.8353 21.9134L43.1843 21.9214L51.3793 6.45636C52.6503 4.05536 51.9013 2.10036 49.7083 2.09636Z" fill="black"/>
<path d="M225.218 6.18099C225.218 6.18099 220.106 15.867 219.831 16.386C219.034 17.897 217.522 18.661 215.091 18.661H214.256L221.255 5.34599H224.785C225.347 5.34599 225.475 5.63899 225.218 6.18099ZM228.818 2.07899H223.039H217.561L207.084 21.921H216.971C220.612 21.921 222.97 20.877 224.153 18.617C224.559 17.841 230.583 6.43899 230.583 6.43899C231.853 4.03499 231.012 2.07899 228.818 2.07899Z" fill="black"/>
<path d="M11.635 10.1376L14.168 5.34162H21.82L23.543 2.07862H10.474L0 21.9206H5.446L10.277 12.7136H17.249L18.608 10.1376H11.635Z" fill="black"/>
<path d="M75.6073 2.07887C69.5913 2.07887 68.1263 2.59387 66.1813 6.19387L65.1753 8.05587C63.9693 10.2859 64.1473 10.8489 69.2673 12.5889C71.4923 13.3479 71.2723 13.6169 70.5723 14.9149L68.9953 17.8289C68.2673 19.1759 68.1203 19.4219 66.2323 19.4219C64.3873 19.4219 64.5033 19.1759 65.2323 17.8289L67.3113 13.9829H62.0483L60.0103 17.8289C58.2213 21.2289 59.2173 21.9209 64.8813 21.9209C70.8943 21.9209 72.3903 21.4299 74.3363 17.8289L76.0163 14.7189C77.3813 12.1949 77.1243 11.7809 71.9753 10.0169C69.8253 9.28287 69.9023 9.10887 70.4463 8.10487L71.4773 6.19387C72.2213 4.82287 72.3113 4.60087 74.2433 4.60087C76.1723 4.60087 76.0273 4.82287 75.2843 6.19387L74.5133 7.62587H79.6763L80.4503 6.19387C82.3973 2.59387 81.4453 2.07887 75.6073 2.07887Z" fill="black"/>
<path d="M165.198 6.14348L158.59 18.6555H154.9C154.742 18.6555 154.627 18.6035 154.557 18.5135C154.501 18.4415 154.475 18.3485 154.478 18.2375C154.483 18.1265 154.518 17.9935 154.59 17.8565L161.198 5.34248H164.889C165.044 5.34248 165.162 5.39748 165.23 5.48948C165.286 5.55848 165.312 5.65148 165.309 5.76048C165.307 5.87448 165.27 6.00448 165.198 6.14348ZM168.805 2.07848H162.823H157.471L155.729 5.38448L149.298 17.5615C148.03 19.9655 148.782 21.9215 150.977 21.9215H156.754H162.309L164.052 18.6165L170.481 6.43748C171.752 4.03348 170.999 2.07848 168.805 2.07848Z" fill="black"/>
<path d="M134.958 6.40523C134.724 6.85723 134.512 7.24623 134.322 7.60923C133.767 8.66623 132.581 9.51923 131.271 9.51923H128.918L131.064 5.43223H134.255C134.909 5.43223 135.202 5.93123 134.958 6.40523ZM138.706 2.07924H127.43L116.953 21.9212H122.375L127.517 12.1832H131.902L126.76 21.9212H132.263L136.255 14.3572C137.373 12.2132 135.608 10.9772 135.336 10.7052C135.375 10.6842 138.18 10.7742 139.85 7.61123L140.429 6.51423C141.715 4.08123 140.93 2.07924 138.706 2.07924Z" fill="black"/>
<path d="M112.661 2.07884H97.304L95.549 5.40584H100.592L91.873 21.9218H97.079L105.799 5.40584H110.905L112.661 2.07884Z" fill="black"/>
<path d="M257.918 7.30336L259.109 8.10136L254.459 16.9054L251.812 21.9214L264.257 8.41436L263.09 7.63136L264.299 5.34136H272.023L273.747 2.07836H260.674L257.918 7.30336ZM263.127 11.7354L259.517 18.5654H266.651L264.88 21.9214H253.741L263.127 11.7354L265.5 9.15936L269.337 9.16036L267.978 11.7354H263.127Z" fill="black"/>
<path d="M274.91 11.6097H271.898L273.127 9.28869H276.139L277.812 6.12869H280.948L279.275 9.28869H282.287L281.059 11.6097H278.046L276.378 14.7617H273.241L274.91 11.6097Z" fill="black"/>
</svg>
