<svg width="305" height="24" viewBox="0 0 305 24" fill="none" xmlns="http://www.w3.org/2000/svg">
<path d="M21.3193 5.28613H13.835L11.3633 10.125H18.1729L16.8545 12.7256H10.0342L5.31543 22H0L10.2295 2H23L21.3193 5.28613ZM49.7266 2.02051V2.01074C51.9022 2.01074 52.6474 3.98763 51.3857 6.4082L43.249 22H37.9346L42.624 13.0039H38.0039L33.3154 21.9902H28L38.4316 2L49.7266 2.02051ZM75.2861 2C81.0728 2 82.0254 2.5243 80.0898 6.15332L79.3262 7.59473H74.2041L74.9688 6.15332C75.7031 4.77256 75.8617 4.55081 73.9365 4.55078C72.0109 4.55078 71.921 4.77228 71.1865 6.15332L70.1641 8.0791C69.6282 9.08688 69.5498 9.2681 71.6836 10.0039C76.795 11.778 77.0432 12.202 75.6934 14.7422L74.0254 17.877C72.0899 21.506 70.6011 22 64.6357 22C59.0177 22 58.025 21.3044 59.8018 17.877L61.8271 13.9961H67.0479L64.9834 17.877C64.2588 19.2277 64.0998 19.4805 65.9756 19.4805C67.8516 19.4805 67.9903 19.2378 68.7148 17.877L70.2832 14.9434C70.9779 13.6331 71.1867 13.3608 68.9834 12.5947C63.9014 10.8407 63.7228 10.2763 64.9238 8.02832L65.9258 6.15332C67.8613 2.51421 69.3108 2 75.2861 2ZM111.223 5.35742H106.07L97.2627 22H92L100.809 5.35742H95.7168L97.4854 2H113L111.223 5.35742ZM139.569 2C141.874 2 142.694 4.02619 141.355 6.47559L140.753 7.58496C139.02 10.7693 136.115 10.6801 136.071 10.7002C136.352 10.9729 138.188 12.2226 137.026 14.3789L132.884 22H127.174L132.51 12.1816H127.963L122.627 22H117L127.88 2H139.569ZM169.643 2.01074C171.9 2.0109 172.669 3.98531 171.366 6.40332L164.769 18.6758L162.983 22H151.357C149.1 21.9998 148.331 20.0254 149.634 17.6074L156.231 5.33496L158.017 2H169.643V2.01074ZM199.718 2.02051L199.728 2.01074C201.902 2.01074 202.647 3.98763 201.386 6.4082L193.253 22H187.94L192.628 13.0039H188.01L183.312 21.9902H178L188.427 2L199.718 2.02051ZM229.644 2C231.835 2 232.672 3.97621 231.407 6.39551C231.407 6.39551 225.41 17.8875 225.002 18.6738C223.827 20.9519 221.476 22 217.851 22H208L218.438 2H229.644ZM274.718 2.02051L274.728 2.01074C276.902 2.01074 277.647 3.98763 276.386 6.4082L268.253 22H262.94L267.628 13.0039H263.01L258.312 21.9902H253L263.427 2L274.718 2.02051ZM302.667 2C304.879 2.00005 305.666 4.02532 304.381 6.47363L303.803 7.58203C302.143 10.766 299.365 10.6856 299.309 10.7051C299.578 10.9771 301.341 12.2269 300.226 14.3828L296.249 22H290.768L295.89 12.1865H291.524L286.401 22H281L291.444 2.01074H302.687L302.667 2ZM215.151 18.7139H215.988C218.408 18.7139 219.912 17.9378 220.709 16.416C220.987 15.9036 226.045 6.19782 226.078 6.13379H226.068C226.327 5.57935 226.197 5.28613 225.64 5.28613H222.124L215.151 18.7139ZM155.052 17.8994C154.98 18.0404 154.939 18.1714 154.938 18.2822C154.938 18.403 154.959 18.4939 155.021 18.5645C155.092 18.6551 155.206 18.7051 155.37 18.7051H159.156L165.938 6.10059C166.01 5.9597 166.051 5.82849 166.051 5.71777C166.051 5.60711 166.03 5.51674 165.969 5.44629C165.897 5.34555 165.784 5.29493 165.62 5.29492H161.834L155.052 17.8994ZM39.3652 10.4219H43.9844L46.2295 6.11523L46.2402 6.125C46.3096 5.98402 46.3486 5.85299 46.3486 5.74219C46.3586 5.49004 46.2098 5.30859 45.9316 5.30859H42.0371L39.3652 10.4219ZM189.36 10.4219H193.979L196.223 6.11523L196.232 6.125C196.302 5.98399 196.342 5.85301 196.342 5.74219C196.352 5.49017 196.203 5.30877 195.925 5.30859H192.031L189.36 10.4219ZM264.36 10.4219H268.978L271.223 6.11523L271.232 6.125C271.302 5.98398 271.342 5.85302 271.342 5.74219C271.352 5.49018 271.203 5.3088 270.925 5.30859H267.031L264.36 10.4219ZM295.072 5.38574L292.93 9.50684H295.271C296.577 9.50684 297.753 8.65004 298.312 7.58203C298.501 7.21935 298.72 6.82639 298.949 6.37305V6.36328C299.198 5.88978 298.9 5.38585 298.252 5.38574H295.072ZM129.427 9.5H131.866C133.226 9.5 134.452 8.64368 135.033 7.5752C135.23 7.21231 135.458 6.81883 135.697 6.36523V6.35547C135.957 5.88171 135.645 5.37702 134.971 5.37695H131.659L129.427 9.5Z" fill="black"/>
</svg>
