<svg width="227" height="24" viewBox="0 0 227 24" fill="none" xmlns="http://www.w3.org/2000/svg">
<path d="M46.2287 6.15257L43.9647 10.4236L42.8197 10.4226L40.4647 10.4186L39.3167 10.4166L42.0047 5.34457L45.9217 5.35057C46.1997 5.35057 46.3507 5.52057 46.3417 5.76957C46.3377 5.88257 46.3027 6.01357 46.2287 6.15257ZM49.7487 2.09657L38.3827 2.07857L27.8817 21.8976L33.2307 21.9056L37.9557 12.9876L39.0997 12.9896L41.4557 12.9936L42.6007 12.9956L37.8767 21.9126L43.2247 21.9216L51.4187 6.45557C52.6917 4.05457 51.9417 2.10057 49.7487 2.09657Z" fill="black"/>
<path d="M11.634 10.1375L14.166 5.34147H21.819L23.541 2.07847H10.474L0 21.9205H5.446L10.276 12.7135H17.248L18.606 10.1375H11.634Z" fill="black"/>
<path d="M108.245 2.07884L104.512 9.14784H100.098L103.831 2.07884H98.4133L87.9373 21.9208H93.3523L98.6913 11.8108H103.106L97.7693 21.9208H103.277L113.754 2.07884H108.245Z" fill="black"/>
<path d="M172.888 2.07884H158.407L147.931 21.9208H152.494L160.662 6.48084H162.893C163.048 6.48084 163.166 6.53484 163.237 6.62584C163.292 6.69684 163.318 6.78984 163.315 6.90084C163.312 7.01384 163.275 7.14284 163.202 7.28184L155.447 21.9208H159.333L167.502 6.48084H169.683C169.839 6.48084 169.955 6.53484 170.025 6.62584C170.08 6.69684 170.109 6.78984 170.105 6.90084C170.1 7.01384 170.064 7.14284 169.992 7.28184L162.235 21.9208H166.393L174.568 6.43884C175.835 4.03484 175.081 2.07884 172.888 2.07884Z" fill="black"/>
<path d="M136.137 6.14333L129.53 18.6553H125.839C125.682 18.6553 125.567 18.6023 125.496 18.5123C125.441 18.4413 125.414 18.3483 125.417 18.2363C125.422 18.1253 125.457 17.9933 125.53 17.8553L132.137 5.34333H135.827C135.984 5.34333 136.101 5.39733 136.169 5.48833C136.226 5.55832 136.251 5.65133 136.247 5.75933C136.245 5.87432 136.21 6.00433 136.137 6.14333ZM139.743 2.07933H133.762H128.411L126.668 5.38333L120.237 17.5613C118.97 19.9653 119.721 21.9213 121.916 21.9213H127.694H133.248L134.991 18.6163L141.42 6.43733C142.691 4.03333 141.938 2.07933 139.743 2.07933Z" fill="black"/>
<path d="M83.6193 2.07884H68.2623L66.5073 5.40584H71.5503L62.8313 21.9208H68.0373L76.7563 5.40584H81.8623L83.6193 2.07884Z" fill="black"/>
<path d="M201.809 7.30357L202.999 8.10157L198.35 16.9056L195.703 21.9216L208.148 8.41457L206.98 7.63157L208.19 5.34157H215.914L217.637 2.07857H204.565L201.809 7.30357ZM207.017 11.7356L203.408 18.5656H210.542L208.771 21.9216H197.632L207.017 11.7356L209.39 9.15957L213.227 9.16057L211.868 11.7356H207.017Z" fill="black"/>
<path d="M218.801 11.6098H215.789L217.017 9.28878H220.03L221.703 6.12878H224.839L223.166 9.28878H226.178L224.95 11.6098H221.937L220.269 14.7618H217.132L218.801 11.6098Z" fill="black"/>
</svg>
