<svg width="176" height="24" viewBox="0 0 176 24" fill="none" xmlns="http://www.w3.org/2000/svg">
<path d="M22.2373 5.28613H14.4404L11.8623 10.125H18.9658L17.5801 12.7256H10.4766L5.55371 22H0L10.6807 2H24L22.2373 5.28613ZM49.7266 2.02051V2.00977C51.9022 2.00977 52.6473 3.98672 51.3857 6.40723L43.249 22H37.9346L42.624 13.0039H38.0039L33.3154 21.9902H28L38.4316 2L49.7266 2.02051ZM84 2L82.2314 5.35645H77.0674L68.2549 22H63L71.8018 5.35645H66.709L68.4873 2H84ZM100.245 9.12695H104.695L108.451 2H114L103.447 22H97.8984L103.275 11.8086H98.835L93.458 22H88L98.5527 2H104.011L100.245 9.12695ZM140.648 2C142.896 2.00004 143.666 3.97618 142.373 6.39551L135.773 18.6738L133.987 22H122.358C120.1 22 119.33 20.0238 120.634 17.6045L127.233 5.32617L129.02 2H140.648ZM173.725 2C175.895 2 176.648 3.97615 175.39 6.39551L167.294 22H163.171L170.861 7.24219C170.931 7.10106 170.97 6.96929 170.97 6.8584C170.97 6.73767 170.95 6.64664 170.891 6.57617C170.821 6.48569 170.712 6.43555 170.554 6.43555H168.394L160.297 22H156.442L164.133 7.24219C164.202 7.10106 164.241 6.96929 164.241 6.8584C164.241 6.73767 164.221 6.64664 164.162 6.57617C164.093 6.48561 163.984 6.43556 163.825 6.43555H161.615L153.519 22H149L159.386 2H173.725ZM126.054 17.9072C125.982 18.0482 125.94 18.1792 125.94 18.29C125.94 18.4109 125.961 18.5017 126.022 18.5723C126.094 18.6629 126.207 18.7138 126.371 18.7139H130.159L136.943 6.10254C137.015 5.96152 137.056 5.83054 137.056 5.71973C137.056 5.60885 137.035 5.51782 136.974 5.44727C136.902 5.34671 136.789 5.2959 136.625 5.2959H132.838L126.054 17.9072ZM39.3652 10.4111H43.9844L46.2295 6.10449L46.2393 6.11523C46.3088 5.97403 46.3486 5.84239 46.3486 5.73145C46.3585 5.47944 46.2097 5.29785 45.9316 5.29785H42.0371L39.3652 10.4111Z" fill="black"/>
</svg>
