<svg width="97" height="24" viewBox="0 0 97 24" fill="none" xmlns="http://www.w3.org/2000/svg">
<path d="M74.6847 21.1403C73.6297 21.1403 72.8857 20.6153 72.5977 19.7843C73.0437 19.2603 73.4497 18.7273 73.7957 18.2123C73.7997 18.2063 73.8037 18.2013 73.8077 18.1963C74.4967 17.1933 75.2487 16.1283 75.8747 15.1573C75.9377 15.9093 76.1887 16.7233 76.5017 17.5383C77.2537 19.4803 76.4077 21.1403 74.6847 21.1403ZM95.7967 17.4753C94.5127 19.3863 92.4457 21.1403 91.2547 21.1403C90.8797 21.1403 90.4717 20.8893 90.7537 20.1383L92.6647 14.9693C93.1347 13.6853 93.1037 12.0253 91.3807 12.0253C89.6887 12.0253 87.8407 13.1843 86.2747 15.4703L91.1297 1.37626H88.3737L82.7027 17.8473C81.6837 19.2343 80.5877 20.2273 79.3837 20.8583C79.9157 20.0753 79.8527 18.9163 78.9137 16.8803C77.5977 13.9673 78.0677 12.3073 78.8197 11.5243H76.7207C75.4997 13.5913 74.1527 15.6273 72.8687 17.4753H72.8677C72.8547 17.4953 72.8387 17.5143 72.8257 17.5333C72.6567 17.7713 72.4887 18.0003 72.3247 18.2153C71.0547 19.8153 69.3597 21.1403 68.3257 21.1403C67.9187 21.1403 67.6057 20.8893 67.8557 20.1383L70.5497 12.3383H67.7937L65.2557 19.7303C64.4107 22.1733 64.8807 23.6143 66.5407 23.6143C68.1777 23.6143 69.9757 22.4463 71.4977 20.9643C72.3597 22.6643 73.5937 23.6143 75.6877 23.6143C77.9257 23.6143 79.9837 22.4463 81.6657 20.8583L80.8247 23.3013H83.5817L85.1157 18.8533C87.4657 14.9693 88.9057 14.5003 89.3447 14.5003C89.7517 14.5003 90.0027 14.8443 89.7207 15.5963L88.1857 19.7303C87.2457 22.2363 87.8097 23.6143 89.4697 23.6143C92.0697 23.6143 95.0767 20.6703 96.7367 18.1963L95.7967 17.4753Z" fill="black"/>
<path d="M69.9545 10.2087C70.9885 10.2087 71.9285 9.39374 72.0845 8.36074C72.2725 7.35874 71.5835 6.54374 70.5495 6.54374C69.5155 6.54374 68.5765 7.35874 68.4195 8.36074C68.2315 9.39374 68.9525 10.2087 69.9545 10.2087Z" fill="black"/>
<path d="M21.7556 6.587H25.8726L26.4846 4.776H21.7556C19.8926 4.776 17.7316 4.402 15.6706 3.724C15.1336 3.547 14.5136 3.234 13.8566 2.888C12.7976 2.237 11.5966 1.639 10.3146 1.297C10.2306 1.275 10.1456 1.256 10.0616 1.238C9.47363 1.099 8.87563 1 8.26263 1C4.53463 1 0.368629 2.908 0.0246293 6.607C-0.274371 9.825 2.18563 11.336 5.41163 11.336C5.63163 11.336 5.91363 11.305 6.06963 11.274L6.60263 9.645H6.28963C3.59563 9.645 2.06463 8.872 2.19063 7.256C2.40563 4.498 5.47463 3.005 8.07463 3.005C10.2986 3.005 12.1296 3.933 14.1656 5.186L11.3546 13.202H9.42363L8.82863 14.956H10.7586L9.70363 18.071C8.82663 20.545 7.47963 21.673 5.88163 21.673C5.22463 21.673 4.56663 21.516 3.87763 21.172L3.09463 22.706C4.22163 23.427 5.44363 23.677 6.69663 23.677C9.42163 23.677 11.3946 22.08 12.6166 18.603L13.8596 14.956H20.1946L20.7906 13.202H14.4546L16.9826 5.973C18.6266 6.368 20.2726 6.587 21.7556 6.587Z" fill="black"/>
<path d="M35.0601 21.1403C33.3061 21.1403 32.6171 19.5433 33.3691 17.2253C33.8701 15.6903 35.3111 13.8103 37.1281 13.8103C37.4091 13.8103 37.6601 13.8423 37.8481 13.9363C37.4721 14.1863 37.1591 14.5623 37.0651 15.0953C36.8141 16.4103 37.5341 17.3813 38.8191 17.7573C38.0671 19.9183 36.5951 21.1403 35.0601 21.1403ZM63.9091 12.0253C62.4991 12.0253 61.1841 12.9333 59.8061 14.7193L60.6201 12.3383H57.8641L55.9581 17.8973C54.6701 19.6353 52.8251 21.1403 51.7241 21.1403C51.3171 21.1403 51.0031 20.8893 51.2541 20.1383L53.9481 12.3383H51.1911L49.6881 16.7553C47.3071 20.6703 45.8671 21.1403 45.4281 21.1403C45.0211 21.1403 44.8021 20.8273 45.0521 20.0753L47.7141 12.3383H44.9581L44.0881 14.8643C43.3981 15.7273 42.1461 16.3483 41.1681 16.3483H40.9491C41.0741 14.0613 39.9471 12.0253 37.3781 12.0253C34.3401 12.0253 31.6771 14.2803 30.5501 17.4443C30.3811 17.9213 30.2791 18.4013 30.2301 18.8733C29.0551 20.1633 27.6791 21.1403 26.7911 21.1403C26.3841 21.1403 26.0711 20.9213 26.3211 20.1693L32.7731 1.37626H30.0171L23.7211 19.6993C22.8761 22.1423 23.3451 23.6143 25.0051 23.6143C26.7741 23.6143 28.7291 22.2523 30.3221 20.6023C30.7151 22.3203 32.0191 23.6143 34.1211 23.6143C36.9391 23.6143 39.4451 21.4533 40.5421 18.3213C40.6041 18.1643 40.6361 18.0393 40.6671 17.8823C41.5731 17.7983 42.5111 17.5023 43.3401 17.0333L42.1081 20.6083C41.6691 21.8913 41.6691 23.6143 43.3921 23.6143C45.1151 23.6143 46.9321 22.4243 48.5291 20.1383C47.8711 22.3303 48.3721 23.6143 49.9391 23.6143C51.5821 23.6143 53.3871 22.4373 54.9121 20.9473L54.1051 23.3013H56.8611L58.8031 17.6633C60.5261 15.0323 61.7481 14.5003 62.3111 14.5003C62.7811 14.5003 63.0321 14.9693 62.7811 15.7843C62.5621 16.4423 62.1551 17.1313 61.3401 18.0393H62.6871C63.8461 17.1933 64.9111 15.9093 65.2871 14.7503C65.7571 13.2783 65.3181 12.0253 63.9091 12.0253Z" fill="black"/>
</svg>
