<svg width="131" height="24" viewBox="0 0 131 24" fill="none" xmlns="http://www.w3.org/2000/svg">
<path d="M9.381 5.18848H18.121L19.236 2.00048H6.944L0 21.6845H3.555L6.419 13.5825H13.911L15.025 10.3945H7.549L9.381 5.18848Z" fill="black"/>
<path d="M19.1395 18.5292C19.0725 18.4512 19.0515 18.3242 19.0775 18.1542C19.1105 17.9322 19.2095 17.6252 19.2995 17.3472L24.6955 2.00023H21.3005L16.0185 17.0272C15.8995 17.3622 15.6905 18.0002 15.6165 18.4902C15.4805 19.3842 15.6545 20.1012 16.1445 20.6822C16.7015 21.3562 17.5895 21.6842 18.8605 21.6842H20.4225L21.4645 18.7222H19.8575C19.5015 18.7222 19.2465 18.6532 19.1395 18.5292Z" fill="black"/>
<path d="M32.7329 12.3027C32.6879 12.5987 32.5509 13.2687 32.1389 14.4227C31.4749 16.2967 30.8789 17.3407 30.0829 18.0317C29.5479 18.4977 28.8249 18.7747 28.1499 18.7747C27.6339 18.7747 27.2519 18.6327 27.0149 18.3527C26.7389 18.0277 26.6519 17.5147 26.7559 16.8277C26.7919 16.5937 26.9199 15.9187 27.3369 14.7067C27.9979 12.8367 28.5929 11.7907 29.3899 11.0997C29.9469 10.6267 30.6569 10.3557 31.3389 10.3557C31.8529 10.3557 32.2259 10.4957 32.4749 10.7787C32.7509 11.1027 32.8369 11.6157 32.7329 12.3027ZM31.8879 7.28668C30.1609 7.28668 28.5899 7.89068 27.2189 9.08068C25.9169 10.2107 24.9979 11.7657 24.0469 14.4487C23.8289 15.0587 23.5359 16.1027 23.4069 16.9507C23.1789 18.4517 23.4319 19.6007 24.1749 20.4567C24.9409 21.3757 26.0939 21.8427 27.6019 21.8427C29.3199 21.8427 30.8859 21.2387 32.2569 20.0487C33.5769 18.9037 34.4959 17.3477 35.4299 14.6787C35.6509 14.0527 35.9539 13.0217 36.0819 12.1787C36.3069 10.6947 36.0519 9.54368 35.3009 8.65668C34.5309 7.74768 33.3819 7.28668 31.8879 7.28668Z" fill="black"/>
<path d="M48.2709 7.44519L45.2999 15.9112C44.3409 18.6372 42.2739 18.7752 41.8699 18.7752C41.5029 18.7752 41.0049 18.7062 40.7239 18.3782C40.5029 18.1222 40.4309 17.7342 40.5079 17.2272C40.5599 16.8852 40.6739 16.5162 40.7759 16.2072L43.8709 7.44519H40.4759L37.3999 16.1542C37.2279 16.6612 37.0859 17.2162 37.0219 17.6412C36.8319 18.8932 37.0709 19.9542 37.7149 20.7142C38.3459 21.4422 39.3159 21.8422 40.4449 21.8422C41.3669 21.8422 42.2349 21.6562 43.0209 21.2912C43.2179 21.2022 43.4099 21.1012 43.5949 20.9912L43.3509 21.6842H46.6659L51.6659 7.44519H48.2709Z" fill="black"/>
<path d="M64.2656 9.01199L64.0606 8.71399C63.3896 7.73999 62.4336 7.28699 61.0526 7.28699C59.9546 7.28699 58.9196 7.58199 58.0366 8.13499L58.2776 7.44499H54.9636L49.9646 21.684H53.3586L56.3236 13.26C56.9276 11.55 58.3196 10.356 59.7076 10.356C60.4176 10.356 60.7466 10.716 60.9756 11.069L61.2056 11.424L64.2656 9.01199Z" fill="black"/>
<path d="M65.9073 7.71099L60.9873 21.684H64.3813L69.3023 7.71099H65.9073Z" fill="black"/>
<path d="M71.3195 2.11975H67.7665L66.6765 5.21475H70.2305L71.3195 2.11975Z" fill="black"/>
<path d="M76.5126 13.1214L74.7646 12.8304C73.5846 12.6334 73.6456 12.2354 73.6776 12.0214C73.7426 11.5984 73.9806 11.1854 74.3456 10.8584C74.8376 10.4304 75.6146 10.1944 76.5326 10.1944C77.5756 10.1944 78.3436 10.4844 78.8816 11.0784L79.1206 11.3434L81.7586 9.30844L81.4896 8.99844C80.4716 7.83044 79.0666 7.28744 77.0696 7.28744C75.1146 7.28744 73.4366 7.84744 72.2146 8.90844C71.1846 9.80244 70.4796 11.0584 70.2826 12.3544C70.1236 13.4034 70.3226 15.2414 73.4406 15.7684L75.1896 16.0744C76.2296 16.2474 76.3066 16.5074 76.2286 17.0184C76.1736 17.3824 75.9506 17.7464 75.5916 18.0484C75.0056 18.5674 74.0816 18.8544 72.9876 18.8544C71.5566 18.8544 70.6946 18.4864 70.1046 17.6264L69.8736 17.2894L67.1436 19.4054L67.3696 19.7094C68.4556 21.1644 70.0746 21.8424 72.4646 21.8424C74.6046 21.8424 76.4636 21.2534 77.6976 20.1824C78.7786 19.2434 79.3966 18.1774 79.5876 16.9214C79.9186 14.7424 78.9416 13.5364 76.5126 13.1214Z" fill="black"/>
<path d="M91.4524 7.28699C90.5124 7.28699 89.6264 7.47699 88.8224 7.85099C88.6874 7.91199 88.5544 7.97899 88.4234 8.05299L90.5564 1.99999H87.1614L80.2444 21.684H83.6394L86.6104 13.219C87.5664 10.494 89.6364 10.356 90.0414 10.356C90.4144 10.356 90.9184 10.425 91.2024 10.754C91.4204 11.01 91.4934 11.396 91.4164 11.904C91.3684 12.216 91.2374 12.612 91.1354 12.922L88.0404 21.684H91.4354L94.5114 12.975C94.6844 12.466 94.8254 11.909 94.8894 11.489C95.1294 9.90499 94.6464 8.94599 94.1984 8.41799C93.5784 7.68799 92.6034 7.28699 91.4524 7.28699Z" fill="black"/>
<path d="M100.909 21.6845H113.388L114.52 18.4965H105.595L107.417 13.3435H114.935L116.048 10.1685H108.546L110.303 5.18848H119.029L120.145 2.00048H107.853L100.909 21.6845Z" fill="black"/>
<path d="M127.09 5.47823L128.079 2.67223H125.423L124.434 5.47823H121.243L120.331 8.07623H123.521L122.528 10.9032H125.184L126.177 8.07623H129.399L130.311 5.47823H127.09Z" fill="black"/>
</svg>
