<svg width="143" height="24" viewBox="0 0 143 24" fill="none" xmlns="http://www.w3.org/2000/svg">
<path fill-rule="evenodd" clip-rule="evenodd" d="M20.6386 2C22.899 2 23.67 3.97584 22.3652 6.40527L21.913 7.24219H17.1767L17.7314 6.21387C17.8547 5.99209 17.8858 5.78988 17.8241 5.63867C17.8139 5.61868 17.8031 5.6089 17.7929 5.58887C17.7313 5.47801 17.5979 5.40727 17.413 5.40723H13.4677C13.2108 5.40723 12.9023 5.54873 12.6454 5.77051C12.5737 5.83085 12.5019 5.90106 12.4404 5.98145C12.3787 6.06209 12.3164 6.14299 12.2753 6.22363L6.05949 17.7861V17.7959C5.98766 17.9268 5.94631 18.0581 5.94621 18.1689C5.93594 18.431 6.10091 18.6025 6.38859 18.6025H10.3339C10.7551 18.6025 11.2895 18.2397 11.5361 17.7861L11.9364 17.04L13.9198 13.3613H11.5361L13.3446 10.0039H20.4745L19.704 11.4258L18.6659 13.3613L18.6767 13.3506L16.7343 16.9697L16.3954 17.5947C15.0906 20.0241 12.1831 22 9.92277 22H2.36125C0.100879 22 -0.670163 20.0242 0.634688 17.5947L6.60441 6.40527C7.91956 3.97588 10.8167 2 13.0771 2H20.6386ZM36.2402 18.623H43.9423L42.1601 22H28.9999L39.5527 2H44.9999L36.2402 18.623ZM78.745 2C80.904 2.00022 81.6399 3.97628 80.3935 6.39551L74.0829 18.6738L72.3749 22H61.2548C59.0959 21.9998 58.36 20.0237 59.6064 17.6045L65.9169 5.32617L67.6249 2H78.745ZM109.57 2C111.874 2 112.694 4.01622 111.355 6.46582L110.754 7.57422C109.021 10.7698 106.115 10.6791 106.073 10.6992C106.353 10.9714 108.19 12.2217 107.028 14.3789L102.888 22H97.1796L102.514 12.1816H97.9579L92.6239 22H86.9999L97.8749 2H109.57ZM128.192 11.2295C127.756 12.0757 128.014 12.751 128.768 12.751H130.753C131.517 12.751 132.48 12.0758 132.917 11.2295L137.72 2H143L139.596 8.55957L136.797 13.9297L135.18 17.0527C133.76 19.7831 131.775 21.9999 128.163 22H118L119.776 18.5742H127.736C128.857 18.5742 129.691 18.3623 130.346 17.6572C130.663 17.3151 131.485 16.0387 131.487 16.0352H125.295C122.754 16.0352 121.811 13.4057 123.309 10.5342C124.736 7.80884 127.754 2.02178 127.766 2H132.986L128.192 11.2295ZM64.788 17.8975C64.7194 18.0384 64.6806 18.1695 64.6806 18.2803C64.6806 18.4012 64.6999 18.492 64.7587 18.5625C64.8274 18.6532 64.9357 18.7041 65.0927 18.7041H68.7138L75.2021 6.09277C75.2707 5.95182 75.3094 5.82075 75.3095 5.70996C75.3095 5.59915 75.2902 5.50804 75.2314 5.4375C75.1627 5.33669 75.0544 5.28613 74.8974 5.28613H71.2763L64.788 17.8975ZM101.652 5.37695L99.4218 9.5H101.86C103.22 9.49999 104.444 8.64276 105.025 7.57422C105.222 7.21147 105.451 6.81862 105.689 6.36523V6.35449C105.949 5.88077 105.637 5.37695 104.963 5.37695H101.652Z" fill="black"/>
</svg>
