<svg width="256" height="24" viewBox="0 0 256 24" fill="none" xmlns="http://www.w3.org/2000/svg">
<g clip-path="url(#clip0_8350_2272)">
<path d="M106.46 0.73999C109.5 0.73999 111.51 1.33989 112.46 2.53979C113.41 3.72979 113.53 5.45042 112.8 7.68042H107.46C107.59 7.27042 107.67 6.84968 107.69 6.41968L107.73 6.40015C107.75 5.97028 107.69 5.58037 107.55 5.22046C107.41 4.86046 107.17 4.56983 106.85 4.32983C106.53 4.09001 106.08 3.98022 105.51 3.98022C104.17 3.9803 103.01 4.56987 102.03 5.75952C101.05 6.94952 100.12 8.91015 99.2197 11.6501C98.7998 12.96 98.4597 14.1498 98.2197 15.2097C97.9798 16.2696 97.8704 17.1797 97.9004 17.9197C97.9304 18.6697 98.13 19.2404 98.5 19.6404C98.87 20.0402 99.46 20.2399 100.26 20.24C100.6 20.24 100.99 20.17 101.43 20.03C101.88 19.8901 102.32 19.6703 102.76 19.3904C103.2 19.1004 103.61 18.7396 103.99 18.2996C104.37 17.8596 104.65 17.3396 104.84 16.7498L105.57 14.5095H101.9L102.95 11.2595H111.97L108.13 23.0701H104.02L104.68 21.0496H104.6C103.65 21.9095 102.65 22.5199 101.58 22.8699C100.52 23.2299 99.3395 23.4099 98.0195 23.4099C96.3098 23.4099 95 23.1797 94.0801 22.7097C93.1601 22.2397 92.5595 21.51 92.2695 20.53C91.9796 19.5501 91.9705 18.3402 92.2305 16.8904C92.4905 15.4504 92.9298 13.7799 93.5498 11.8699C94.1498 10.0299 94.8203 8.41023 95.5703 7.02026C96.3203 5.63026 97.2105 4.46979 98.2305 3.53979C99.2504 2.60995 100.44 1.91013 101.78 1.44019C103.12 0.970231 104.68 0.739995 106.46 0.73999ZM120.87 16.4304C120.69 16.9803 120.57 17.4901 120.51 17.95C120.45 18.4099 120.49 18.8102 120.62 19.1501C120.76 19.4901 121.01 19.75 121.37 19.95C121.73 20.1399 122.24 20.24 122.88 20.24C123.52 20.24 124.12 20.1399 124.6 19.95C125.079 19.75 125.49 19.49 125.85 19.1501C126.2 18.8101 126.5 18.42 126.74 17.95C126.98 17.4901 127.19 16.9802 127.37 16.4304L132.34 1.15015H137.92L132.95 16.4304C132.5 17.8202 131.88 18.9697 131.09 19.8796C130.3 20.7896 129.41 21.5098 128.41 22.0398C127.41 22.5698 126.35 22.9301 125.24 23.1101C124.12 23.2901 123 23.3904 121.86 23.3904C120.721 23.3904 119.65 23.3103 118.65 23.1404C117.641 22.9804 116.81 22.6402 116.15 22.1404C115.49 21.6404 115.06 20.9295 114.87 20.0095C114.68 19.0896 114.82 17.8895 115.3 16.4197L120.26 1.15015H125.84L120.87 16.4304ZM5.58008 23.0603H0L7.12012 1.15015H12.6904L5.58008 23.0603ZM26.6396 16.1501H26.71L31.5898 1.15015H36.7002L29.5801 23.0603H23.2305L21.4004 7.70972H21.3301L16.3398 23.0603H11.2305L18.3496 1.15015H24.7695L26.6396 16.1501ZM57.4502 4.77026H51.4102L45.46 23.0603H39.8896L45.8301 4.77026H39.79L40.9697 1.15015H58.6201L57.4502 4.77026ZM72.1104 1.15015C74.2001 1.15015 75.3599 1.19016 76.5898 1.61011H76.5996C78.7896 2.39009 79.5902 4.06999 78.7803 6.65991C77.8003 9.78984 75.3202 11.9801 72.7402 12.9001L74.3799 23.0603H68.21L67.7695 13.7996H64.3701L61.3604 23.0603H55.79L62.9102 1.15015H72.1104ZM84.6699 23.0603H79.0898L86.21 1.15015H91.79L84.6699 23.0603ZM157.52 4.77026H147.64L145.97 9.91968H155.26L154.09 13.5496H144.79L142.88 19.4402H153.14L151.96 23.0603H136.13L143.25 1.15015H158.69L157.52 4.77026ZM188.52 8.19019L194.35 1.10034H200.43L190.48 11.9402L193.77 23.0203H187.5L185.92 15.5896L179.56 23.0203H173.44L183.93 11.9402L181.1 1.10034H187.26L188.52 8.19019ZM236.89 4.72046H227.02L225.34 9.87964H234.63L233.45 13.4998H224.16L222.25 19.3904H232.51L231.33 23.0095H215.49L222.62 1.10034H238.07L236.89 4.72046ZM250.56 10.1501H255.02L253.78 13.9597H249.32L247.42 19.8201H242.62L244.53 13.9597H239.72L240.96 10.1501H245.75L247.66 4.28979H252.46L250.56 10.1501ZM65.3701 10.7195H68.04C70.37 10.7195 72.2002 9.73989 72.9502 7.40991C73.6801 5.16 72.2198 4.40015 70.1299 4.40015H67.4199L65.3701 10.7195Z" fill="black"/>
</g>
<defs>
<clipPath id="clip0_8350_2272">
<rect width="256" height="24" fill="white"/>
</clipPath>
</defs>
</svg>
