<svg width="195" height="24" viewBox="0 0 195 24" fill="none" xmlns="http://www.w3.org/2000/svg">
<path d="M24.7741 1.42714H18.3491L11.2301 23.3381H16.3421L21.3271 7.99514H21.4051L23.2321 23.3381H29.5831L36.7051 1.42714H31.5921L26.7131 16.4341H26.6361L24.7741 1.42714Z" fill="black"/>
<path d="M58.6247 1.42714H40.9707L39.7927 5.04814H45.8337L39.8907 23.3381H45.4647L51.4097 5.04814H57.4497L58.6247 1.42714Z" fill="black"/>
<path d="M79.0936 23.3386H84.6716L91.7886 1.42762H86.2136L79.0936 23.3386Z" fill="black"/>
<path d="M107.493 7.936H112.837C113.562 5.703 113.446 3.99 112.495 2.795C111.54 1.596 109.539 1 106.495 1C104.712 1 103.151 1.235 101.812 1.703C100.473 2.174 99.2884 2.877 98.2664 3.806C97.2394 4.738 96.3514 5.9 95.6024 7.29C94.8564 8.681 94.1804 10.297 93.5824 12.137C92.9654 14.042 92.5264 15.712 92.2644 17.156C92.0004 18.599 92.0144 19.811 92.3004 20.794C92.5884 21.775 93.1914 22.502 94.1074 22.972C95.0284 23.443 96.3404 23.677 98.0454 23.677C99.3584 23.677 100.545 23.497 101.602 23.139C102.663 22.783 103.67 22.174 104.618 21.316H104.697L104.036 23.339H108.142L111.979 11.525H102.958L101.905 14.778H105.58L104.852 17.019C104.66 17.611 104.377 18.129 104.001 18.568C103.627 19.009 103.216 19.37 102.774 19.658C102.333 19.945 101.889 20.158 101.443 20.302C100.998 20.445 100.606 20.514 100.269 20.514C99.4684 20.514 98.8824 20.316 98.5084 19.919C98.1334 19.519 97.9364 18.945 97.9064 18.198C97.8784 17.452 97.9834 16.549 98.2254 15.485C98.4694 14.419 98.8034 13.231 99.2274 11.922C100.118 9.182 101.052 7.219 102.032 6.031C103.014 4.846 104.174 4.252 105.515 4.252C106.083 4.252 106.529 4.368 106.852 4.604C107.175 4.839 107.409 5.136 107.55 5.493C107.692 5.853 107.751 6.245 107.727 6.676C107.706 7.108 107.627 7.523 107.493 7.936Z" fill="black"/>
<path d="M125.834 1.42725H120.257L115.292 16.7102C114.814 18.1842 114.669 19.3802 114.861 20.3022C115.053 21.2242 115.479 21.9342 116.143 22.4342C116.804 22.9342 117.641 23.2692 118.646 23.4302C119.65 23.5952 120.723 23.6772 121.856 23.6772C122.994 23.6772 124.12 23.5832 125.239 23.3992C126.357 23.2152 127.414 22.8582 128.414 22.3262C129.412 21.7932 130.304 21.0752 131.091 20.1612C131.879 19.2532 132.495 18.1042 132.949 16.7102L137.915 1.42725H132.339L127.372 16.7102C127.192 17.2622 126.983 17.7712 126.743 18.2292C126.504 18.6932 126.207 19.0882 125.854 19.4272C125.496 19.7642 125.083 20.0292 124.603 20.2262C124.129 20.4182 123.557 20.5142 122.884 20.5142C122.239 20.5142 121.733 20.4182 121.37 20.2262C121.009 20.0292 120.759 19.7642 120.623 19.4272C120.488 19.0882 120.448 18.6932 120.509 18.2292C120.568 17.7712 120.69 17.2622 120.867 16.7102L125.834 1.42725Z" fill="black"/>
<path d="M158.693 1.42714H143.246L136.126 23.3381H151.964L153.139 19.7171H142.877L144.794 13.8281H154.087L155.26 10.2051H145.969L147.645 5.04814H157.518L158.693 1.42714Z" fill="black"/>
<path d="M72.9538 7.68947C72.1958 10.0235 70.3718 11.0055 68.0378 11.0055H65.3708L67.4268 4.68247H70.1328C72.2268 4.68247 73.6878 5.44047 72.9538 7.68947ZM76.5868 1.89247C75.3578 1.47447 74.1988 1.42847 72.1038 1.42847H62.9048L55.7858 23.3345H61.3588L64.3738 14.0745H67.7668L68.1998 23.3345H74.3758L72.7298 13.1775C75.3118 12.2575 77.7928 10.0705 78.7748 6.93947C79.5858 4.35047 78.7818 2.67247 76.5868 1.89247Z" fill="black"/>
<path d="M7.12 1.42714H12.694L5.577 23.3381H0L7.12 1.42714Z" fill="black"/>
<path d="M181.619 1.42714L182.877 8.51614L188.704 1.42714H194.783L184.836 12.2611L188.129 23.3381H181.857L180.281 15.9121L173.919 23.3381H167.801L178.293 12.2611L175.462 1.42714H181.619Z" fill="black"/>
</svg>
