<svg width="159" height="24" viewBox="0 0 159 24" fill="none" xmlns="http://www.w3.org/2000/svg">
<path d="M7.12 1.46997H12.69L5.57 23.38H0L7.12 1.46997ZM26.64 16.47H26.72L31.59 1.46997H36.7L29.58 23.38H23.23L21.4 8.03997H21.32L16.34 23.38H11.23L18.35 1.46997H24.77L26.63 16.48L26.64 16.47ZM57.45 5.08997H51.41L45.47 23.38H39.9L45.84 5.08997H39.8L40.98 1.46997H58.63L57.45 5.08997ZM86.21 1.46997H91.78L84.66 23.38H79.08L86.21 1.46997ZM107.73 6.71997C107.75 6.28997 107.69 5.89997 107.55 5.53997C107.41 5.17997 107.17 4.88997 106.85 4.64997C106.53 4.40997 106.08 4.29997 105.51 4.29997C104.17 4.29997 103.01 4.88997 102.03 6.07997C101.05 7.26997 100.12 9.22997 99.22 11.97C98.8 13.28 98.46 14.47 98.22 15.53C97.98 16.59 97.87 17.5 97.9 18.24C97.93 18.99 98.13 19.56 98.5 19.96C98.87 20.36 99.46 20.56 100.26 20.56C100.6 20.56 100.99 20.49 101.43 20.35C101.88 20.21 102.32 19.99 102.76 19.71C103.2 19.42 103.61 19.06 103.99 18.62C104.37 18.18 104.65 17.66 104.84 17.07L105.57 14.83H101.9L102.95 11.58H111.97L108.13 23.39H104.02L104.68 21.37H104.6C103.65 22.23 102.65 22.84 101.58 23.19C100.52 23.55 99.34 23.73 98.02 23.73C96.31 23.73 95 23.5 94.08 23.03C93.16 22.56 92.56 21.83 92.27 20.85C91.98 19.87 91.97 18.66 92.23 17.21C92.49 15.77 92.93 14.1 93.55 12.19C94.15 10.35 94.82 8.72997 95.57 7.33997C96.32 5.94997 97.21 4.78997 98.23 3.85997C99.25 2.92997 100.44 2.22997 101.78 1.75997C103.12 1.28997 104.68 1.05997 106.46 1.05997C109.5 1.05997 111.51 1.65997 112.46 2.85997C113.41 4.04997 113.53 5.76997 112.8 7.99997H107.46C107.59 7.58997 107.67 7.16997 107.69 6.73997L107.73 6.71997ZM120.87 16.75C120.69 17.3 120.57 17.81 120.51 18.27C120.45 18.73 120.49 19.13 120.62 19.47C120.76 19.81 121.01 20.07 121.37 20.27C121.73 20.46 122.24 20.56 122.88 20.56C123.52 20.56 124.12 20.46 124.6 20.27C125.08 20.07 125.49 19.81 125.85 19.47C126.2 19.13 126.5 18.74 126.74 18.27C126.98 17.81 127.19 17.3 127.37 16.75L132.34 1.46997H137.92L132.95 16.75C132.5 18.14 131.88 19.29 131.09 20.2C130.3 21.11 129.41 21.83 128.41 22.36C127.41 22.89 126.35 23.25 125.24 23.43C124.12 23.61 123 23.71 121.86 23.71C120.72 23.71 119.65 23.63 118.65 23.46C117.64 23.3 116.81 22.96 116.15 22.46C115.49 21.96 115.06 21.25 114.87 20.33C114.68 19.41 114.82 18.21 115.3 16.74L120.26 1.46997H125.84L120.87 16.75ZM157.52 5.08997H147.65L145.97 10.25H155.26L154.09 13.87H144.8L142.88 19.76H153.14L151.97 23.38H136.13L143.25 1.46997H158.7L157.52 5.08997ZM76.59 1.93997C75.36 1.51997 74.2 1.46997 72.1 1.46997H62.91L55.79 23.38H61.36L64.37 14.12H67.77L68.21 23.38H74.38L72.74 13.22C75.32 12.29 77.8 10.11 78.77 6.97997C79.58 4.38997 78.78 2.70997 76.59 1.92997V1.93997ZM72.95 7.72997C72.19 10.06 70.37 11.04 68.04 11.04H65.37L67.42 4.71997H70.13C72.23 4.71997 73.68 5.47997 72.95 7.72997Z" fill="black"/>
</svg>
