<svg width="209" height="24" viewBox="0 0 209 24" fill="none" xmlns="http://www.w3.org/2000/svg">
<path d="M202.943 1.429L201.937 4.525H198.659L197.813 7.129H201.091L200.091 10.207H203.375L204.374 7.129H207.425L208.271 4.525H205.221L206.226 1.429H202.943ZM193.153 5.052H183.281L181.605 10.207H190.897L189.721 13.829H180.429L178.514 19.72H188.776L187.598 23.341H171.761L178.88 1.429H194.33L193.153 5.052ZM70.133 4.683H67.426L65.372 11.003H68.038C70.374 11.003 72.198 10.021 72.951 7.69C73.687 5.442 72.227 4.683 70.133 4.683ZM78.771 6.943C77.794 10.068 75.311 12.257 72.734 13.181L74.375 23.337H68.202L67.767 14.075H64.372L61.359 23.337H55.786L62.906 1.429H72.104C74.199 1.429 75.358 1.476 76.588 1.894C78.783 2.671 79.583 4.354 78.771 6.943ZM158.693 1.427H143.246L136.126 23.339H151.964L153.139 19.717H142.877L144.794 13.828H154.088L155.26 10.205H145.969L147.645 5.049H157.518L158.693 1.427ZM125.834 1.427H120.257L115.292 16.71C114.814 18.184 114.668 19.38 114.861 20.302C115.053 21.224 115.479 21.934 116.143 22.434C116.804 22.934 117.641 23.269 118.646 23.431C119.649 23.596 120.723 23.677 121.856 23.677C122.994 23.677 124.12 23.584 125.239 23.4C126.357 23.215 127.414 22.858 128.414 22.327C129.411 21.794 130.304 21.075 131.091 20.162C131.879 19.254 132.495 18.104 132.949 16.71L137.915 1.427H132.339L127.372 16.71C127.191 17.262 126.983 17.771 126.743 18.229C126.503 18.693 126.207 19.089 125.853 19.427C125.496 19.764 125.082 20.03 124.603 20.226C124.129 20.419 123.556 20.514 122.884 20.514C122.239 20.514 121.733 20.419 121.37 20.226C121.009 20.03 120.759 19.764 120.623 19.427C120.488 19.089 120.448 18.693 120.509 18.229C120.568 17.771 120.69 17.262 120.867 16.71L125.834 1.427ZM107.493 7.936H112.837C113.563 5.703 113.447 3.99 112.495 2.795C111.54 1.596 109.54 1 106.495 1C104.713 1 103.151 1.235 101.813 1.703C100.474 2.174 99.289 2.877 98.266 3.806C97.24 4.738 96.351 5.9 95.602 7.29C94.856 8.681 94.18 10.297 93.582 12.137C92.965 14.042 92.526 15.712 92.264 17.156C92.001 18.599 92.015 19.811 92.3 20.794C92.589 21.775 93.191 22.502 94.108 22.972C95.028 23.443 96.34 23.677 98.046 23.677C99.358 23.677 100.546 23.497 101.602 23.139C102.664 22.783 103.671 22.174 104.618 21.316H104.697L104.037 23.339H108.143L111.979 11.525H102.959L101.905 14.778H105.58L104.853 17.019C104.66 17.611 104.377 18.129 104.002 18.568C103.627 19.009 103.217 19.37 102.774 19.658C102.334 19.945 101.889 20.158 101.443 20.302C100.999 20.445 100.607 20.514 100.269 20.514C99.469 20.514 98.882 20.316 98.509 19.919C98.134 19.519 97.936 18.945 97.907 18.198C97.879 17.452 97.983 16.549 98.226 15.485C98.469 14.419 98.804 13.231 99.227 11.922C100.118 9.183 101.053 7.219 102.033 6.031C103.015 4.846 104.174 4.252 105.516 4.252C106.084 4.252 106.53 4.368 106.853 4.604C107.175 4.839 107.41 5.136 107.551 5.493C107.693 5.853 107.752 6.245 107.728 6.676C107.707 7.108 107.627 7.523 107.493 7.936ZM79.094 23.339H84.672L91.789 1.427H86.214L79.094 23.339ZM58.625 1.427H40.971L39.792 5.049H45.834L39.891 23.339H45.465L51.41 5.049H57.45L58.625 1.427ZM24.774 1.427H18.35L11.23 23.339H16.342L21.327 7.995H21.405L23.233 23.339H29.583L36.705 1.427H31.592L26.713 16.434H26.636L24.774 1.427ZM7.12 1.427H12.694L5.577 23.339H0L7.12 1.427Z" fill="black"/>
</svg>
