<svg width="142" height="24" viewBox="0 0 142 24" fill="none" xmlns="http://www.w3.org/2000/svg">
<path d="M136.223 15.084L136.751 5.236H136.676L130.803 15.084H136.223ZM141.396 1.429L141.595 23.341H135.787L136.015 18.706H128.659L125.875 23.341H120.068L134.505 1.429H141.396ZM106.83 1.429L105.754 16.897H105.832L114.845 1.429H123.091L115.972 23.341H110.862L116.545 5.848H116.467L105.867 23.341H101.532L102.297 5.848H102.219L96.537 23.341H91.427L98.545 1.429H106.83ZM85.654 6.677C85.677 6.248 85.618 5.855 85.477 5.497C85.334 5.138 85.101 4.842 84.779 4.606C84.455 4.371 84.009 4.254 83.441 4.254C82.099 4.254 80.938 4.847 79.959 6.033C78.979 7.22 78.045 9.184 77.155 11.926C76.729 13.235 76.396 14.42 76.153 15.486C75.91 16.548 75.804 17.453 75.832 18.2C75.86 18.944 76.061 19.519 76.436 19.918C76.808 20.317 77.395 20.517 78.195 20.517C78.531 20.517 78.922 20.445 79.369 20.301C79.815 20.159 80.259 19.943 80.702 19.657C81.142 19.371 81.55 19.008 81.926 18.569C82.3 18.13 82.585 17.611 82.778 17.021L83.505 14.78H79.829L80.885 11.525H89.905L86.066 23.341H81.964L82.62 21.313H82.543C81.594 22.172 80.589 22.782 79.531 23.141C78.473 23.496 77.284 23.678 75.969 23.678C74.265 23.678 72.953 23.441 72.036 22.971C71.118 22.5 70.514 21.773 70.228 20.793C69.939 19.811 69.928 18.599 70.19 17.155C70.451 15.715 70.892 14.043 71.509 12.142C72.107 10.299 72.781 8.684 73.53 7.291C74.279 5.901 75.167 4.74 76.19 3.809C77.216 2.879 78.398 2.176 79.738 1.706C81.078 1.236 82.639 1 84.42 1C87.466 1 89.465 1.601 90.419 2.796C91.371 3.992 91.488 5.705 90.763 7.937H85.419C85.552 7.527 85.631 7.108 85.654 6.677ZM59.791 16.436H59.869L64.745 1.429H69.855L62.737 23.341H56.386L54.558 7.997H54.48L49.496 23.341H44.385L51.502 1.429H57.93L59.791 16.436ZM34.972 15.084L35.501 5.236H35.424L29.552 15.084H34.972ZM40.145 1.429L40.344 23.341H34.536L34.764 18.706H27.407L24.624 23.341H18.817L33.254 1.429H40.145ZM7.119 1.429H12.695L6.75201 19.719H16.623L15.448 23.341H0L7.119 1.429Z" fill="black"/>
</svg>
