<svg width="112" height="24" viewBox="0 0 112 24" fill="none" xmlns="http://www.w3.org/2000/svg">
<path d="M27.6699 16.5801H27.6797C27.4997 17.14 27.3703 17.66 27.3203 18.1299C27.2603 18.5998 27.3005 19.0096 27.4404 19.3496C27.5804 19.6896 27.8302 19.9602 28.2002 20.1602C28.5702 20.3601 29.0804 20.46 29.7402 20.46C30.4201 20.4599 31.0103 20.3601 31.4902 20.1602C31.9802 19.9602 32.3998 19.6896 32.7598 19.3496C33.1197 19.0096 33.4199 18.5998 33.6699 18.1299C33.9099 17.66 34.1296 17.14 34.3096 16.5801L39.3604 1H45.04L39.9805 16.5801C39.5205 18 38.8898 19.1696 38.0898 20.0996C37.2899 21.0295 36.3802 21.7598 35.3604 22.2998C34.3404 22.8398 33.2601 23.2096 32.1201 23.3896C30.9801 23.5796 29.8299 23.6699 28.6699 23.6699C27.5101 23.6699 26.4203 23.5899 25.4004 23.4199C24.3804 23.2499 23.5196 22.9204 22.8496 22.4004C22.1698 21.8905 21.7401 21.1602 21.54 20.2305C21.34 19.2905 21.4905 18.0702 21.9805 16.5703L27.0498 1H32.7305L27.6699 16.5801ZM6.87988 19.6396H16.9404L15.7402 23.3301H0L7.25977 1H12.9404L6.87988 19.6396ZM59.8604 1C61.9901 1 63.1698 1.04053 64.4297 1.48047L64.4199 1.46973C66.6499 2.25973 67.4804 3.98035 66.6504 6.61035C65.6604 9.8002 63.1299 12.0297 60.5 12.9697L62.1699 23.3301H55.8799L55.4404 13.8799H51.9795L48.9102 23.3301H43.2197L50.4795 1H59.8604ZM83.5 1C85.6299 1 86.8097 1.04054 88.0596 1.48047V1.46973C90.2896 2.25973 91.12 3.98035 90.29 6.61035C89.3 9.80019 86.7696 12.0298 84.1396 12.9697L85.8096 23.3301H79.5195L79.0801 13.8799H75.6201L72.5498 23.3301H66.8604L74.1201 1H83.5ZM111.49 23.3301H105.57L105.8 18.6104H98.2998L95.46 23.3301H89.54L104.26 1H111.29L111.49 23.3301ZM100.5 14.9199H106.02L106.56 4.87988H106.48L100.5 14.9199ZM55.0996 4.32031L53 10.7598H55.7197C58.0997 10.7598 59.9495 9.75986 60.7295 7.37988H60.7402C61.4801 5.10016 60.0001 4.32041 57.8604 4.32031H55.0996ZM76.6396 10.7598H79.3604C81.7402 10.7597 83.5902 9.75976 84.3701 7.37988H84.3799C85.1198 5.09995 83.64 4.32032 81.5 4.32031H78.7402L76.6396 10.7598Z" fill="black"/>
</svg>
