<svg width="252" height="24" viewBox="0 0 252 24" fill="none" xmlns="http://www.w3.org/2000/svg">
<path d="M21.913 2.04058H10.51L0 21.9536H5.448L14.234 5.31657H17.892C18.047 5.31657 18.165 5.36857 18.235 5.46257C18.291 5.53257 18.318 5.62757 18.314 5.73758C18.31 5.85158 18.274 5.97958 18.202 6.11858L9.841 21.9536H15.392L23.596 6.41358C24.87 4.00257 24.114 2.04058 21.913 2.04058Z" fill="black"/>
<path d="M133.983 6.12463L127.345 18.6776L123.642 18.6756C123.484 18.6756 123.368 18.6226 123.297 18.5316C123.242 18.4606 123.216 18.3676 123.218 18.2556C123.224 18.1446 123.258 18.0106 123.331 17.8726L129.97 5.31763L133.673 5.31963C133.829 5.31963 133.948 5.37463 134.016 5.46863C134.072 5.53663 134.098 5.63063 134.094 5.74063C134.092 5.85363 134.056 5.98463 133.983 6.12463ZM137.605 2.04663L131.602 2.04363L126.231 2.04063L124.481 5.35563L118.02 17.5736C116.746 19.9876 117.499 21.9506 119.703 21.9516L125.501 21.9536L131.076 21.9566L132.826 18.6426L139.285 6.42263C140.561 4.01063 139.808 2.04763 137.605 2.04663Z" fill="black"/>
<path d="M111.371 2.04945L95.9596 2.04045L94.1966 5.37845L99.2576 5.38145L90.4966 21.9505L95.7216 21.9535L104.483 5.38445L109.607 5.38745L111.371 2.04945Z" fill="black"/>
<path d="M193.745 6.38612C193.511 6.84011 193.298 7.23011 193.106 7.59511C192.549 8.65512 191.358 9.51012 190.044 9.50912C189.696 9.50912 187.681 9.50811 187.681 9.50811L189.838 5.40812C189.838 5.40812 192.83 5.41011 193.04 5.41011C193.697 5.41011 193.991 5.91011 193.745 6.38612ZM197.509 2.04712L186.193 2.04111L175.667 21.9491L181.109 21.9521L186.275 12.1811L190.674 12.1831L185.509 21.9541L191.031 21.9571L195.043 14.3671C196.166 12.2171 194.394 10.9751 194.122 10.7021C194.162 10.6811 196.977 10.7741 198.656 7.59912L199.236 6.49812C200.528 4.05812 199.741 2.04912 197.509 2.04712Z" fill="black"/>
<path d="M149.688 21.9505L160.858 21.9565L171.381 2.04951L166.011 2.0455L157.218 18.6795L153.531 18.6775C153.373 18.6765 153.256 18.6235 153.185 18.5305C153.13 18.4595 153.101 18.3645 153.106 18.2545C153.112 18.1415 153.147 18.0125 153.22 17.8735L161.589 2.0435L156.219 2.0405L148.007 17.5755C146.731 19.9865 147.488 21.9495 149.688 21.9505Z" fill="black"/>
<path d="M38.0649 11.7334H45.0459L46.4119 9.14741H39.4289L41.4539 5.31441H49.1189L50.8489 2.04041H37.7319L27.2159 21.9554H40.3329L42.1109 18.5874H34.4469L38.0649 11.7334Z" fill="black"/>
<path d="M56.116 21.9594H70.651L81.164 2.04543H76.585L68.386 17.5414H66.147C65.991 17.5414 65.873 17.4874 65.804 17.3954C65.746 17.3244 65.72 17.2304 65.723 17.1194C65.728 17.0064 65.763 16.8774 65.838 16.7374L73.621 2.04543H69.72L61.522 17.5414H59.333C59.175 17.5414 59.059 17.4874 58.989 17.3954C58.933 17.3244 58.907 17.2304 58.909 17.1194C58.914 17.0064 58.95 16.8774 59.022 16.7374L66.807 2.04543H62.635L54.43 17.5834C53.158 19.9954 53.914 21.9594 56.116 21.9594Z" fill="black"/>
<path d="M226.889 7.28565L228.083 8.08665L223.418 16.9216L220.761 21.9557L233.251 8.40065L232.078 7.61465L233.293 5.31665H241.044L242.773 2.04165H229.655L226.889 7.28565ZM232.115 11.7337L228.494 18.5877H235.653L233.876 21.9557H222.697L232.115 11.7337L234.497 9.14865L238.347 9.14965L236.984 11.7337H232.115Z" fill="black"/>
<path d="M243.941 11.6072H240.918L242.151 9.27823H245.174L246.853 6.10623H250.001L248.322 9.27823H251.344L250.111 11.6072H247.089L245.414 14.7702H242.266L243.941 11.6072Z" fill="black"/>
</svg>
