<svg width="98" height="24" viewBox="0 0 98 24" fill="none" xmlns="http://www.w3.org/2000/svg">
<path d="M96.503 3.89H87.019L85.41 8.842H94.336L93.206 12.32H84.279L82.44 17.98H92.297L91.168 21.457H75.954L82.794 0.410997H97.632L96.503 3.89ZM61.301 15.091C61.127 15.621 61.012 16.107 60.956 16.55C60.897 16.992 60.936 17.376 61.067 17.7C61.195 18.024 61.435 18.28 61.782 18.467C62.132 18.653 62.615 18.746 63.236 18.746C63.881 18.746 64.431 18.653 64.888 18.467C65.345 18.28 65.745 18.024 66.087 17.7C66.427 17.376 66.712 16.992 66.943 16.55C67.173 16.107 67.375 15.621 67.547 15.091L72.317 0.410997H77.672L72.903 15.091C72.468 16.428 71.874 17.533 71.119 18.408C70.364 19.282 69.506 19.974 68.548 20.486C67.588 20.996 66.57 21.34 65.496 21.515C64.421 21.695 63.34 21.782 62.249 21.782C61.159 21.782 60.13 21.703 59.165 21.546C58.2 21.39 57.398 21.07 56.76 20.588C56.125 20.107 55.712 19.424 55.53 18.54C55.345 17.655 55.483 16.505 55.944 15.091L60.714 0.410997H66.067L61.301 15.091ZM39.054 14.545C38.815 15.538 38.729 16.343 38.79 16.963C38.849 17.582 39.073 18.034 39.465 18.318C39.854 18.603 40.447 18.746 41.241 18.746C42.034 18.746 42.72 18.603 43.295 18.318C43.87 18.034 44.389 17.582 44.851 16.963C45.312 16.343 45.747 15.538 46.158 14.545C46.567 13.555 47.002 12.35 47.46 10.934C47.92 9.52 48.267 8.322 48.5 7.338C48.73 6.359 48.818 5.552 48.763 4.922C48.708 4.293 48.485 3.835 48.092 3.551C47.703 3.268 47.11 3.124 46.317 3.124C45.522 3.124 44.837 3.268 44.261 3.551C43.688 3.835 43.167 4.293 42.699 4.922C42.236 5.552 41.799 6.359 41.395 7.338C40.988 8.322 40.557 9.52 40.097 10.934C39.638 12.35 39.289 13.555 39.054 14.545ZM43.893 21.457C42.83 21.675 41.618 21.782 40.255 21.782C38.246 21.782 36.73 21.528 35.707 21.015C34.681 20.507 34.01 19.769 33.689 18.807C33.371 17.84 33.334 16.693 33.584 15.357C33.833 14.019 34.216 12.546 34.74 10.934C35.258 9.343 35.829 7.874 36.451 6.528C37.074 5.183 37.86 4.027 38.805 3.065C39.75 2.101 40.905 1.352 42.273 0.808998C43.637 0.269999 45.324 -1.90735e-06 47.332 -1.90735e-06C49.34 -1.90735e-06 50.851 0.269999 51.866 0.808998C52.88 1.352 53.546 2.101 53.869 3.065C54.186 4.027 54.221 5.183 53.969 6.528C53.72 7.874 53.332 9.343 52.816 10.934C52.235 12.723 51.585 14.345 50.864 15.799C50.143 17.253 49.186 18.479 47.993 19.483L50.139 21.695L46.24 23.963L43.893 21.457ZM27.885 0.410997H33.241L26.403 21.457H21.046L27.885 0.410997ZM11.48 9.934C12.547 9.934 13.491 9.678 14.315 9.166C15.136 8.657 15.724 7.86 16.075 6.777C16.421 5.719 16.396 4.912 16.006 4.362C15.613 3.812 14.749 3.537 13.41 3.537H11.18L9.1 9.934H11.48ZM16.21 0.410997C17.574 0.410997 18.659 0.595999 19.472 0.957998C20.284 1.321 20.881 1.797 21.26 2.387C21.637 2.977 21.829 3.65 21.83 4.405C21.83 5.162 21.705 5.934 21.451 6.721C21.098 7.801 20.588 8.746 19.917 9.549C19.245 10.356 18.461 11.015 17.565 11.525C16.666 12.037 15.656 12.42 14.532 12.674C13.408 12.93 12.212 13.057 10.948 13.057H8.084L5.356 21.457H0L6.836 0.410997H16.21Z" fill="black"/>
</svg>
