<svg width="165" height="24" viewBox="0 0 165 24" fill="none" xmlns="http://www.w3.org/2000/svg">
<path d="M21.2559 2C23.4722 2.00019 24.7773 3.80455 23.4922 6.22363C23.4922 6.22363 22.5413 8.03869 21.3369 9.80273C19.6668 12.2523 17.7534 12.9277 12.7432 12.9277H10.2529L5.41504 22H0L10.6074 2H21.2559ZM52.5908 2L52.5693 2.01074C54.8741 2.01074 55.6947 4.02697 54.3555 6.47656L53.7529 7.58496C52.0199 10.769 49.1152 10.6801 49.0713 10.7002C49.3524 10.9729 51.1883 12.2226 50.0264 14.3789L45.8838 22H40.1738L45.5098 12.1816H40.9629L35.627 22H30L40.8799 2H52.5908ZM82.6426 2C84.8997 2.00019 85.6692 3.97628 84.3662 6.39551L77.7686 18.6738L75.9834 22H64.3574C62.1004 21.9998 61.331 20.0246 62.6338 17.6055L69.2314 5.32715L71.0166 2H82.6426ZM112.257 2C114.472 2.00009 115.777 3.80444 114.492 6.22363C114.492 6.22363 113.542 8.03867 112.338 9.80273C110.669 12.2523 108.756 12.9277 103.748 12.9277H101.259L96.4131 22H91L101.603 2H112.257ZM142.319 5.28613H134.854L132.881 9.1377H139.682L138.353 11.7383H131.553L128.035 18.623H135.5L133.771 22H121L131.229 2H144L142.319 5.28613ZM156.239 18.623H163.942L162.16 22H149L159.553 2H165L156.239 18.623ZM68.0615 17.8975C67.9898 18.0384 67.9493 18.1695 67.9492 18.2803C67.9492 18.4012 67.9697 18.4919 68.0312 18.5625C68.1031 18.6532 68.2158 18.7041 68.3799 18.7041H72.166L78.9482 6.09277C79.02 5.95169 79.0615 5.82081 79.0615 5.70996C79.0615 5.59908 79.0411 5.50806 78.9795 5.4375C78.9077 5.33673 78.794 5.28613 78.6299 5.28613H74.8438L68.0615 17.8975ZM44.6592 5.37695L42.4268 9.5H44.8662C46.2262 9.5 47.4518 8.64369 48.0332 7.5752C48.2304 7.21231 48.4585 6.81884 48.6973 6.36523V6.35547C48.9568 5.8817 48.6455 5.37699 47.9707 5.37695H44.6592ZM12.1357 9.43945H14.1807C15.5066 9.4394 17.0247 8.88522 17.6826 7.80664C17.9052 7.43377 18.067 7.20183 18.3301 6.73828V6.74805C18.6235 6.24408 18.4012 5.50899 17.7334 5.50879H14.1807L12.1357 9.43945ZM103.131 9.43945H105.175C106.5 9.43936 108.017 8.88516 108.675 7.80664C108.897 7.43371 109.049 7.20185 109.322 6.73828V6.74805C109.616 6.24402 109.393 5.50879 108.726 5.50879H105.175L103.131 9.43945Z" fill="black"/>
</svg>
