<svg width="136" height="24" viewBox="0 0 136 24" fill="none" xmlns="http://www.w3.org/2000/svg">
<path fill-rule="evenodd" clip-rule="evenodd" d="M10.8696 2H22.5801L22.5697 2.01008C24.8744 2.01008 25.6945 4.03527 24.3553 6.48363L23.7532 7.59194C22.1425 10.5499 19.5192 10.6815 19.1217 10.7015C19.0914 10.703 19.074 10.7039 19.0711 10.7053C19.0969 10.7304 19.1361 10.7639 19.1849 10.8056C19.6651 11.2158 21.0816 12.4258 20.0262 14.3829L15.8839 22H10.174L15.5102 12.1864H10.963L5.62685 22H0L10.8696 2ZM18.0225 7.57179C18.2302 7.20907 18.4482 6.81612 18.6869 6.36272V6.35264C18.9465 5.87909 18.635 5.37532 17.9602 5.37532H14.6485L12.4164 9.49622H14.8561C16.2161 9.49622 17.4412 8.6398 18.0225 7.57179ZM42.0166 11.733H49.1096L50.4955 9.1335H43.4025L45.4611 5.29471H53.2369L55 2H41.6803L31 22H44.3197L46.1236 18.6146H38.3376L42.0166 11.733ZM100.676 13.3508L101.711 11.4153L102.48 9.99395H95.3658L93.5615 13.3508H95.9399L93.9613 17.0302L93.5615 17.7762C93.3155 18.2298 92.7824 18.5927 92.3621 18.5927H88.4255C88.1385 18.5927 87.9744 18.4214 87.9847 18.1694C87.9847 18.0585 88.0257 17.9274 88.0975 17.7964V17.7863L94.2996 6.22379C94.3406 6.14314 94.4021 6.0625 94.4636 5.98185C94.5251 5.90121 94.5969 5.83064 94.6687 5.77016C94.925 5.54839 95.2325 5.40726 95.4888 5.40726H99.4254C99.6099 5.40726 99.7432 5.47782 99.8047 5.58871C99.8047 5.60092 99.8122 5.60943 99.8204 5.61872C99.8258 5.62477 99.8314 5.63116 99.8354 5.63911C99.8969 5.79032 99.8662 5.99194 99.7432 6.21371L99.1896 7.24193H103.916L104.367 6.40524C105.669 3.97581 104.9 2 102.644 2H95.0992C92.8439 2 89.953 3.97581 88.6408 6.40524L82.6334 17.5948C81.3315 20.0242 82.1003 22 84.3556 22H91.9008C94.1561 22 97.0573 20.0242 98.3592 17.5948L98.6975 16.9698L100.635 13.3508H100.676ZM60 22L70.5891 2H76L65.4008 22H60ZM133.619 2H121.848L111 22H116.626L125.693 5.28629H129.475C129.64 5.28629 129.754 5.33669 129.827 5.4375C129.889 5.50806 129.91 5.59879 129.91 5.70968C129.91 5.82056 129.868 5.95161 129.796 6.09274L121.165 22H126.894L135.36 6.39516C136.676 3.97581 135.899 2 133.619 2Z" fill="black"/>
</svg>
