<svg width="184" height="24" viewBox="0 0 184 24" fill="none" xmlns="http://www.w3.org/2000/svg">
<path d="M40.8893 11.6582H47.8463L49.2063 9.08116H42.2483L44.2663 5.26316H51.9043L53.6273 2.00016H40.5573L30.0823 21.8422H43.1503L44.9213 18.4882H37.2853L40.8893 11.6582Z" fill="black"/>
<path d="M97.7316 13.27L98.7446 11.351L99.4926 9.93602H92.5556L90.7956 13.27H93.1146L91.1856 16.921H91.1936L90.8056 17.658C90.5686 18.105 90.0456 18.467 89.6346 18.467H85.7976C85.5156 18.467 85.3616 18.297 85.3706 18.042C85.3736 17.933 85.4096 17.805 85.4796 17.669C85.4826 17.666 85.4826 17.662 85.4866 17.658L91.5396 6.18602C91.5846 6.10102 91.6406 6.02202 91.7016 5.94502C91.7636 5.86802 91.8326 5.79802 91.9056 5.73302C92.1536 5.51802 92.4546 5.37402 92.7106 5.37402H96.5486C96.7256 5.37402 96.8546 5.44402 96.9206 5.56002C96.9306 5.57602 96.9396 5.59302 96.9456 5.61402C97.0026 5.76002 96.9796 5.96102 96.8606 6.18602L96.3236 7.20202H100.937L101.376 6.37002C102.649 3.96002 101.894 2.00002 99.6946 2.00002H92.3346C90.1336 2.00002 87.3106 3.96002 86.0386 6.37002L80.1766 17.472C78.9046 19.882 79.6576 21.843 81.8596 21.843H89.2176C91.4176 21.843 94.2436 19.882 95.5136 17.472L95.8406 16.856H95.8386L97.7316 13.27Z" fill="black"/>
<path d="M68.2838 2.00053L57.8058 21.8425H63.1518L73.6268 2.00053H68.2838Z" fill="black"/>
<path d="M129.779 2.00053H118.417L107.944 21.8425H113.373L122.127 5.26353H125.772C125.928 5.26353 126.043 5.31653 126.114 5.41053C126.17 5.48053 126.197 5.57453 126.193 5.68453C126.19 5.79753 126.152 5.92653 126.081 6.06553L117.749 21.8425H123.281L131.455 6.35853C132.725 3.95553 131.972 2.00053 129.779 2.00053Z" fill="black"/>
<path d="M18.004 6.32662C17.77 6.77862 17.559 7.16662 17.368 7.53162C16.813 8.58862 15.628 9.44062 14.318 9.44062H11.964L14.11 5.35362H17.3C17.955 5.35362 18.248 5.85162 18.004 6.32662ZM21.753 2.00062H10.476L0 21.8426H5.422L10.564 12.1036H14.948L9.806 21.8426H15.309L19.301 14.2786C20.419 12.1346 18.654 10.8986 18.382 10.6276C18.421 10.6066 21.226 10.6966 22.896 7.53262L23.475 6.43562C24.762 4.00162 23.976 2.00062 21.753 2.00062Z" fill="black"/>
<path d="M158.73 7.22514L159.92 8.02314L155.271 16.8271L152.624 21.8431L165.069 8.33614L163.901 7.55314L165.111 5.26314H172.835L174.558 2.00014H161.486L158.73 7.22514ZM163.938 11.6571L160.329 18.4871H167.463L165.692 21.8431H154.553L163.938 11.6571L166.311 9.08114L170.148 9.08214L168.789 11.6571H163.938Z" fill="black"/>
<path d="M175.722 11.5313H172.71L173.938 9.21035H176.951L178.624 6.05035H181.76L180.087 9.21035H183.099L181.871 11.5313H178.858L177.19 14.6833H174.053L175.722 11.5313Z" fill="black"/>
</svg>
