<svg width="223" height="24" viewBox="0 0 223 24" fill="none" xmlns="http://www.w3.org/2000/svg">
<path d="M40.985 11.6595H47.941L49.302 9.08151H42.344L44.362 5.26351H51.999L53.723 2.00151H40.652L30.175 21.8435H43.245L45.017 18.4885H37.38L40.985 11.6595Z" fill="black"/>
<path d="M135.132 2.00138H129.723L119.249 21.8434H132.318L134.089 18.4884H126.431L135.132 2.00138Z" fill="black"/>
<path d="M107.527 6.06577L100.919 18.5778H97.2285C97.0705 18.5778 96.9565 18.5258 96.8855 18.4348C96.8295 18.3638 96.8035 18.2708 96.8055 18.1588C96.8115 18.0478 96.8465 17.9158 96.9195 17.7778L103.526 5.26477H107.218C107.374 5.26477 107.491 5.31877 107.56 5.41077C107.615 5.48077 107.642 5.57377 107.637 5.68177C107.636 5.79577 107.599 5.92577 107.527 6.06577ZM111.133 2.00177H105.152H99.7995L98.0565 5.30577L91.6255 17.4838C90.3585 19.8878 91.1095 21.8428 93.3055 21.8428H99.0825H104.638L106.381 18.5398L112.81 6.35877C114.081 3.95577 113.328 2.00177 111.133 2.00177Z" fill="black"/>
<path d="M18.006 6.32651C17.772 6.77751 17.56 7.16751 17.369 7.53251C16.814 8.58851 15.63 9.44151 14.318 9.44151H11.965L14.112 5.35451H17.302C17.957 5.35451 18.249 5.85251 18.006 6.32651ZM21.755 2.00151H10.477L0 21.8435H5.422L10.566 12.1045H14.95L9.807 21.8435H15.31L19.303 14.2795C20.421 12.1355 18.655 10.8995 18.384 10.6275C18.423 10.6065 21.227 10.6965 22.898 7.53251L23.476 6.43551C24.763 4.00251 23.978 2.00151 21.755 2.00151Z" fill="black"/>
<path d="M172.736 2.00138H157.378L155.624 5.32838H160.666L151.947 21.8434H157.154L165.874 5.32838H170.979L172.736 2.00138Z" fill="black"/>
<path d="M80.1325 2.00138L69.7625 16.0914L72.9765 2.00138H68.5385L64.0105 21.8434H65.5285H67.8345C69.6225 21.8434 70.7215 21.3554 71.4245 20.3994C72.1295 19.4434 84.9655 2.00138 84.9655 2.00138H80.1325Z" fill="black"/>
<path d="M197.768 7.22502L198.958 8.02302L194.309 16.827L191.662 21.843L204.107 8.33602L202.939 7.55302L204.149 5.26302H211.873L213.596 2.00002H200.524L197.768 7.22502ZM202.976 11.657L199.367 18.487H206.501L204.73 21.843H193.591L202.976 11.657L205.349 9.08102L209.186 9.08202L207.827 11.657H202.976Z" fill="black"/>
<path d="M214.76 11.5312H211.748L212.976 9.21023H215.989L217.662 6.05023H220.798L219.125 9.21023H222.137L220.909 11.5312H217.896L216.228 14.6832H213.091L214.76 11.5312Z" fill="black"/>
</svg>
