<svg width="175" height="24" viewBox="0 0 175 24" fill="none" xmlns="http://www.w3.org/2000/svg">
<path d="M22.0396 2.00977C24.2749 2.00997 25.07 4.02468 23.771 6.47168L23.187 7.5791C21.5052 10.7612 18.6853 10.6703 18.645 10.6904C18.9169 10.9623 20.6994 12.2113 19.5718 14.3662L15.5542 21.9795H10.0151L15.1909 12.1709H10.7808L5.604 21.9795H0.145996L10.6997 2H22.0591L22.0396 2.00977ZM52.5122 5.2832H44.8286L42.7944 9.12988H49.8032L48.4341 11.7285H41.4243L37.7993 18.6064H45.4829L43.7007 21.9795H30.5386L41.0923 2H54.2544L52.5122 5.2832ZM73.6401 2L70.4077 16.1895L80.8511 2H85.7046C85.7046 2 72.775 19.5609 72.0688 20.5293C71.3639 21.486 70.2562 21.9795 68.4536 21.9795H64.6069L69.1685 2H73.6401ZM112.069 2C114.284 2 115.04 3.97384 113.761 6.39062L107.286 18.6562L105.534 21.9795H94.1235C91.908 21.9795 91.1522 20.0058 92.4312 17.5889L98.9067 5.32324L100.659 2H112.069ZM127.477 18.6064H135.181L133.398 21.9795H120.237L130.791 2H136.239L127.477 18.6064ZM172.34 5.35352H167.195L158.414 21.9795H153.167L161.948 5.35352H156.873L158.635 2H174.103L172.34 5.35352ZM97.7485 17.8809C97.6781 18.0218 97.6382 18.1529 97.6382 18.2637C97.6382 18.3845 97.6579 18.4754 97.7183 18.5459C97.7888 18.6365 97.8999 18.6865 98.061 18.6865H101.777L108.433 6.08887C108.504 5.94793 108.544 5.81681 108.544 5.70605C108.544 5.59528 108.524 5.50409 108.463 5.43359C108.393 5.33324 108.282 5.28326 108.122 5.2832H104.405L97.7485 17.8809ZM12.2007 9.50293H14.5669C15.8861 9.50292 17.0843 8.6465 17.6382 7.5791C17.8295 7.20649 18.0511 6.81352 18.2827 6.36035C18.5344 5.88705 18.2322 5.38379 17.5776 5.38379H14.3657L12.2007 9.50293Z" fill="black"/>
</svg>
