<svg width="119" height="24" viewBox="0 0 119 24" fill="none" xmlns="http://www.w3.org/2000/svg">
<path d="M115.881 2C118.086 2.0001 118.851 3.97377 117.572 6.39062L109.345 21.9795H105.155L112.971 7.23633C113.041 7.09548 113.081 6.96419 113.081 6.85352C113.081 6.74301 113.051 6.65241 113.001 6.58203C112.93 6.4914 112.819 6.44141 112.658 6.44141H110.463L102.235 21.9902H98.3174L106.133 7.24707C106.203 7.10617 106.243 6.97499 106.243 6.86426C106.243 6.75348 106.224 6.66229 106.163 6.5918C106.093 6.5012 105.981 6.45118 105.82 6.45117H103.574L95.3467 22H90.7549L101.309 2.02051H115.891L115.881 2ZM21.9131 2L21.8936 2.00977C24.1289 2.00997 24.924 4.02468 23.625 6.47168L23.041 7.5791C21.3592 10.7613 18.5393 10.6703 18.499 10.6904C18.7709 10.9623 20.5534 12.2113 19.4258 14.3662L15.4072 21.9795H9.86914L15.0449 12.1709H10.6338L5.45801 21.9795H0L10.5537 2H21.9131ZM52.2256 2C54.4408 2.00021 55.1958 3.97387 53.917 6.39062L47.4414 18.6562L45.6895 21.9795H34.2793C32.064 21.9793 31.309 20.0057 32.5879 17.5889L39.0635 5.32324L40.8154 2H52.2256ZM82.5068 2.02051L82.5176 2.00977C84.7226 2.00996 85.4778 3.98379 84.1992 6.40039L75.9414 21.9697H70.5537L75.3164 12.9873H70.6338L65.8711 21.96H60.4834L71.0566 2L82.5068 2.02051ZM37.915 17.8916C37.8447 18.0323 37.8048 18.1628 37.8047 18.2734C37.8047 18.3942 37.8245 18.4852 37.8848 18.5557C37.9553 18.6463 38.0664 18.6973 38.2275 18.6973H41.9434L48.5996 6.09863C48.6701 5.95765 48.7109 5.8266 48.7109 5.71582C48.7109 5.60517 48.6902 5.51478 48.6299 5.44434C48.5594 5.3437 48.449 5.29303 48.2881 5.29297H44.5723L37.915 17.8916ZM72.0039 10.3984H76.6865L78.9619 6.09863H78.9727C79.0431 5.9577 79.083 5.82656 79.083 5.71582C79.093 5.46416 78.9421 5.2832 78.6602 5.2832H74.7129L72.0039 10.3984ZM14.2197 5.37402L12.0547 9.49219H14.4209C15.7399 9.49212 16.9282 8.63662 17.4922 7.56934C17.6835 7.2068 17.9051 6.81352 18.1367 6.36035V6.35059C18.3885 5.87727 18.0862 5.37402 17.4316 5.37402H14.2197Z" fill="black"/>
</svg>
