<svg width="169" height="24" viewBox="0 0 169 24" fill="none" xmlns="http://www.w3.org/2000/svg">
<path d="M78.4043 6.0736L76.1413 10.3456L74.9953 10.3446L72.6413 10.3406L71.4933 10.3396L74.1803 5.2656L78.0983 5.2706C78.3753 5.2726 78.5263 5.4406 78.5173 5.6916C78.5133 5.8046 78.4783 5.9346 78.4043 6.0736ZM81.9253 2.0176L70.5573 2.0006L60.0573 21.8196L65.4063 21.8286L70.1313 12.9106L71.2753 12.9116L73.6313 12.9156L74.7773 12.9186L70.0513 21.8356L75.4003 21.8436L83.5953 6.3786C84.8673 3.9756 84.1173 2.0216 81.9253 2.0176Z" fill="black"/>
<path d="M115.079 2.00047H100.598L90.1218 21.8435H94.6838L102.855 6.40248H105.083C105.239 6.40248 105.358 6.45648 105.428 6.54747C105.484 6.61847 105.51 6.71247 105.507 6.82148C105.503 6.93548 105.466 7.06347 105.393 7.20247L97.6378 21.8435H101.524L109.694 6.40248H111.874C112.032 6.40248 112.148 6.45648 112.218 6.54747C112.272 6.61847 112.3 6.71247 112.297 6.82148C112.291 6.93548 112.256 7.06347 112.183 7.20247L104.427 21.8435H108.585L116.759 6.36048C118.028 3.95648 117.273 2.00047 115.079 2.00047Z" fill="black"/>
<path d="M48.253 6.06586L41.645 18.5769H37.955C37.798 18.5769 37.683 18.5249 37.612 18.4349C37.556 18.3639 37.53 18.2709 37.533 18.1599C37.538 18.0469 37.574 17.9159 37.646 17.7779L44.253 5.26386H47.944C48.1 5.26386 48.217 5.31786 48.286 5.41086C48.342 5.47986 48.368 5.57386 48.364 5.68086C48.362 5.79486 48.325 5.92586 48.253 6.06586ZM51.86 2.00086H45.878H40.527L38.784 5.30486L32.352 17.4829C31.085 19.8869 31.836 21.8429 34.032 21.8429H39.809H45.364L47.107 18.5389L53.536 6.35886C54.807 3.95586 54.054 2.00086 51.86 2.00086Z" fill="black"/>
<path d="M18.006 6.3266C17.772 6.7786 17.56 7.1676 17.369 7.5306C16.814 8.5886 15.63 9.4406 14.318 9.4406H11.965L14.112 5.3546H17.302C17.957 5.3546 18.249 5.8516 18.006 6.3266ZM21.754 2.0006H10.477L0 21.8436H5.422L10.566 12.1036H14.95L9.807 21.8436H15.31L19.303 14.2786C20.421 12.1346 18.655 10.8986 18.383 10.6276C18.423 10.6066 21.227 10.6956 22.898 7.5326L23.476 6.4346C24.763 4.0016 23.978 2.0006 21.754 2.0006Z" fill="black"/>
<path d="M143.954 7.22499L145.144 8.02299L140.495 16.827L137.848 21.843L150.293 8.33599L149.125 7.55299L150.335 5.26299H158.059L159.782 1.99999H146.71L143.954 7.22499ZM149.162 11.657L145.553 18.487H152.687L150.916 21.843H139.777L149.162 11.657L151.535 9.08099L155.372 9.08199L154.013 11.657H149.162Z" fill="black"/>
<path d="M160.946 11.5313H157.934L159.162 9.21032H162.175L163.848 6.05032H166.984L165.311 9.21032H168.323L167.095 11.5313H164.082L162.414 14.6833H159.277L160.946 11.5313Z" fill="black"/>
</svg>
