<svg width="71" height="24" viewBox="0 0 71 24" fill="none" xmlns="http://www.w3.org/2000/svg">
<path d="M65.396 17.7055L62.549 22.0005H51.773L58.195 2.15749H70.428L67.581 6.45249H61.213L59.927 10.4235H66.295L65.224 13.7335H58.857L57.571 17.7055H65.396ZM55.004 2.15749L42.465 22.0005H37.58L37.908 2.15749H42.77L42.587 14.0565L50.118 2.15749H55.004ZM25.423 17.7055L29.065 6.45249H25.636L21.994 17.7055H25.423ZM29.072 20.0145C28.901 20.5415 28.604 21.0045 28.181 21.4025C27.765 21.8015 27.362 22.0005 26.972 22.0005H17.665C17.275 22.0005 16.997 21.8015 16.831 21.4025C16.665 21.0045 16.668 20.5415 16.839 20.0145L21.975 4.14349C22.146 3.61649 22.443 3.15349 22.866 2.75449C23.29 2.35649 23.696 2.15749 24.087 2.15749H33.394C33.784 2.15749 34.058 2.35649 34.216 2.75449C34.381 3.15349 34.379 3.61649 34.208 4.14349L29.072 20.0145ZM12.723 22.0005H8.816L8.644 10.4235H11.583L12.868 6.45249H9.439L4.408 22.0005H0L6.42101 2.15749H17.197C17.587 2.15749 17.862 2.35649 18.02 2.75449C18.185 3.15349 18.183 3.61649 18.012 4.14349L15.551 11.7475C15.38 12.2755 15.083 12.7385 14.66 13.1365C14.244 13.5345 13.841 13.7335 13.451 13.7335H12.59L12.723 22.0005Z" fill="black"/>
</svg>
