<svg width="111" height="24" viewBox="0 0 111 24" fill="none" xmlns="http://www.w3.org/2000/svg">
<path d="M107.023 6.96449L108 3.94449H105.219L104.242 6.96449H101.346L100.125 10.7365H103.021L102.044 13.7565H104.825L105.802 10.7365H108.698L109.919 6.96449H107.023ZM95.216 17.7055L92.368 22.0005H81.592L88.014 2.15749H100.247L97.4 6.45249H91.032L89.747 10.4235H96.115L95.043 13.7335H88.675L87.39 17.7055H95.216ZM65.396 17.7055L62.549 22.0005H51.773L58.195 2.15749H70.428L67.581 6.45249H61.213L59.928 10.4235H66.295L65.224 13.7335H58.857L57.571 17.7055H65.396ZM55.004 2.15749L42.466 22.0005H37.58L37.908 2.15749H42.771L42.588 14.0565L50.118 2.15749H55.004ZM25.423 17.7055L29.065 6.45249H25.636L21.994 17.7055H25.423ZM29.072 20.0145C28.901 20.5415 28.604 21.0045 28.181 21.4025C27.765 21.8015 27.362 22.0005 26.972 22.0005H17.665C17.275 22.0005 16.997 21.8015 16.831 21.4025C16.666 21.0045 16.668 20.5415 16.839 20.0145L21.975 4.14349C22.146 3.61649 22.443 3.15349 22.867 2.75449C23.29 2.35649 23.697 2.15749 24.087 2.15749H33.394C33.784 2.15749 34.058 2.35649 34.216 2.75449C34.382 3.15349 34.38 3.61649 34.209 4.14349L29.072 20.0145ZM12.723 22.0005H8.817L8.645 10.4235H11.584L12.869 6.45249H9.44L4.408 22.0005H0L6.42101 2.15749H17.197C17.587 2.15749 17.862 2.35649 18.02 2.75449C18.185 3.15349 18.183 3.61649 18.012 4.14349L15.551 11.7475C15.38 12.2755 15.083 12.7385 14.66 13.1365C14.244 13.5345 13.841 13.7335 13.451 13.7335H12.591L12.723 22.0005Z" fill="black"/>
</svg>
