<svg width="77" height="24" viewBox="0 0 77 24" fill="none" xmlns="http://www.w3.org/2000/svg">
<path fill-rule="evenodd" clip-rule="evenodd" d="M16.2932 2C22.0742 2.00057 23.0254 2.52626 21.09 6.15332L20.3254 7.59473H15.2014L15.966 6.15332C16.7108 4.77227 16.8494 4.55078 14.9328 4.55078C13.0167 4.55081 12.9274 4.77237 12.1926 6.15332L11.1701 8.0791C10.634 9.08696 10.5541 9.26815 12.6887 10.0039C17.8028 11.7781 18.0509 12.2019 16.7004 14.7422L15.0324 17.877C13.0961 21.5059 11.6066 22 5.63888 22C0.0183889 22 -0.975464 21.3042 0.801961 17.877L2.82833 13.9961H8.05196L5.98555 17.877C5.26075 19.2275 5.11222 19.4795 6.97872 19.4795C8.84562 19.4795 8.99502 19.2378 9.71993 17.877L11.2893 14.9434C11.9941 13.6332 12.2023 13.3607 9.99825 12.5947C4.91392 10.8407 4.73516 10.2763 5.93673 8.02832L6.93966 6.15332C8.87492 2.5164 10.3239 2.0006 16.2932 2ZM46.6438 2.02051C48.8999 2.02065 49.6689 3.99644 48.3664 6.42578L47.9152 7.26172H43.1867L43.7414 6.2334C43.8642 6.00182 43.8946 5.8005 43.8332 5.64941C43.8332 5.63933 43.823 5.61879 43.8127 5.59863C43.7512 5.48795 43.6181 5.41711 43.4338 5.41699H39.5461C39.2897 5.41706 38.9719 5.55855 38.7258 5.78027C38.6438 5.84075 38.5715 5.91155 38.51 5.99219C38.4486 6.06262 38.3971 6.1429 38.3459 6.2334L32.1311 17.8066C32.0593 17.9376 32.0188 18.0688 32.0188 18.1797C32.0189 18.4315 32.1722 18.6025 32.4592 18.6025H36.3459C36.7664 18.6025 37.3102 18.2398 37.5461 17.7861L37.9768 16.9795H42.7053L42.3664 17.5947C41.0536 20.0241 38.1618 21.9999 35.9055 22H28.3566C26.1005 21.9999 25.3315 20.0241 26.634 17.5947L32.6438 6.40527C33.9565 3.97584 36.8493 2 39.1057 2H46.6535L46.6438 2.02051ZM74.5695 2C76.8743 2 77.6949 4.01623 76.3557 6.46582L75.7531 7.57422C74.0229 10.7634 71.1243 10.6795 71.0715 10.6992C71.3518 10.9714 73.1891 12.2217 72.0266 14.3789L67.884 22H62.174L67.51 12.1816H62.9631L57.6272 22H52.0002L62.8801 2H74.5695ZM66.6594 5.37695L64.427 9.5H66.8664C68.2264 9.5 69.452 8.64277 70.0334 7.57422C70.2306 7.21149 70.4588 6.81859 70.6975 6.36523V6.35449C70.9568 5.88079 70.6456 5.37698 69.9709 5.37695H66.6594Z" fill="black"/>
</svg>
