<svg width="102" height="38" viewBox="0 0 102 38" fill="none" xmlns="http://www.w3.org/2000/svg">
<path d="M71.8613 21.7515L101.395 7.11255H95.3003L69.8653 19.6795L71.5923 17.2125L69.4223 14.9825L60.8783 27.2015L64.7153 27.0475L67.8813 22.5195L87.5543 33.6125L80.9573 26.8345L71.8613 21.7515Z" fill="black"/>
<path d="M35.683 14.14L17.103 12.775L37.36 2.34399L33.285 2L8.563 12.834L10.99 15.328L29.115 17.193L1.411 33.109L0 36.271L38.119 16.643L35.683 14.14Z" fill="black"/>
<path d="M31.5679 23.5122L36.1289 28.1982L41.2759 27.9912L42.8929 25.6782H38.9779L36.8239 23.5052L44.3549 23.5912L46.1009 21.0902H36.2719L31.5679 23.5122Z" fill="black"/>
<path d="M47.4293 19.1902L48.9783 16.9742H44.2663L39.9623 19.1902H47.4293Z" fill="black"/>
<path d="M47.5496 23.4865L52.0706 28.1985L57.2176 27.9915L58.8346 25.6785H54.9196L52.7666 23.5055L60.2966 23.5915L62.0426 21.0905H49.2246L47.5496 23.4865Z" fill="black"/>
<path d="M63.3713 19.1902L64.9203 16.9742H52.1033L50.5533 19.1902H63.3713Z" fill="black"/>
</svg>
