<svg width="222" height="24" viewBox="0 0 222 24" fill="none" xmlns="http://www.w3.org/2000/svg">
<path d="M76.0217 6.07704L73.7597 10.349L72.6117 10.347L70.2587 10.343L69.1107 10.342L71.7987 5.26804L75.7157 5.27504C75.9917 5.27604 76.1437 5.44504 76.1357 5.69404C76.1317 5.80804 76.0957 5.93804 76.0217 6.07704ZM79.5427 2.02104L68.1757 2.00304L57.6747 21.822L63.0227 21.83L67.7497 12.913L68.8927 12.914L71.2497 12.918L72.3947 12.92L67.6697 21.838L73.0187 21.846L81.2127 6.38104C82.4847 3.97904 81.7357 2.02504 79.5427 2.02104Z" fill="black"/>
<path d="M139.685 2.00328H132.325C130.127 2.00328 127.302 3.96628 126.03 6.37328L120.17 17.4733C118.898 19.8853 119.653 21.8463 121.853 21.8463H129.21C131.41 21.8463 134.235 19.8853 135.507 17.4733L135.831 16.8583H131.219L130.795 17.6563C130.562 18.1073 130.037 18.4703 129.628 18.4703H125.833C125.555 18.4703 125.398 18.2993 125.406 18.0453C125.411 17.9343 125.446 17.8073 125.515 17.6723C125.52 17.6653 131.576 6.19128 131.576 6.19128C131.621 6.10628 131.675 6.02428 131.737 5.94828C131.797 5.87228 131.867 5.80128 131.943 5.73628C132.188 5.52028 132.49 5.38028 132.747 5.38028H136.539C136.718 5.38028 136.846 5.44828 136.912 5.56328C136.922 5.58128 136.93 5.60028 136.936 5.61728C136.996 5.76428 136.97 5.96928 136.851 6.19128L136.314 7.20628H140.928L141.366 6.37328C142.639 3.96628 141.884 2.00328 139.685 2.00328Z" fill="black"/>
<path d="M158.684 11.6615H165.642L167.002 9.08453H160.043L162.061 5.26553H169.699L171.422 2.00353H158.353L147.876 21.8465H160.945L162.717 18.4905H155.08L158.684 11.6615Z" fill="black"/>
<path d="M109.627 2.00328H98.2646L87.7906 21.8463H93.2206L101.974 5.26728H105.62C105.775 5.26728 105.891 5.32028 105.961 5.41328C106.018 5.48328 106.045 5.57828 106.04 5.68728C106.037 5.80028 106.001 5.92928 105.928 6.06828L97.5956 21.8463H103.128L111.302 6.36228C112.572 3.95928 111.82 2.00328 109.627 2.00328Z" fill="black"/>
<path d="M16.4049 2.00331C10.3879 2.00331 8.92393 2.51831 6.97893 6.11931L5.97193 7.98131C4.76693 10.2103 4.94493 10.7743 10.0649 12.5133C12.2899 13.2723 12.0699 13.5413 11.3689 14.8393L9.79293 17.7533C9.06493 19.1003 8.91793 19.3473 7.02993 19.3473C5.18393 19.3473 5.30193 19.1003 6.02993 17.7533L8.10893 13.9063H2.84493L0.807928 17.7533C-0.981072 21.1533 0.0149279 21.8453 5.67793 21.8453C11.6919 21.8453 13.1879 21.3553 15.1349 17.7533L16.8139 14.6443C18.1789 12.1203 17.9229 11.7043 12.7729 9.94031C10.6229 9.20731 10.6999 9.03331 11.2439 8.02931L12.2759 6.11931C13.0179 4.74731 13.1089 4.52531 15.0399 4.52531C16.9689 4.52531 16.8249 4.74731 16.0819 6.11931L15.3099 7.55031H20.4739L21.2469 6.11931C23.1939 2.51831 22.2429 2.00331 16.4049 2.00331Z" fill="black"/>
<path d="M53.4664 2.00328H38.1084L36.3544 5.33128H41.3964L32.6784 21.8463H37.8844L46.6034 5.33128H51.7094L53.4664 2.00328Z" fill="black"/>
<path d="M196.504 7.2284L197.694 8.02641L193.045 16.8304L190.398 21.8464L202.843 8.33941L201.675 7.55641L202.885 5.26641H210.609L212.332 2.0034H199.26L196.504 7.2284ZM201.712 11.6604L198.103 18.4904H205.237L203.466 21.8464H192.327L201.712 11.6604L204.085 9.0844L207.922 9.08541L206.563 11.6604H201.712Z" fill="black"/>
<path d="M213.496 11.5347H210.484L211.712 9.21374H214.725L216.398 6.05374H219.534L217.861 9.21374H220.873L219.645 11.5347H216.632L214.964 14.6867H211.827L213.496 11.5347Z" fill="black"/>
</svg>
