<svg width="173" height="24" viewBox="0 0 173 24" fill="none" xmlns="http://www.w3.org/2000/svg">
<path fill-rule="evenodd" clip-rule="evenodd" d="M17.0222 2C23.0844 2.00001 24.0708 2.52441 22.0466 6.15332L21.2468 7.59473H15.8904L16.6902 6.15332C17.4583 4.77236 17.6136 4.55078 15.6101 4.55078C13.6067 4.55079 13.5131 4.7723 12.7449 6.15332L11.6756 8.0791C11.1152 9.08673 11.0329 9.26814 13.2644 10.0039C18.6103 11.778 18.8696 12.2019 17.4578 14.7422L15.7136 17.877C13.6894 21.5059 12.1321 22 5.89333 22C0.0182214 22 -1.01947 21.3043 0.838643 17.877L2.95583 13.9961H8.39528L6.2361 17.877C5.47838 19.2276 5.31254 19.4795 7.27419 19.4795C9.23615 19.4795 9.38164 19.2378 10.1394 17.877L11.78 14.9434C12.5066 13.6332 12.7346 13.3607 10.4304 12.5947C5.11557 10.8407 4.92835 10.2762 6.18435 8.02832L7.23317 6.15332C9.25742 2.52434 10.773 2 17.0222 2ZM53.9998 2L52.2224 5.35645H47.0603L38.2527 22H32.9998L41.8074 5.35645H36.7068L38.4841 2H53.9998ZM80.6228 2.02051L80.6326 2.00977C82.8979 2.00977 83.6737 3.98671 82.3601 6.40723L73.8885 22H68.3543L73.2371 13.0039H68.4265L63.534 21.9902H57.9998L68.8611 2L80.6228 2.02051ZM110.714 2C112.902 2 113.649 3.97616 112.386 6.39551L104.259 22H98.7576L107.044 6.09277C107.113 5.95176 107.153 5.82079 107.153 5.70996C107.153 5.59907 107.133 5.50806 107.073 5.4375C107.003 5.33684 106.894 5.28613 106.735 5.28613H103.104L94.4011 22H88.9998L99.4138 2H110.714ZM140.745 2C142.904 2.00022 143.64 3.97598 142.393 6.40527L141.962 7.24219H137.437L137.967 6.22363C138.084 6.00196 138.114 5.8006 138.055 5.64941C138.055 5.63933 138.046 5.61879 138.036 5.59863C137.977 5.48778 137.849 5.417 137.673 5.41699H133.953C133.708 5.41699 133.403 5.5585 133.168 5.78027C133.089 5.84076 133.021 5.91154 132.962 5.99219C132.903 6.06264 132.853 6.14285 132.804 6.2334L126.857 17.8066C126.789 17.9377 126.749 18.0688 126.749 18.1797C126.749 18.4315 126.896 18.6024 127.171 18.6025H130.89C131.293 18.6025 131.813 18.2398 132.039 17.7861L132.451 16.9795H136.975L136.662 17.5947C135.406 20.0242 132.637 22 130.478 22H123.255C121.096 21.9998 120.36 20.024 121.606 17.5947L127.357 6.40527C128.604 3.97584 131.372 2 133.531 2H140.745ZM171.246 5.28613H163.457L161.397 9.13672H168.493L167.107 11.7383H160.011L156.341 18.623H164.13L162.325 22H149L159.675 2H173L171.246 5.28613ZM69.8338 10.4111H74.6433L76.9812 6.10449L76.992 6.11523C77.0644 5.97403 77.1052 5.84239 77.1052 5.73145C77.1155 5.47944 76.9602 5.29785 76.6707 5.29785H72.616L69.8338 10.4111Z" fill="black"/>
</svg>
