<svg width="345" height="24" viewBox="0 0 345 24" fill="none" xmlns="http://www.w3.org/2000/svg">
<path fill-rule="evenodd" clip-rule="evenodd" d="M110.179 2C112.414 2 113.21 4.01397 111.911 6.46094L111.327 7.56934C109.65 10.7532 106.84 10.6709 106.785 10.6904C107.057 10.9623 108.839 12.2112 107.711 14.3662L103.693 21.9902H98.1542L103.331 12.1816H98.9198L93.7431 21.9902H88.2851L98.8398 2.00977L110.179 2ZM197.983 2L189.595 17.8916C189.524 18.0322 189.484 18.1629 189.484 18.2734C189.484 18.3841 189.504 18.4852 189.564 18.5557C189.635 18.6564 189.746 18.707 189.907 18.707H193.602L202.415 2.00977H207.803L197.259 21.9902L186.06 21.9795C183.845 21.9795 183.089 20.0058 184.368 17.5889L192.596 2H197.983ZM264.066 2C266.302 2.00028 267.097 4.01405 265.798 6.46094L265.214 7.56934C263.532 10.7614 260.712 10.6703 260.672 10.6904C260.944 10.9623 262.726 12.2113 261.599 14.3662L257.58 21.9902H252.042L257.218 12.1816H252.807L247.631 21.9902H242.173L252.726 2.00977L264.066 2ZM337.802 5.29297H330.027L328.809 7.59961L329.987 8.38477L317.449 21.9902L320.118 16.9443L324.801 8.07227L323.602 7.2666H323.593L326.372 2.00977H339.534L337.802 5.29297ZM333.724 11.7383H328.845L325.214 18.6064H332.394L330.611 21.9902H319.393L328.839 11.7383L331.225 9.13965H335.093L333.724 11.7383ZM16.5136 2C22.3845 2.00001 23.3513 2.52408 21.3876 6.14941L20.6122 7.58887H15.4159L16.1913 6.14941C16.9466 4.76976 17.0871 4.54785 15.1435 4.54785C13.2001 4.54787 13.1094 4.76981 12.3642 6.14941L11.3271 8.07227C10.7833 9.07931 10.7029 9.26095 12.8681 9.99609C18.0542 11.7684 18.306 12.1918 16.9364 14.7295L15.2441 17.8613C13.2804 21.4863 11.7698 21.9795 5.71769 21.9795C0.0180068 21.9795 -0.989019 21.285 0.813397 17.8613L2.86808 13.9834H8.16496L6.07023 17.8613C5.33526 19.2105 5.18427 19.4619 7.07707 19.4619C8.97014 19.4619 9.1214 19.2205 9.85637 17.8613L11.4482 14.9307C12.1632 13.6215 12.3843 13.3493 10.1386 12.584C4.98298 10.8319 4.81126 10.2678 6.01945 8.02246L7.03703 6.14941C8.87802 2.75066 10.2853 2.07766 15.4491 2.00684L16.5136 2ZM52.0917 5.35352H46.9462L38.165 21.9795H32.9179L41.6991 5.35352H36.6239L38.3964 2H53.8544L52.0917 5.35352ZM80.1386 2C82.354 2 83.1098 3.97382 81.831 6.39062L75.3554 18.6562L73.6034 21.9795H62.1933C59.9778 21.9795 59.2219 20.0058 60.5009 17.5889L66.9765 5.32324L68.7284 2H80.1386ZM143.562 2C145.768 2 146.534 3.97381 145.255 6.39062L137.017 21.9795H132.827L140.643 7.23633C140.713 7.09548 140.753 6.96419 140.753 6.85352C140.753 6.74305 140.733 6.6524 140.673 6.58203C140.602 6.48133 140.491 6.43067 140.33 6.43066H138.135L129.907 21.9795H125.989L133.805 7.23633C133.875 7.09548 133.915 6.96419 133.915 6.85352C133.915 6.74302 133.895 6.65241 133.835 6.58203C133.764 6.48133 133.653 6.43067 133.492 6.43066H131.246L123.018 21.9795H118.427L128.98 2H143.562ZM173.693 2C175.909 2 176.664 3.97364 175.386 6.40039L174.942 7.23633H170.3L170.844 6.20898C170.954 5.98773 170.984 5.78667 170.924 5.63574C170.924 5.6156 170.904 5.6051 170.904 5.58496C170.834 5.47419 170.712 5.40431 170.531 5.4043H166.664C166.412 5.40434 166.11 5.54509 165.858 5.7666C165.788 5.82693 165.717 5.89714 165.657 5.97754C165.597 6.0581 165.536 6.13916 165.496 6.21973L159.403 17.7705V17.7803C159.333 17.9112 159.293 18.0425 159.293 18.1533C159.283 18.415 159.444 18.5859 159.726 18.5859H163.593C164.005 18.5859 164.529 18.2235 164.77 17.7705L165.164 17.0254L167.107 13.3496H164.77L166.543 9.99609H173.532L172.777 11.416L171.76 13.3496L171.72 13.3398L169.816 16.9551L169.483 17.5791C168.204 20.0059 165.355 21.9794 163.14 21.9795H155.727C153.512 21.9794 152.757 20.006 154.036 17.5791L159.937 6.40039C161.216 3.97373 164.066 2.00015 166.281 2H173.693ZM294.308 2C296.513 2 297.359 3.97373 296.08 6.39062C296.08 6.39062 290.018 17.8701 289.604 18.6562C288.416 20.9322 286.04 21.9795 282.374 21.9795H272.415L282.969 2H294.308ZM233.976 2.00977C236.181 2.00978 236.936 3.9836 235.657 6.40039L227.409 21.9697H222.021L226.775 12.9873H222.102L217.339 21.96H211.951L222.525 2L233.976 2.00977ZM65.8183 17.8916C65.748 18.0322 65.708 18.1629 65.7079 18.2734C65.7079 18.3941 65.7378 18.4852 65.788 18.5557C65.8585 18.6463 65.9697 18.6973 66.1308 18.6973H69.8466L76.5029 6.09863C76.5733 5.95765 76.6142 5.8266 76.6142 5.71582C76.6142 5.60512 76.5935 5.51479 76.5331 5.44434C76.4627 5.34369 76.3523 5.29301 76.1913 5.29297H72.4755L65.8183 17.8916ZM279.645 18.6865H280.481C282.928 18.6864 284.449 17.9209 285.255 16.4004L290.683 6.11914C290.944 5.5654 290.814 5.27261 290.25 5.27246H286.694L279.645 18.6865ZM223.472 10.4092H228.155L230.44 6.1084C230.511 5.96767 230.552 5.8372 230.552 5.72656C230.562 5.47487 230.411 5.29306 230.129 5.29297H226.181L223.472 10.4092ZM100.34 9.5127H102.706C104.025 9.5127 105.223 8.65634 105.777 7.58887C105.969 7.21626 106.19 6.82329 106.422 6.37012C106.673 5.89693 106.382 5.39371 105.718 5.39355H102.505L100.34 9.5127ZM254.227 9.5127H256.594C257.913 9.51258 259.111 8.65627 259.665 7.58887C259.856 7.21632 260.078 6.82321 260.309 6.37012C260.561 5.89693 260.259 5.39355 259.604 5.39355H256.392L254.227 9.5127ZM342.757 3.26855H344.177L343.764 4.02441H342.344L341.679 5.2832H340.823L341.488 4.01367H340.058L340.471 3.25879H341.891L342.556 2H343.421L342.757 3.26855Z" fill="black"/>
</svg>
