<svg width="39" height="161" viewBox="0 0 39 161" fill="none" xmlns="http://www.w3.org/2000/svg">
<path d="M28.924 85.021L29.216 85.465V80.278L28.924 79.834L26.743 76.512L30.602 68.698L38.522 52.659V46.231L30.602 62.27L24.932 73.752L21.335 68.273L21.043 67.828V73.016L21.335 73.46L23.47 76.713L0 124.242V130.67L25.282 79.472L28.924 85.021ZM19.517 62.799L30.602 40.35V38.322V34.272L30.256 34.622L18.949 46.065L30.602 22.467L38.522 6.42801V0L30.602 16.039L12.665 52.362L12.605 52.485L11.204 55.322L12.241 56.902L14.287 54.832L14.952 54.158L26.26 42.716L17.705 60.039L16.243 63L0 95.894V102.322L18.055 65.759L19.517 62.799ZM21.733 115.007L32.57 93.06L36.901 99.657L21.733 115.007ZM34.032 90.1L32.221 87.34L30.759 90.3L14.079 124.078L10.083 132.172L0 152.59V159.018L16.427 125.751L17.736 123.101L38.522 102.066V101.229V100.801V99.343V98.446V96.94L34.032 90.1Z" fill="black"/>
</svg>
