<svg width="138" height="24" viewBox="0 0 138 24" fill="none" xmlns="http://www.w3.org/2000/svg">
<path d="M21 2L19.2324 5.34668H14.0703L5.2627 22H0L8.80762 5.34668H3.7168L5.49512 2H21ZM47.623 2.02051L47.6328 2.00977C49.8981 2.00977 50.674 3.9867 49.3604 6.40723L40.8887 22H35.3545L40.2373 13.0039H35.4268L30.5342 21.9902H25L35.8613 2L47.623 2.02051ZM63.2402 18.623H70.9424L69.1602 22H56L66.5527 2H72L63.2402 18.623ZM105.643 2.00977C107.9 2.00995 108.669 3.9853 107.366 6.40332L100.769 18.6748L98.9834 22H87.3574C85.1004 21.9998 84.331 20.0253 85.6338 17.6074L92.2314 5.33496L94.0166 2H105.643V2.00977ZM135.714 2C137.902 2 138.649 3.97615 137.386 6.39551L129.259 22H123.758L132.044 6.09277C132.114 5.95177 132.153 5.82079 132.153 5.70996C132.153 5.59907 132.133 5.50806 132.073 5.4375C132.004 5.33684 131.894 5.28613 131.735 5.28613H128.104L119.401 22H114L124.414 2H135.714ZM91.0518 17.8887C90.9799 18.0297 90.9385 18.1616 90.9385 18.2725C90.9386 18.3929 90.9695 18.4833 91.0205 18.5537C91.0923 18.6444 91.2059 18.6953 91.3701 18.6953H95.1562L101.938 6.09082C102.01 5.94986 102.051 5.81879 102.051 5.70801C102.051 5.59718 102.03 5.50608 101.969 5.43555C101.897 5.33496 101.784 5.28419 101.62 5.28418H97.834L91.0518 17.8887ZM36.834 10.4111H41.6436L43.9814 6.10449L43.9922 6.11523C44.0646 5.97403 44.1055 5.84239 44.1055 5.73145C44.1157 5.47945 43.9604 5.29785 43.6709 5.29785H39.6162L36.834 10.4111Z" fill="black"/>
</svg>
