<svg width="189" height="24" viewBox="0 0 189 24" fill="none" xmlns="http://www.w3.org/2000/svg">
<path d="M43.4238 6.15201L41.1598 10.424L40.0138 10.423L37.6598 10.419L36.5118 10.417L39.1998 5.34401L43.1168 5.35001C43.3938 5.35101 43.5458 5.52 43.5368 5.77C43.5328 5.88301 43.4978 6.01301 43.4238 6.15201ZM46.9438 2.096L35.5778 2.07901L25.0768 21.898L30.4248 21.905L35.1508 12.988L36.2938 12.99L38.6508 12.994L39.7958 12.995L35.0708 21.913L40.4198 21.921L48.6138 6.45601C49.8868 4.055 49.1378 2.1 46.9438 2.096Z" fill="black"/>
<path d="M71.0116 2.07876H65.6026L55.1276 21.9208H68.1976L69.9676 18.5668H62.3116L71.0116 2.07876Z" fill="black"/>
<path d="M134.645 2.07876H123.283L112.81 21.9208H118.24L126.992 5.34276H130.638C130.794 5.34276 130.91 5.39576 130.98 5.48876C131.036 5.55876 131.063 5.65376 131.059 5.76276C131.055 5.87576 131.018 6.00476 130.947 6.14376L122.615 21.9208H128.147L136.321 6.43676C137.591 4.03376 136.838 2.07876 134.645 2.07876Z" fill="black"/>
<path d="M101.059 6.14325L94.4514 18.6552H90.7614C90.6034 18.6552 90.4894 18.6032 90.4174 18.5132C90.3634 18.4412 90.3354 18.3492 90.3384 18.2372C90.3434 18.1252 90.3794 17.9932 90.4524 17.8552L97.0594 5.34225H100.749C100.905 5.34225 101.022 5.39625 101.091 5.48825C101.147 5.55825 101.173 5.65125 101.169 5.76025C101.167 5.87325 101.132 6.00425 101.059 6.14325ZM104.665 2.07925H98.6834H93.3324L91.5894 5.38425L85.1594 17.5612C83.8924 19.9652 84.6424 21.9212 86.8384 21.9212H92.6154H98.1694L99.9134 18.6172L106.342 6.43725C107.612 4.03425 106.859 2.07925 104.665 2.07925Z" fill="black"/>
<path d="M20.788 2.07876H5.432L3.676 5.40576H8.719L0 21.9208H5.206L13.926 5.40576H19.031L20.788 2.07876Z" fill="black"/>
<path d="M163.626 7.30349L164.816 8.10149L160.167 16.9055L157.52 21.9215L169.965 8.41449L168.797 7.63149L170.007 5.34149H177.731L179.454 2.07849H166.382L163.626 7.30349ZM168.834 11.7355L165.225 18.5655H172.359L170.588 21.9215H159.449L168.834 11.7355L171.207 9.15949L175.044 9.16049L173.685 11.7355H168.834Z" fill="black"/>
<path d="M180.618 11.6097H177.606L178.834 9.2887H181.847L183.52 6.1287H186.656L184.983 9.2887H187.995L186.767 11.6097H183.754L182.086 14.7617H178.949L180.618 11.6097Z" fill="black"/>
</svg>
