<svg width="73" height="24" viewBox="0 0 73 24" fill="none" xmlns="http://www.w3.org/2000/svg">
<path fill-rule="evenodd" clip-rule="evenodd" d="M5.49496 2H21L19.2323 5.35685H14.0707L5.26259 22H0L8.80806 5.35685H3.71717L5.49496 2ZM43.7545 2H36.531C34.3718 2 31.6042 3.97581 30.3577 6.40524L24.6064 17.5948C23.3599 20.0242 24.096 22 26.2552 22H33.4787C35.6379 22 38.4056 20.0242 39.6619 17.5948L39.976 16.9798H35.4515L35.0392 17.7863C34.8135 18.2399 34.2933 18.6028 33.8909 18.6028H30.1614C29.8866 18.6028 29.7394 18.4314 29.7394 18.1794C29.7394 18.0685 29.7786 17.9375 29.8473 17.8065L35.7949 6.23387C35.844 6.14315 35.8931 6.0625 35.952 5.99194C36.0109 5.91129 36.0796 5.84073 36.1581 5.78024C36.3936 5.55847 36.6979 5.41734 36.9432 5.41734H40.663C40.8396 5.41734 40.9672 5.4879 41.0261 5.59879L41.0262 5.59902C41.036 5.61911 41.0458 5.63915 41.0458 5.64919C41.1047 5.8004 41.0752 6.00202 40.9672 6.23387L40.4372 7.25202H44.9618L45.3936 6.41532C46.6401 3.98589 45.904 2.01008 43.7448 2.01008L43.7545 2ZM70.6669 2H59.4448L49 22H54.4018L59.5245 12.1815H63.8898L58.767 22H64.2486L68.2251 14.379C69.2383 12.421 67.8785 11.2103 67.4176 10.7999C67.3707 10.7582 67.3331 10.7247 67.3082 10.6996C67.3111 10.6982 67.3278 10.6973 67.3569 10.6958C67.7385 10.6758 70.2568 10.5441 71.8031 7.58468L72.3811 6.47581C73.6668 4.02621 72.8794 2 70.6669 2ZM66.9495 6.36492C66.8071 6.64676 66.6685 6.90525 66.5385 7.14765L66.5384 7.14794C66.4592 7.29559 66.3833 7.43726 66.3116 7.5746C65.7535 8.64315 64.5775 9.5 63.2719 9.5H60.9297L63.0725 5.37702H66.2518C66.8996 5.37702 67.1986 5.88105 66.9495 6.35484V6.36492Z" fill="black"/>
</svg>
