<svg width="76" height="24" viewBox="0 0 76 24" fill="none" xmlns="http://www.w3.org/2000/svg">
<path d="M21.2194 2L19.4567 5.35352H14.3102L5.52893 21.9795H0.292603L9.07385 5.35352H3.98792L5.76038 2H21.2194ZM44.4918 2C46.7072 2 47.4628 3.97362 46.1842 6.40039L45.7408 7.23633H41.0983L41.6422 6.21973C41.753 5.99818 41.7827 5.79657 41.7223 5.64551C41.7223 5.63544 41.7128 5.61486 41.7028 5.59473C41.6423 5.48409 41.5108 5.41406 41.3297 5.41406H37.5133C37.2616 5.41406 36.9493 5.55487 36.7076 5.77637C36.6271 5.83679 36.5561 5.90772 36.4957 5.98828C36.4354 6.05868 36.3849 6.13902 36.3346 6.22949L30.2321 17.79C30.1616 17.9209 30.1217 18.0523 30.1217 18.1631C30.1217 18.4148 30.2724 18.5859 30.5543 18.5859H34.3815C34.7943 18.5858 35.3276 18.2235 35.5592 17.7705L35.9821 16.9648H40.6246L40.3024 17.5791C39.0134 20.0059 36.174 21.9793 33.9586 21.9795H26.5465C24.331 21.9795 23.5762 20.0061 24.8551 17.5791L30.7555 6.40039C32.0345 3.97347 34.875 2 37.0905 2H44.4918ZM65.1168 7.25684L70.6246 2H75.5797L65.1168 11.9902V21.9795H60.3531V16.542L54.6637 21.9795H49.7086L60.3531 11.8086V2H65.1168V7.25684Z" fill="black"/>
</svg>
