<svg width="124" height="24" viewBox="0 0 124 24" fill="none" xmlns="http://www.w3.org/2000/svg">
<path d="M120.275 6.968L121.252 3.949H118.472L117.495 6.968H114.6L113.379 10.739H116.274L115.297 13.758H118.077L119.054 10.739H121.949L123.17 6.968H120.275ZM108.47 17.706L105.624 22H94.85L101.27 2.162H113.501L110.654 6.456H104.288L103.003 10.427H109.369L108.298 13.736H101.932L100.647 17.706H108.47ZM85.353 6.451H81.446L76.416 21.995H72.009L77.039 6.451H73.122L74.512 2.158H86.742L85.353 6.451ZM63.147 11.745L64.86 6.451H61.432L59.719 11.745H63.147ZM67.114 13.069C66.943 13.596 66.646 14.059 66.223 14.457C65.807 14.855 65.404 15.054 65.014 15.054H58.648L56.402 21.995H51.994L58.414 2.158H69.188C69.577 2.158 69.852 2.356 70.01 2.755C70.175 3.153 70.173 3.616 70.002 4.143L67.114 13.069ZM48.118 21.995H43.711L48.741 6.451H45.314L40.283 21.995H35.888L40.919 6.451H37.491L32.46 21.995H28.053L34.473 2.158H53.069C53.46 2.158 53.737 2.356 53.903 2.755C54.069 3.153 54.067 3.616 53.896 4.143L48.118 21.995ZM25.799 17.702L22.952 21.995H12.179L18.599 2.158H30.829L27.982 6.451H21.616L20.332 10.422H26.698L25.626 13.731H19.26L17.976 17.702H25.799ZM13.343 6.451H9.438L4.40701 21.995H0L5.031 6.451H1.113L2.502 2.158H14.733L13.343 6.451Z" fill="black"/>
</svg>
