<svg width="87" height="24" viewBox="0 0 87 24" fill="none" xmlns="http://www.w3.org/2000/svg">
<path d="M85.374 6.452H81.467L76.435 22H72.027L77.059 6.452H73.14L74.53 2.158H86.764L85.374 6.452ZM63.163 11.748L64.876 6.452H61.447L59.734 11.748H63.163ZM67.13 13.072C66.96 13.599 66.662 14.062 66.239 14.46C65.823 14.858 65.42 15.058 65.03 15.058H58.663L56.416 22H52.008L58.429 2.158H69.205C69.595 2.158 69.87 2.357 70.028 2.755C70.193 3.153 70.191 3.616 70.02 4.143L67.13 13.072ZM48.131 22H43.722L48.754 6.452H45.326L40.293 22H35.897L40.929 6.452H37.5L32.468 22H28.06L34.482 2.158H53.082C53.473 2.158 53.751 2.357 53.917 2.755C54.083 3.153 54.081 3.616 53.91 4.143L48.131 22ZM25.806 17.705L22.958 22H12.182L18.604 2.158H30.837L27.99 6.452H21.622L20.337 10.424H26.705L25.633 13.734H19.266L17.981 17.705H25.806ZM13.347 6.452H9.441L4.408 22H0L5.032 6.452H1.113L2.503 2.158H14.737L13.347 6.452Z" fill="black"/>
</svg>
