<svg width="92" height="24" viewBox="0 0 92 24" fill="none" xmlns="http://www.w3.org/2000/svg">
<path d="M86.171 17.705L83.324 22H72.548L78.969 2.157H91.202L88.355 6.452H81.987L80.702 10.423H87.07L85.998 13.733H79.631L78.346 17.705H86.171ZM75.778 2.157L63.239 22H58.354L58.682 2.157H63.544L63.362 14.056L70.892 2.157H75.778ZM49.061 22H44.653L51.075 2.157H55.483L49.061 22ZM41.011 22H37.104L36.932 10.423H39.871L41.157 6.452H37.728L32.696 22H28.288L34.71 2.157H45.486C45.876 2.157 46.15 2.356 46.308 2.754C46.473 3.153 46.471 3.616 46.3 4.143L43.84 11.747C43.669 12.275 43.371 12.738 42.948 13.136C42.532 13.534 42.129 13.733 41.739 13.733H40.879L41.011 22ZM24.416 22H20.02L22.694 13.733H19.266L16.591 22H12.182L18.604 2.157H23.012L20.337 10.423H23.766L26.441 2.157H30.837L24.416 22ZM13.347 6.452H9.44099L4.408 22H0L5.032 6.452H1.113L2.503 2.157H14.737L13.347 6.452Z" fill="black"/>
</svg>
