<svg width="131" height="24" viewBox="0 0 131 24" fill="none" xmlns="http://www.w3.org/2000/svg">
<path d="M127.791 6.964L128.768 3.944H125.988L125.01 6.964H122.115L120.894 10.736H123.789L122.812 13.756H125.593L126.57 10.736H129.466L130.687 6.964H127.791ZM115.984 17.704L113.137 21.999H102.361L108.782 2.157H121.015L118.168 6.452H111.801L110.516 10.423H116.883L115.812 13.733H109.444L108.159 17.704H115.984ZM13.346 6.453H9.44L4.408 22H0L5.032 6.453H1.113L2.503 2.158H14.736L13.346 6.453ZM86.166 17.705L83.319 22H72.543L78.964 2.158H91.197L88.35 6.453H81.983L80.698 10.424H87.065L85.994 13.734H79.626L78.341 17.705H86.166ZM75.774 2.158L63.236 22H58.35L58.679 2.158H63.541L63.358 14.057L70.888 2.158H75.774ZM49.058 22H44.65L51.072 2.158H55.48L49.058 22ZM41.009 22H37.102L36.93 10.424H39.869L41.155 6.453H37.726L32.694 22H28.286L34.708 2.158H45.483C45.873 2.158 46.147 2.357 46.305 2.756C46.471 3.154 46.469 3.617 46.298 4.144L43.837 11.748C43.666 12.276 43.369 12.738 42.946 13.137C42.53 13.535 42.127 13.734 41.737 13.734H40.877L41.009 22ZM24.415 22H20.018L22.693 13.734H19.264L16.59 22H12.182L18.603 2.158H23.011L20.336 10.424H23.765L26.439 2.158H30.836L24.415 22ZM13.346 6.453H9.44L4.408 22H0L5.032 6.453H1.113L2.503 2.158H14.736L13.346 6.453Z" fill="black"/>
</svg>
