<svg width="261" height="24" viewBox="0 0 261 24" fill="none" xmlns="http://www.w3.org/2000/svg">
<path d="M20.9365 2L19.1641 5.35352H14.0283L5.24707 21.9795H0L8.78125 5.35352H3.70605L5.46777 2H20.9365ZM47.2002 2C49.4157 2 50.1706 3.97371 48.8916 6.39062L42.417 18.6562L40.6641 21.9795H29.2549C27.0394 21.9795 26.2835 20.0058 27.5625 17.5889L34.0381 5.32324L35.79 2H47.2002ZM62.96 17.8916C62.8897 18.0322 62.8497 18.1629 62.8496 18.2734C62.8496 18.3842 62.8702 18.4754 62.9307 18.5459C63.0011 18.6464 63.1115 18.6972 63.2725 18.6973H66.9785L75.79 2H81.1777L70.624 21.9795H59.4258C57.2103 21.9794 56.4545 20.0057 57.7334 17.5889L65.9619 2H71.3496L62.96 17.8916ZM107.311 2C109.526 2 110.282 3.97356 109.003 6.40039L108.56 7.23633H103.917L104.461 6.20898C104.582 5.98771 104.612 5.7867 104.552 5.63574C104.542 5.6156 104.532 5.6051 104.521 5.58496C104.451 5.46414 104.33 5.39355 104.148 5.39355H100.281C100.03 5.39373 99.7272 5.53444 99.4756 5.75586C99.4051 5.81627 99.3348 5.88722 99.2744 5.96777C99.2141 6.04823 99.1636 6.12852 99.1133 6.20898L93.0205 17.7607V17.7705C92.9502 17.9012 92.9103 18.032 92.9102 18.1426C92.9102 18.3942 93.0611 18.5662 93.3428 18.5664H97.21C97.6228 18.5664 98.147 18.2032 98.3887 17.75L98.7812 17.0049L100.725 13.3291H98.3887L100.161 9.97559H107.149L106.395 11.3955L105.377 13.3291L105.337 13.3496L103.434 16.9648L103.102 17.5791C101.823 20.0061 98.9723 21.9795 96.7568 21.9795H89.3457C87.1302 21.9795 86.3744 20.0061 87.6533 17.5791L93.5547 6.40039C94.8438 3.97355 97.684 2 99.8994 2H107.311ZM127.925 9.12012H132.366L136.122 2H141.671L131.127 21.9795H125.578L130.956 11.7988H126.505L121.127 21.9795H115.669L126.223 2H131.682L127.925 9.12012ZM167.804 2.00977C170.039 2.00977 170.835 4.02455 169.536 6.47168L168.952 7.5791C167.27 10.7614 164.45 10.6703 164.41 10.6904C164.682 10.9623 166.465 12.2113 165.337 14.3662L161.318 21.9795H155.78L160.956 12.1709H156.545L151.369 21.9795H145.911L156.465 2H167.824L167.804 2.00977ZM198.046 2C200.261 2 201.017 3.97384 199.738 6.39062L193.263 18.6562L191.511 21.9795H180.101C177.885 21.9795 177.129 20.0058 178.408 17.5889L184.884 5.32324L186.636 2H198.046ZM258.438 2C260.644 2 261.49 3.97375 260.211 6.39062C260.211 6.39062 254.149 17.8697 253.735 18.6562C252.547 20.9322 250.171 21.9795 246.505 21.9795H236.545L247.1 2H258.438ZM228.349 2.02051V2.00977C230.554 2.01 231.309 3.98383 230.03 6.40039L221.782 21.9697H216.395L221.158 12.9873H216.476L211.712 21.96H206.324L216.898 2L228.349 2.02051ZM243.766 18.6973H244.602C247.049 18.6973 248.569 17.921 249.375 16.4004C249.658 15.8845 254.784 6.16434 254.803 6.12891C255.065 5.57507 254.934 5.28325 254.37 5.2832H250.815L243.766 18.6973ZM32.8896 17.8809C32.8192 18.0218 32.7793 18.1529 32.7793 18.2637C32.7793 18.3844 32.7991 18.4754 32.8594 18.5459C32.9298 18.6365 33.0411 18.6865 33.2021 18.6865H36.918L43.5752 6.08887C43.6457 5.94793 43.6855 5.81681 43.6855 5.70605C43.6855 5.59528 43.6659 5.50409 43.6055 5.43359C43.535 5.33293 43.4238 5.2832 43.2627 5.2832H39.5469L32.8896 17.8809ZM183.736 17.8809C183.666 18.0218 183.625 18.1529 183.625 18.2637C183.625 18.3845 183.656 18.4754 183.706 18.5459C183.777 18.6363 183.887 18.6865 184.048 18.6865H187.764L194.421 6.08887C194.491 5.94793 194.531 5.81681 194.531 5.70605C194.531 5.59528 194.512 5.50409 194.451 5.43359C194.381 5.33297 194.269 5.2832 194.108 5.2832H190.393L183.736 17.8809ZM217.845 10.3984H222.527L224.804 6.09863L224.813 6.1084C224.884 5.96772 224.924 5.83716 224.924 5.72656C224.934 5.4748 224.783 5.29297 224.501 5.29297H220.554L217.845 10.3984ZM157.965 9.50293H160.332C161.651 9.50287 162.839 8.64649 163.403 7.5791C163.605 7.20649 163.816 6.81352 164.048 6.36035C164.299 5.88708 163.997 5.38379 163.343 5.38379H160.131L157.965 9.50293Z" fill="black"/>
</svg>
