<svg width="215" height="24" viewBox="0 0 215 24" fill="none" xmlns="http://www.w3.org/2000/svg">
<path d="M19.2227 5.35645H14.0703L5.2627 22H0L8.80762 5.35645H3.7168L5.48438 2H21L19.2227 5.35645ZM47.5693 2C49.874 2 50.6945 4.02609 49.3555 6.47559L48.7529 7.58496C47.023 10.7631 44.1252 10.6796 44.0713 10.6992C44.3516 10.9714 46.1889 12.2218 45.0264 14.3789L40.8838 22H35.1738L40.5098 12.1816H35.9629L30.627 22H25L35.8799 2H47.5693ZM77.7178 2.02051L77.7275 2.00977C79.9023 2.00977 80.6469 3.98667 79.3857 6.40723L71.2529 22H65.9404L70.6279 13.0039H66.0098L61.3125 21.9902H56L66.4268 2L77.7178 2.02051ZM107.714 2C109.902 2 110.649 3.97615 109.386 6.39551L101.259 22H95.7578L104.044 6.09277C104.114 5.95177 104.153 5.82079 104.153 5.70996C104.153 5.59907 104.133 5.50806 104.073 5.4375C104.004 5.33684 103.894 5.28613 103.735 5.28613H100.104L91.4014 22H86L96.4141 2H107.714ZM138.645 2C140.9 2.00011 141.668 3.9759 140.366 6.40527L139.916 7.24219H135.18L135.733 6.22363C135.856 5.99191 135.887 5.78981 135.825 5.63867C135.825 5.62847 135.815 5.6087 135.805 5.58887C135.743 5.47806 135.61 5.40733 135.426 5.40723H131.54C131.273 5.40723 130.966 5.54874 130.72 5.77051C130.638 5.83085 130.566 5.90106 130.505 5.98145C130.443 6.05196 130.392 6.13299 130.341 6.22363L124.128 17.7959C124.056 17.9268 124.016 18.0581 124.016 18.1689C124.005 18.4209 124.169 18.5927 124.456 18.5928H128.342C128.762 18.5926 129.305 18.2299 129.541 17.7764L129.972 16.9697H134.697L134.359 17.5947C133.047 20.0242 130.156 22 127.9 22H120.355C118.1 21.9999 117.332 20.0241 118.634 17.5947L124.641 6.40527C125.943 3.97588 128.834 2.00007 131.089 2H138.645ZM168.32 5.28613H160.858L158.886 9.13672H165.684L164.355 11.7383H157.558L154.042 18.623H161.493L159.765 22H147L157.235 2H170L168.32 5.28613ZM204.484 2V7.26172L210.021 2H215L204.484 12V22H199.697V16.5566L193.979 22H189L199.697 11.8184V2H204.484ZM67.3604 10.4111H71.9775L74.2227 6.10449H74.2324C74.3018 5.96347 74.3418 5.83251 74.3418 5.72168C74.3517 5.46967 74.2026 5.28827 73.9248 5.28809H70.0312L67.3604 10.4111ZM37.4268 9.50977H39.8662C41.2262 9.50977 42.4622 8.65347 43.0332 7.58496C43.2304 7.21205 43.4585 6.81875 43.6973 6.36523C43.9568 5.89147 43.6454 5.38676 42.9707 5.38672H39.6592L37.4268 9.50977Z" fill="black"/>
</svg>
