<svg width="219" height="24" viewBox="0 0 219 24" fill="none" xmlns="http://www.w3.org/2000/svg">
<path d="M73.4214 6.15199L71.1584 10.424L70.0124 10.422L67.6584 10.419L66.5104 10.417L69.1984 5.34399L73.1154 5.34999C73.3924 5.35099 73.5434 5.51999 73.5354 5.76999C73.5314 5.88299 73.4954 6.01399 73.4214 6.15199ZM76.9424 2.09699L65.5754 2.07799L55.0754 21.898L60.4224 21.906L65.1484 12.989L66.2924 12.99L68.6484 12.994L69.7944 12.996L65.0694 21.913L70.4174 21.921L78.6124 6.45699C79.8844 4.05499 79.1354 2.09999 76.9424 2.09699Z" fill="black"/>
<path d="M137.02 2.07911H129.66C127.462 2.07911 124.637 4.04111 123.364 6.44911L117.505 17.5491C116.232 19.9611 116.988 21.9211 119.188 21.9211H126.544C128.744 21.9211 131.569 19.9611 132.842 17.5491L133.167 16.9341H128.554L128.13 17.7321C127.897 18.1831 127.372 18.5451 126.963 18.5451H123.169C122.889 18.5451 122.733 18.3741 122.74 18.1211C122.745 18.0101 122.781 17.8821 122.85 17.7471C122.854 17.7411 128.911 6.26711 128.911 6.26711C128.956 6.18111 129.01 6.10011 129.072 6.02411C129.133 5.94711 129.202 5.87611 129.279 5.81211C129.524 5.59511 129.824 5.45611 130.081 5.45611H133.874C134.053 5.45611 134.182 5.52411 134.247 5.63911C134.258 5.65611 134.265 5.67511 134.271 5.69211C134.331 5.83911 134.305 6.04411 134.186 6.26711L133.649 7.28211H138.264L138.701 6.44911C139.973 4.04111 139.218 2.07911 137.02 2.07911Z" fill="black"/>
<path d="M156.044 11.737H163L164.361 9.15999H157.403L159.421 5.34099H167.06L168.782 2.07899H155.713L145.236 21.921H158.305L160.077 18.566H152.439L156.044 11.737Z" fill="black"/>
<path d="M106.983 2.07911H95.6204L85.1474 21.9211H90.5774L99.3304 5.34311H102.976C103.132 5.34311 103.248 5.39611 103.317 5.48911C103.374 5.55911 103.401 5.65311 103.397 5.76311C103.393 5.87611 103.356 6.00411 103.285 6.14311L94.9534 21.9211H100.485L108.659 6.43711C109.929 4.03411 109.176 2.07911 106.983 2.07911Z" fill="black"/>
<path d="M43.0518 6.40499C42.8178 6.85699 42.6058 7.24599 42.4158 7.60899C41.8598 8.66599 40.6758 9.51899 39.3648 9.51899H37.0118L39.1578 5.43299H42.3488C43.0028 5.43299 43.2948 5.93099 43.0518 6.40499ZM46.8008 2.07899H35.5228L25.0468 21.921H30.4688L35.6118 12.183H39.9958L34.8528 21.921H40.3568L44.3488 14.357C45.4658 12.213 43.7018 10.978 43.4308 10.706C43.4688 10.685 46.2728 10.775 47.9438 7.61099L48.5228 6.51399C49.8088 4.08099 49.0238 2.07899 46.8008 2.07899Z" fill="black"/>
<path d="M20.789 2.07849H5.432L3.676 5.40649H8.719L0 21.9215H5.206L13.926 5.40649H19.032L20.789 2.07849Z" fill="black"/>
<path d="M193.863 7.30397L195.053 8.10197L190.404 16.906L187.757 21.922L200.202 8.41497L199.034 7.63197L200.244 5.34197H207.968L209.691 2.07897H196.619L193.863 7.30397ZM199.071 11.736L195.462 18.566H202.596L200.825 21.922H189.686L199.071 11.736L201.444 9.15997L205.281 9.16097L203.922 11.736H199.071Z" fill="black"/>
<path d="M210.855 11.6103H207.843L209.071 9.2893H212.084L213.757 6.1293H216.893L215.22 9.2893H218.232L217.004 11.6103H213.991L212.323 14.7623H209.186L210.855 11.6103Z" fill="black"/>
</svg>
