<svg width="170" height="24" viewBox="0 0 170 24" fill="none" xmlns="http://www.w3.org/2000/svg">
<path d="M21 2L19.2227 5.35547H14.0703L5.2627 22H0L8.80762 5.35547H3.7168L5.48438 2H21ZM47.667 2C49.8794 2.00006 50.6665 4.02605 49.3809 6.47559L48.8027 7.58496C47.1433 10.7605 44.3648 10.6798 44.3086 10.6992C44.5777 10.9714 46.3415 12.2218 45.2256 14.3789L41.249 22H35.7666L40.8896 12.1816H36.5244L31.4014 22H26L36.4443 2H47.667ZM77.7178 2.02051L77.7275 2.00977C79.9023 2.00977 80.6469 3.98667 79.3857 6.40723L71.2432 22H65.9307L70.6279 13.0039H66.0098L61.3125 21.9902H56L66.4268 2L77.7178 2.02051ZM107.714 2C109.902 2 110.649 3.97615 109.386 6.39551L101.259 22H95.7578L104.044 6.09277C104.114 5.95177 104.153 5.82079 104.153 5.70996C104.153 5.59907 104.133 5.50806 104.073 5.4375C104.004 5.33684 103.894 5.28613 103.735 5.28613H100.104L91.4014 22H86L96.4141 2H107.714ZM138.644 2.00977C140.9 2.00991 141.669 3.98577 140.366 6.41504L139.915 7.25195H135.177L135.73 6.2334C135.853 6.00184 135.885 5.80052 135.823 5.64941C135.823 5.63934 135.813 5.61879 135.803 5.59863C135.741 5.48775 135.607 5.41699 135.423 5.41699H131.536C131.28 5.41699 130.962 5.55863 130.716 5.78027C130.634 5.84076 130.562 5.91154 130.5 5.99219C130.439 6.06262 130.387 6.14289 130.336 6.2334L124.121 17.8066C124.049 17.9377 124.008 18.0688 124.008 18.1797C123.998 18.4316 124.162 18.6025 124.449 18.6025H128.336C128.756 18.6025 129.3 18.2398 129.536 17.7861L129.967 16.9795H134.694L134.366 17.5947C133.053 20.0241 130.162 21.9999 127.905 22H120.356C118.1 21.9999 117.331 20.0241 118.634 17.5947L124.644 6.40527C125.956 3.97584 128.849 2 131.105 2H138.653L138.644 2.00977ZM168.319 5.29492H160.854L158.881 9.14355H165.682L164.353 11.7334H157.552L154.035 18.6143H161.5L159.771 22H147L157.229 2H170L168.319 5.29492ZM67.3604 10.4219H71.9775L74.2227 6.11523H74.2324C74.3019 5.97403 74.3418 5.84239 74.3418 5.73145C74.3516 5.47958 74.2025 5.29804 73.9248 5.29785H70.0312L67.3604 10.4219ZM37.9297 9.5H40.2715C41.5771 9.5 42.7534 8.64277 43.3115 7.57422C43.5008 7.21148 43.7201 6.8186 43.9492 6.36523V6.35449C44.1982 5.88079 43.8996 5.37704 43.252 5.37695H40.0723L37.9297 9.5Z" fill="black"/>
</svg>
