<svg width="183" height="24" viewBox="0 0 183 24" fill="none" xmlns="http://www.w3.org/2000/svg">
<path d="M21 2L19.2324 5.35742H14.0703L5.2627 22H0L8.80762 5.35742H3.7168L5.48438 2H21ZM47.5693 2C49.8741 2 50.6947 4.02697 49.3555 6.47656L48.7529 7.58496C47.0203 10.7683 44.1166 10.6802 44.0713 10.7002C44.3525 10.9729 46.1883 12.2226 45.0264 14.3789L40.8838 22H35.1738L40.5098 12.1816H35.9629L30.627 22H25L35.8799 2H47.5693ZM61.4004 22H56L66.5889 2H72L61.4004 22ZM97.7139 2C99.9022 2 100.649 3.97619 99.3857 6.39551L91.2588 22H85.7578L94.0439 6.09277C94.1135 5.95174 94.1533 5.82078 94.1533 5.70996C94.1533 5.59911 94.1339 5.50805 94.0742 5.4375C94.0046 5.33669 93.8945 5.28613 93.7354 5.28613H90.1045L81.4014 22H76L86.4141 2H97.7139ZM111.411 22H106L116.6 2H122L111.411 22ZM150.223 5.35742H145.061L136.253 22H131L139.808 5.35742H134.707L136.485 2H152L150.223 5.35742ZM167.601 11.2295C167.146 12.0758 167.415 12.751 168.199 12.751H170.263C171.047 12.751 172.06 12.0758 172.514 11.2295L177.499 2H183L179.46 8.55957L176.549 13.9297L174.866 17.0527C173.39 19.7832 171.326 22 167.569 22H157L158.848 18.5742H167.125C168.291 18.5742 169.159 18.3632 169.84 17.6582C170.17 17.3156 171.027 16.0352 171.027 16.0352H164.586C161.944 16.0349 160.964 13.4056 162.522 10.5342C164.009 7.80358 167.156 2 167.156 2H172.586L167.601 11.2295ZM37.4268 9.5H39.8662C41.2262 9.5 42.4518 8.64369 43.0332 7.5752C43.2304 7.2123 43.4585 6.81884 43.6973 6.36523V6.35547C43.9568 5.8817 43.6454 5.377 42.9707 5.37695H39.6592L37.4268 9.5Z" fill="black"/>
</svg>
