<svg width="139" height="24" viewBox="0 0 139 24" fill="none" xmlns="http://www.w3.org/2000/svg">
<g clip-path="url(#clip0_8350_2268)">
<path d="M119.77 4.51001H109.55L107.82 9.84985H117.44L116.22 13.5999H106.6L104.62 19.7004H115.24L114.02 23.4504H97.6299L105 0.76001H120.99L119.77 4.51001ZM5.57031 17.5295H5.69043L15.3799 0.76001H21.3496L7.41016 23.4397H0L0.799805 0.76001H6.96973L5.57031 17.5295ZM36.6504 23.4397H30.6396L30.8799 18.6497H23.2695L20.3896 23.4397H14.3799L29.3096 0.76001H36.4404L36.6504 23.4397ZM47.8203 19.6897H58.04L56.8203 23.4397H40.8301L48.2002 0.76001H53.9697L47.8203 19.6897ZM68.2598 19.6897H78.4805L77.2598 23.4397H61.2705L68.6396 0.76001H74.4102L68.2598 19.6897ZM133.91 10.1301H138.53L137.25 14.0696H132.63L130.66 20.1399H125.69L127.66 14.0696H122.7L123.98 10.1301H128.94L130.91 4.05981H135.88L133.91 10.1301ZM25.4805 14.8997H31.0898L31.6396 4.70044H31.5596L25.4805 14.8997ZM94.04 13.9202H82.7402L83.96 10.1702H95.2598L94.04 13.9202Z" fill="black"/>
</g>
<defs>
<clipPath id="clip0_8350_2268">
<rect width="139" height="24" fill="white"/>
</clipPath>
</defs>
</svg>
