<svg width="80" height="24" viewBox="0 0 80 24" fill="none" xmlns="http://www.w3.org/2000/svg">
<path d="M15.4951 7.26172L21.0205 2H26L15.4951 12V22H10.6973V16.5566L4.97949 22H0L10.6973 11.8184V2H15.4951V7.26172ZM54 2L52.2227 5.35645H47.0703L38.2627 22H33L41.8076 5.35645H36.7168L38.4844 2H54ZM77.6436 2.00977C79.8997 2.00991 80.6686 3.98577 79.3662 6.41504L78.915 7.25195H74.1875L74.7412 6.2334C74.864 6.00183 74.8944 5.80049 74.833 5.64941C74.8228 5.63934 74.813 5.61879 74.8027 5.59863C74.7412 5.48775 74.6075 5.41699 74.4229 5.41699H70.5361C70.2798 5.41699 69.9619 5.55862 69.7158 5.78027C69.6338 5.84076 69.5615 5.91154 69.5 5.99219C69.4386 6.06262 69.3871 6.14289 69.3359 6.2334L63.1211 17.8066C63.0493 17.9377 63.0078 18.0688 63.0078 18.1797C62.9977 18.4316 63.1621 18.6025 63.4492 18.6025H67.3359C67.7564 18.6025 68.3002 18.2398 68.5361 17.7861L68.9668 16.9795H73.6943L73.3662 17.5947C72.0534 20.0241 69.1616 21.9999 66.9053 22H59.3564C57.1003 21.9998 56.3313 20.0241 57.6338 17.5947L63.6436 6.40527C64.9563 3.97584 67.8491 2 70.1055 2H77.6533L77.6436 2.00977Z" fill="black"/>
</svg>
