<svg width="145" height="24" viewBox="0 0 145 24" fill="none" xmlns="http://www.w3.org/2000/svg">
<path d="M77.5748 7.37493C76.9488 8.55259 75.7068 9.5088 74.3841 9.5088H72.0114L75.9694 2.02014H70.517L59.9354 21.9899H65.4181L70.618 12.1963H73.8389C74.5558 12.1963 74.6972 12.8203 74.3741 13.4343L69.8405 21.9698C69.9415 21.9698 75.4241 21.9698 75.4241 21.9698L79.4427 14.3805C80.4423 12.4882 78.5239 10.9482 78.2614 10.6865C78.3018 10.6663 80.8462 10.7569 82.5324 7.56618L85.4807 2H80.3918C80.3918 2 77.6354 7.24408 77.5748 7.3548V7.37493ZM142.68 2.02014H131.21L120.638 21.9899H126.121L134.956 5.30146H138.641C138.803 5.30146 138.914 5.35178 138.984 5.45243C139.045 5.52289 139.065 5.61349 139.065 5.72421C139.065 5.83492 139.025 5.96578 138.954 6.1067L130.543 21.9899H136.127L144.376 6.40865C145.658 3.99294 144.901 2.02014 142.68 2.02014ZM41.3672 18.7086H37.6515C37.4899 18.7086 37.3789 18.6583 37.3082 18.5576C37.2476 18.4872 37.2274 18.3966 37.2274 18.2859C37.2274 18.1751 37.2678 18.0443 37.3385 17.9034L45.7492 2.02014H40.3474L32.0982 17.6014C30.8158 20.0171 31.5731 21.9899 33.7945 21.9899H45.0323L55.6139 2.02014H50.2121L41.3772 18.7086H41.3672ZM15.1757 11.2401C14.7314 12.0856 13.7419 12.7599 12.9745 12.7599H10.9552C10.1878 12.7599 9.92528 12.0856 10.3695 11.2401L15.2464 2.02014H9.93539C9.93539 2.02014 6.8558 7.81781 5.40184 10.5455C3.8772 13.4142 4.83641 16.0413 7.42123 16.0413H11.2379C11.7226 16.0413 13.7217 16.0413 13.7217 16.0413C13.7217 16.0413 12.8837 17.3196 12.5606 17.6618C11.8942 18.3664 11.0461 18.5778 9.9051 18.5778H1.80733L0 22H10.3393C14.0145 22 16.0339 19.7856 17.4778 17.0579L19.1337 13.9376L21.981 8.57272L25.4443 2.02014H20.0727L15.1858 11.2401H15.1757ZM112.308 2.02014H100.868L99.1116 5.34171L92.6192 17.6014C91.3369 20.0171 92.0942 21.9899 94.3155 21.9899H105.755L107.512 18.6683L114.005 6.40865C115.287 3.99294 114.53 2.02014 112.308 2.02014ZM108.663 6.11676L101.989 18.7086H98.2634C98.1019 18.7086 97.9908 18.6583 97.9201 18.5677C97.8696 18.4972 97.8394 18.4066 97.8394 18.2859C97.8394 18.1751 97.8797 18.0443 97.9504 17.9034L104.624 5.31152H108.35C108.512 5.31152 108.623 5.36186 108.694 5.46251C108.754 5.53297 108.774 5.62355 108.774 5.73427C108.774 5.84499 108.734 5.97584 108.663 6.11676Z" fill="black"/>
</svg>
