<svg preserveAspectRatio="xMidYMid meet" xmlns="http://www.w3.org/2000/svg" width="148" height="28" viewBox="0 0 148 28" fill="currentColor">
  <path d="M7.28856 6.32744L10.7042 15.2261L10.7077 15.2227C10.7424 15.3165 10.8675 15.3443 10.9405 15.2748L18.081 8.48522C18.1922 8.38098 18.3694 8.49912 18.3138 8.64159L10.9161 27.9088C10.871 28.0304 10.6973 28.0304 10.6486 27.9088L0.0090577 0.194582C-0.0256893 0.100765 0.0438098 0 0.144576 0H21.4236C21.5244 0 21.5939 0.100765 21.5592 0.194582L19.3145 6.03903C19.2937 6.09462 19.2381 6.13285 19.179 6.13285H7.42408C7.32331 6.13285 7.25381 6.23362 7.28856 6.32744Z" fill="currentColor"/>
  <path d="M124.059 7.36985H147.59L141.381 10.9245H135.512L129.796 21.5918H122.687L128.403 10.9245H122.155L124.059 7.36985Z" fill="currentColor"/>
  <path d="M66.9978 7.36985L59.3743 21.5918H65.8164L73.4399 7.36985H66.9978Z" fill="currentColor"/>
  <path d="M73.433 10.9245C74.4858 8.96126 76.932 7.36985 78.8952 7.36985H98.8574L91.2304 21.5918H83.6277L85.4276 18.2352H77.7242L81.6159 15.9767H86.6473L89.4548 10.7264H82.078C81.9147 10.7334 80.6221 10.8133 80.0835 11.7827L76.7096 18.0789C75.6776 20.0212 73.2662 21.5918 71.3273 21.5918H67.7136L73.433 10.9245Z" fill="currentColor"/>
  <path d="M119.546 7.36985H100.807L93.2213 21.5918H100.331L106.123 10.7264H112.568C112.568 10.7264 114.212 10.7264 113.5 12.0398L108.406 21.5918H115.515L121.203 10.9245C122.252 8.96126 121.509 7.36985 119.546 7.36985Z" fill="currentColor"/>
  <path d="M53.8183 12.839H62.0638L59.277 18.0789C58.2451 20.0212 55.8336 21.5918 53.8947 21.5918H35.5796L41.3129 10.9245C42.3657 8.96126 44.8154 7.36985 46.7786 7.36985H65.3404L59.496 10.7264H49.4228C49.4228 10.7264 48.5472 10.7229 48.092 11.5395L44.4957 18.2352H51.9628L53.1859 15.9767H48.4117L53.8183 12.839Z" fill="currentColor"/>
</svg>