<svg preserveAspectRatio="xMidYMid meet" width="42" height="16" viewBox="0 0 42 16" fill="currentColor" xmlns="http://www.w3.org/2000/svg">
<g clip-path="url(#clip0_1481_332)">
<g mask="url(#mask0_1481_332)">
<path d="M13.9831 11.392H3.80987C3.80987 11.392 3.09045 12.6064 2.75269 13.2102C2.38116 13.8748 2.3136 14.7384 3.02965 15.2714C3.63424 15.72 4.48539 15.9966 5.45813 15.9966H9.13294C10.3354 15.9966 11.808 15.1466 12.4092 14.1075L13.9798 11.392H13.9831Z" fill="currentColor"/>
<path d="M26.3013 1.8891C26.9025 0.850095 27.3957 0 27.3957 0H23.9978C22.7954 0 21.3228 0.850095 20.7216 1.8891L20.6608 1.99705C20.0596 3.03605 19.5698 3.8794 19.5698 3.8794H22.9677C24.1701 3.8794 25.6427 3.02931 26.2439 1.9903L26.3047 1.8891H26.3013Z" fill="currentColor"/>
<path d="M7.00865 0C5.80623 0 4.33361 0.850095 3.7324 1.8891C3.7324 1.8891 1.39174 5.92705 0.847947 6.86823C0.175809 8.03205 0.000174642 9.42863 0.722977 11.2705C0.891856 11.7057 1.6079 13.4936 1.65857 13.6049C1.9693 14.2728 2.46581 14.8632 3.02986 15.2713C2.34421 14.7316 2.65833 13.4092 2.90827 12.9774C3.64458 11.6956 10.4065 0 10.4065 0H7.00865Z" fill="currentColor"/>
<path d="M19.239 14.1109L24.3189 5.33337H20.9211C19.7187 5.33337 18.246 6.18347 17.6448 7.22247L12.5649 16H15.9628C17.1652 16 18.6378 15.1499 19.239 14.1109Z" fill="currentColor"/>
<path d="M27.5407 5.33337C28.9086 5.33337 29.851 6.07215 30.0368 7.35066C30.0368 7.35066 30.7258 13.0551 30.9014 14.3201C31.0534 15.4266 31.6411 16 32.8233 16H28.2872C27.203 16 26.0512 14.9745 25.9026 13.5678L24.9028 5.33675H27.5475L27.5407 5.33337Z" fill="currentColor"/>
<path d="M37.7579 5.33337C36.5555 5.33337 35.0828 6.18347 34.4816 7.22247L30.1921 14.6473C29.5639 15.4839 29.064 15.9427 28.1689 15.9967C28.2399 16.0034 28.3615 16 28.4763 16H32.8064C34.0088 16 35.4814 15.1499 36.0826 14.1109L41.1524 5.33337H37.7545H37.7579Z" fill="currentColor"/>
</g>
</g>
</svg>
