<svg width="101" height="16" viewBox="0 0 101 16" fill="none" xmlns="http://www.w3.org/2000/svg">
<g clip-path="url(#clip0_1481_345)">
<path d="M15.6031 4.51723C14.846 3.70239 13.6787 3.29016 12.1338 3.29016C10.4367 3.29016 9.18071 3.71395 8.39862 4.55383C8.32735 4.63088 8.2657 4.70793 8.20599 4.78498C8.13857 4.69445 8.06922 4.60584 7.98639 4.51915C7.23127 3.70432 6.06392 3.29209 4.52094 3.29209C2.82193 3.29209 1.56597 3.71588 0.783884 4.55575C-0.050212 5.44956 -0.00398042 6.46088 0.00179854 6.5283V15.4761H1.29821V6.4917C1.29628 6.46666 1.27895 5.91188 1.7509 5.41874C2.271 4.87552 3.23031 4.58657 4.52094 4.58657C5.68058 4.58657 6.52239 4.85626 7.02516 5.386C7.57608 5.96967 7.54526 6.69204 7.54141 6.76524V15.4761H8.91487L8.91102 6.4917C8.91102 6.46666 8.89368 5.91188 9.36563 5.41874C9.88766 4.87552 10.845 4.58657 12.1338 4.58657C13.2934 4.58657 14.1371 4.85626 14.638 5.386C15.1908 5.96967 15.1581 6.69204 15.1542 6.76524V15.4761H16.4506V6.8134C16.4526 6.76139 16.5335 5.52276 15.6031 4.51915M43.4653 4.54227C42.7102 3.72744 41.5429 3.3152 39.9999 3.3152C38.3009 3.3152 37.0449 3.74092 36.2628 4.57887C36.1896 4.65592 36.1299 4.73297 36.0702 4.81003C36.0028 4.72142 35.9334 4.63088 35.8525 4.54419C35.0955 3.72936 33.9281 3.31713 32.3851 3.31713C30.6861 3.31713 29.4302 3.74285 28.6481 4.58079C27.814 5.47846 27.8602 6.48978 27.8679 6.55527V15.503H29.1624V6.51867C29.1624 6.49555 29.1431 5.93885 29.6151 5.44379C30.1371 4.90056 31.0945 4.61162 32.3851 4.61162C33.5448 4.61162 34.3866 4.8813 34.8894 5.41104C35.4403 5.99279 35.4075 6.71708 35.4056 6.78836V15.5011H36.7771V6.51674C36.7771 6.49363 36.7579 5.93692 37.2298 5.44186C37.7499 4.89864 38.7092 4.60969 39.9999 4.60969C41.1595 4.60969 42.0013 4.87937 42.5022 5.40911C43.055 5.99086 43.0223 6.71516 43.0203 6.78643V15.4992H44.3148L44.311 6.83459C44.3148 6.78065 44.3977 5.54588 43.4634 4.54034M26.5754 6.76139C26.5831 6.51867 26.5657 5.42452 25.7278 4.51723C24.9707 3.70239 23.8034 3.29016 22.2604 3.29016C20.5614 3.29016 19.3054 3.71395 18.5233 4.55383C17.6893 5.44956 17.7355 6.46088 17.7413 6.5283V12.8563H17.747C17.774 13.1914 17.9185 13.8618 18.5927 14.588C19.3478 15.4009 20.5152 15.8151 22.0581 15.8151C23.7591 15.8151 25.015 15.3894 25.7952 14.5495C26.4174 13.883 26.5503 13.1914 26.5734 12.8543H26.5773V12.812C26.5811 12.7214 26.5773 12.6617 26.5773 12.6482V6.76139H26.5754ZM25.2789 6.6747V6.76139V12.6617C25.2751 12.8062 25.2269 13.2685 24.8263 13.6846C24.3042 14.2278 23.3469 14.5167 22.0562 14.5167C20.8985 14.5167 20.0548 14.249 19.5539 13.7173C19.109 13.2473 19.0435 12.6887 19.0357 12.4498V6.48785C19.0357 6.46281 19.0165 5.90803 19.4884 5.41489C20.0105 4.87167 20.9678 4.58272 22.2585 4.58272C23.4181 4.58272 24.2619 4.85241 24.7627 5.38214C25.2212 5.8695 25.2751 6.44932 25.2789 6.67278V6.6747ZM93.9927 4.58465C93.2375 3.76981 92.0702 3.35566 90.5253 3.35566C88.8282 3.35566 87.5703 3.78137 86.7882 4.61932C86.7285 4.68289 86.6842 4.74838 86.6322 4.81195C86.5725 4.7349 86.5185 4.65592 86.4511 4.58272C85.6921 3.76789 84.5286 3.35373 82.9837 3.35373C81.2867 3.35373 80.0288 3.77945 79.2486 4.61739C78.4126 5.51313 78.4453 6.59187 78.4453 6.59187V12.4055C78.4453 14.222 77.6132 14.6054 76.9139 14.6054H75.7543C75.1359 14.6054 74.6736 14.4435 74.3827 14.1218C73.8877 13.5806 73.9589 12.7118 73.9647 12.6386V5.52084H72.6683V6.81725L72.6722 12.5769C72.6664 12.6367 72.5354 14.012 73.4157 14.9887C73.9647 15.5955 74.7507 15.9037 75.7562 15.9037H76.9158C78.2816 15.9037 79.7417 14.9848 79.7417 12.4094V12.026L79.761 6.54949C79.761 6.54949 79.7437 5.99279 80.1964 5.5035C80.7165 4.94679 81.6777 4.65207 82.9837 4.65207C84.1415 4.65207 84.9852 4.92368 85.488 5.45149C86.0389 6.03516 86.0081 6.75753 86.0042 6.82881V15.5415H87.3045V6.54757C87.3045 6.54757 87.2852 5.99086 87.7398 5.50157C88.2561 4.94487 89.2212 4.65014 90.5253 4.65014C91.6849 4.65014 92.5286 4.92175 93.0295 5.44956C93.5823 6.03324 93.5496 6.75561 93.5457 6.82688V15.5396H94.8422L94.8383 6.87504C94.8422 6.82303 94.9231 5.58441 93.9907 4.58079M69.3184 5.39948V3.60222H68.022V5.51506H65.9705V6.81147H68.022V13.3166C68.022 14.1796 68.022 14.6997 66.296 14.6997C65.6642 14.6997 65.2231 14.5418 64.9553 14.2548C64.6413 13.9215 64.6645 13.2319 64.6645 13.2319L64.6702 6.83073C64.6741 6.7768 64.755 5.54203 63.8227 4.53649C63.0656 3.72166 61.9002 3.30942 60.3553 3.30942C58.6563 3.30942 57.4003 3.73514 56.6182 4.57309C55.7841 5.47075 55.8304 6.48207 55.8381 6.54757V15.399H57.1345V6.50904C57.1345 6.48592 57.1133 5.92922 57.5852 5.43415C58.1073 4.89093 59.0646 4.60198 60.3553 4.60198C61.513 4.60198 62.3567 4.87167 62.8595 5.40141C63.4123 5.98315 63.3796 6.70745 63.3757 6.77872V13.099C63.3815 13.3976 63.2987 14.3203 63.969 15.0946C64.4853 15.6899 65.2674 15.9923 66.296 15.9923C68.9601 15.9923 69.3184 14.6381 69.3184 13.3128V6.80762H71.2351V5.51121H69.3184V5.3937V5.39948ZM54.4107 12.1532H53.1143V12.6867C53.1104 12.8331 53.0622 13.2916 52.6635 13.7077C52.1415 14.2528 51.1841 14.5399 49.8934 14.5399C48.7338 14.5399 47.8901 14.2702 47.3892 13.7404C46.9385 13.2627 46.8768 12.6964 46.873 12.4652V12.365V6.69397H46.8711V6.50904C46.8711 6.48592 46.8537 5.92922 47.3237 5.43415C47.8458 4.89093 48.8031 4.60198 50.0938 4.60198C51.2534 4.60198 52.0952 4.87167 52.598 5.40141C53.0584 5.88876 53.1123 6.47051 53.1162 6.69011H53.1143V9.13268H49.2289V10.3232H53.1143V10.4272H53.1162V10.3232H54.4107V6.7845C54.4184 6.57646 54.4241 5.46305 53.5611 4.53456C52.8041 3.71973 51.6368 3.3075 50.0938 3.3075C48.3948 3.3075 47.1388 3.73321 46.3567 4.57116C45.5226 5.46883 45.5689 6.48014 45.5766 6.54564V12.8736H45.59C45.5958 12.9853 45.6035 13.0951 45.6151 13.1645C45.6825 13.6287 45.8732 14.0082 46.428 14.6034C47.185 15.4183 48.3505 15.8305 49.8954 15.8305C51.5944 15.8305 52.8503 15.4067 53.6324 14.5668C54.2238 13.9311 54.376 13.2666 54.403 12.8717H54.4126V12.7445C54.4145 12.6636 54.4145 12.6058 54.4126 12.5924V12.1493L54.4107 12.1532Z" fill="currentColor"/>
<path d="M97.4155 0.91687H98.4018C98.7986 0.91687 99.0394 1.12877 99.0394 1.46587C99.0394 1.72207 98.9315 1.92626 98.6753 1.99753V2.00331C98.92 2.04955 98.9662 2.23255 98.9893 2.43481C99.0047 2.63707 98.9951 2.87208 99.1126 3.0127H98.8005C98.7215 2.92795 98.7658 2.70064 98.7235 2.49645C98.6907 2.29419 98.6445 2.11697 98.3748 2.11697H97.6929V3.0127H97.4136V0.91687H97.4155ZM98.2766 1.88388C98.5347 1.88388 98.762 1.81646 98.762 1.51018C98.762 1.30213 98.6503 1.15188 98.3883 1.15188H97.6948V1.88388H98.2766Z" fill="currentColor"/>
<path d="M98.2613 3.85264C97.1999 3.85264 96.335 2.98772 96.335 1.92632C96.335 0.864917 97.1999 0 98.2613 0C99.3227 0 100.188 0.864917 100.188 1.92632C100.188 2.98772 99.3227 3.85264 98.2613 3.85264ZM98.2613 0.192632C97.3058 0.192632 96.5276 0.970864 96.5276 1.92632C96.5276 2.88177 97.3058 3.66 98.2613 3.66C99.2167 3.66 99.995 2.88177 99.995 1.92632C99.995 0.970864 99.2167 0.192632 98.2613 0.192632Z" fill="currentColor"/>
</g>
<defs>
<clipPath id="clip0_1481_345">
<rect width="100.188" height="16" fill="white"/>
</clipPath>
</defs>
</svg>
