<svg xmlns="http://www.w3.org/2000/svg" width="376" height="19" viewBox="0 0 376 19" fill="none">
  <path d="M-1.64292e-05 17.6456H18.4814L29.4943 14.0534L42.9671 16.3556L54.1989 12.5319L59.0805 8.48771H69.4509L77.5868 5.19724L85.9607 8.07884L90.7425 3.49661L103.259 8.24072L113.703 9.45959L124.71 14.0201L138.966 15.4997L145.394 13.0089L152.429 15.5456L157.363 13.0301L163.373 15.5368L169.45 13.319L175.973 15.5015L186.141 14.1554L198.717 7.88323L215.196 9.77341L226.099 5.39593L232.078 7.88966L246.41 5.36045L260.283 9.81633L268.194 5.27903L276.174 1.3125L284.818 5.3404H294.705L303.073 9.82004L313.584 6.01246L327.606 10.6519L337.594 17.7324L343.804 15.1887L348.711 17.6908L358.145 15.1447L368.603 17.6702L371.888 16.728L375 17.6203" stroke="black" stroke-width="2"/>
</svg>