<svg xmlns="http://www.w3.org/2000/svg" width="1446" height="67" viewBox="0 0 1446 67" fill="none">
  <path d="M0.599911 64.9283H71.8052L114.236 51.0883L166.143 59.9581L209.417 45.226L228.225 29.6447H268.181L299.526 16.9671L331.789 28.0694L350.213 10.4149L398.438 28.693L438.676 33.3891L481.082 50.96L536.01 56.6606L560.774 47.0641L587.879 56.8373L606.89 47.1455L630.044 56.8035L653.456 48.2587L678.59 56.6674L717.764 51.4811L766.218 27.3157L829.706 34.5982L871.715 17.7327L894.749 27.3405L949.967 17.5959L1003.42 34.7636L1033.9 17.2822L1064.64 2L1097.95 17.5187H1136.04L1168.28 34.7778L1208.78 20.108L1262.8 37.9829L1301.28 65.2627L1325.21 55.4622L1344.12 65.1022L1380.46 55.2928L1420.75 65.0231L1433.41 61.393L1445.4 64.8308" stroke="black" stroke-width="3"/>
</svg>