<svg xmlns="http://www.w3.org/2000/svg" width="376" height="38" viewBox="0 0 376 38" fill="none">
  <path d="M-0.00012207 36.5C8.77029 36.5 27.7213 22.3273 33.8568 17.5776C39.3771 13.3035 44.6725 9.20357 53.1676 9.20357C61.8389 9.20357 68.7434 13.4738 76.5507 18.3403L76.6564 18.4061C84.409 23.2387 93.013 28.6019 104.993 30.6413L105.004 30.6431L105.014 30.6444C111.353 31.3959 117.557 29.1773 122.126 25.6165C126.496 22.2104 130.589 17.538 130.589 12.0431C130.589 6.54819 125.83 1 120.337 1C114.614 1 109.695 6.37794 109.695 12.0431C109.695 16.4197 113.632 22.5874 119.138 25.4612C124.754 28.3924 131.38 30.2365 137.996 30.6466C150.515 31.4224 159.366 26.4691 167.287 21.3839C168.099 20.8624 168.901 20.3401 169.695 19.8225C172.786 17.8092 175.767 15.8669 178.836 14.3227C182.685 12.3861 186.636 11.0956 191.046 11.0956C199.178 11.0956 205.256 15.7224 211.934 20.5531C218.572 25.355 225.762 30.3167 236.029 30.6472C244.839 30.9307 252.066 29.278 257.439 26.7096L259.839 25.4316C265.363 22.161 268.39 15.7868 268.39 12.0431C268.39 6.5926 264.783 1 258.288 1C251.74 1 248.329 6.56988 248.329 12.0431C248.329 15.265 250.887 21.6992 255.21 25.1287C260.099 29.0083 266.79 31.0454 272.983 30.6465C284.723 29.8902 294.157 25.0625 303.253 19.2754C309.884 15.0569 315.832 10.8316 324.838 11.0966C332.627 11.3258 337.785 14.4725 343.48 18.2368C349.584 22.272 366.243 36.5003 376 36.5" stroke-width="2"/>
</svg>