<svg xmlns="http://www.w3.org/2000/svg" width="1443" height="119" viewBox="0 0 1443 119" fill="none">
  <path d="M0.600098 100.732C72.9263 100.732 109.737 33.6628 188.212 33.6628C221.62 33.6628 264.222 50.1443 294.302 68.9272L294.709 69.1814C324.578 87.8333 357.728 108.533 403.884 116.405L403.925 116.412L403.966 116.417C428.387 119.317 452.292 110.754 469.894 97.0107C486.732 83.8647 502.499 65.8309 502.499 44.6224C502.499 23.414 484.163 1.99988 462.999 1.99988C440.953 1.99988 422 22.7569 422 44.6224C422 61.5145 437.166 85.3198 458.381 96.4115C480.019 107.725 505.547 114.843 531.036 116.425C579.269 119.42 613.371 100.302 643.89 80.6744C647.019 78.6619 650.108 76.646 653.168 74.6483C665.075 66.8774 676.561 59.3809 688.385 53.4209C703.215 45.9461 718.439 40.9652 735.429 40.9652C766.758 40.9652 790.176 58.823 815.905 77.4681C841.481 96.0018 869.183 115.152 908.74 116.428C942.681 117.522 970.525 111.143 991.228 101.23L1000.48 96.2971C1021.76 83.6741 1033.42 59.0718 1033.42 44.6224C1033.42 23.5853 1019.52 1.99988 994.5 1.99988C969.27 1.99988 956.128 23.4977 956.128 44.6224C956.128 57.0578 965.986 81.8915 982.638 95.1282C1000.06 108.977 1029.56 117.816 1051.11 116.425C1096.35 113.506 1132.7 94.8728 1167.74 72.5365C1202 48 1240.18 32.9458 1274.9 33.9692C1344.99 36.0346 1375.08 100.734 1442.22 100.732"  stroke="black" stroke-width="3"/>
</svg>