<svg xmlns="http://www.w3.org/2000/svg" width="1445" height="178" viewBox="0 0 1445 178" fill="none">
<path d="M0 176L33 170L72.6 121.453L96.6 130L118.8 91L145.2 88.7485L183.6 42.5L210 37.7285L246 2L304.2 32.2984L322.8 58L353.4 83.6605L393.6 91L438.6 104.453L479.4 151L501.6 134.5L527.4 119.565L552.6 98.5L566.4 104.453L594.6 80.5L630.6 66.6605L683.4 112.453L712.8 98.5L744.6 126.5L771 111.565H791.4L840 74.5L883.8 100.064L913.8 126.5H933.6L967.2 145L1003.2 105L1051.8 91L1090.19 83.6605L1122 58L1145.99 32.2984L1221.6 2L1251.5 37.7285L1291.8 42.5L1315.19 88.7485L1357.8 91L1380 138L1400.4 132L1417.2 170L1444.8 176" stroke="black" stroke-width="3"/>
</svg>