<svg xmlns="http://www.w3.org/2000/svg" width="377" height="49" viewBox="0 0 377 49" fill="none">
  <path d="M1 47.1515L9.5652 45.5942L19.8434 32.9937L26.0727 35.2122L31.8347 25.0897L38.6869 24.5053L48.6537 12.5014L55.5058 11.263L64.8497 1.98959L79.9556 9.85358L84.7832 16.5245L92.7255 20.1847L103.159 14.0897L114.839 24.0701L125.429 36.1515L131.191 31.869L137.887 27.9925L144.428 22.5251L148.01 24.0701L155.329 17.8532L164.673 14.2611L178.378 26.1465L186.008 22.5251L194.262 29.7925L201.114 25.9161H206.409L219.023 16.2959L230.392 22.931L238.178 29.7925H243.317L252.038 34.5942L261.382 24.2122L273.996 14.0897L283.96 20.1847L292.217 16.5245L298.442 9.85358L318.068 1.98959L325.829 11.263L336.289 12.5014L342.359 24.5053L353.419 25.0897L359.181 37.2886L364.476 35.7313L368.836 45.5942L376 47.1515" stroke="black" stroke-width="2"/>
</svg>