<svg xmlns="http://www.w3.org/2000/svg" width="377" height="35" viewBox="0 0 377 35" fill="none">
  <path d="M1 33.7917C28.4086 33.7917 12.9913 24.5114 46.0062 24.5114C79.0212 24.5114 79.3424 2.30981 100.979 2.30981C114.995 2.30981 108.454 9.65722 137.732 13.0932C159.127 15.6041 148.01 27.7916 174.951 27.7916C194.729 27.7916 194.592 13.0932 209.679 13.0932C218.868 13.0932 223.539 23.1439 235.375 18.5115C249.092 13.1426 260.603 -2.97629 276.488 2.30981C292.373 7.59592 300.003 22.5871 312.929 24.5114C329.378 26.9603 333.33 20.8112 343.919 23.7185C354.509 26.6259 362.607 33.7917 376 33.7917" stroke="black" stroke-width="2" stroke-linecap="square"/>
</svg>