<svg xmlns="http://www.w3.org/2000/svg" width="1442" height="129" viewBox="0 0 1442 129" fill="none">
  <path d="M0 127C105.249 127 46.0465 91.364 172.824 91.364C299.601 91.364 300.835 6.10976 383.92 6.10976C437.741 6.10976 412.625 40.3638 525.05 53.5579C607.207 63.1998 564.518 110 667.973 110C743.92 110 743.395 53.5579 801.329 53.5579C836.611 53.5579 854.552 92.1525 900 74.3641C952.674 53.7476 996.877 -14.1889 1057.87 6.10976C1118.87 26.4084 1148.17 83.9746 1197.81 91.364C1260.97 100.768 1276.15 77.155 1316.81 88.3192C1357.48 99.4835 1388.57 127 1440 127" stroke="black" stroke-width="3" stroke-linecap="square"/>
</svg>