<svg width="25" height="24" viewBox="0 0 25 24" fill="none" xmlns="http://www.w3.org/2000/svg">
<path d="M12.7998 3C7.82928 3 3.7998 7.02948 3.7998 12C3.7998 16.2206 6.70572 19.7623 10.6258 20.735V14.7504H8.76996V12H10.6258V10.8149C10.6258 7.75164 12.0121 6.3318 15.0196 6.3318C15.5898 6.3318 16.5737 6.44376 16.9762 6.55536V9.04836C16.7638 9.02604 16.3948 9.01488 15.9365 9.01488C14.4608 9.01488 13.8906 9.57396 13.8906 11.0273V12H16.8304L16.3253 14.7504H13.8906V20.9341C18.347 20.3959 21.8002 16.6015 21.8002 12C21.7998 7.02948 17.7703 3 12.7998 3Z" fill="currentColor"/>
</svg>
