<svg width="25" height="24" viewBox="0 0 25 24" fill="none" xmlns="http://www.w3.org/2000/svg">
<path d="M21.4249 7.96773C21.2175 7.19279 20.6085 6.5838 19.8336 6.37636C18.4289 6 12.7998 6 12.7998 6C12.7998 6 7.17073 6 5.76754 6.37636C4.99259 6.5838 4.3836 7.19279 4.17616 7.96773C3.7998 9.37093 3.7998 12.3003 3.7998 12.3003C3.7998 12.3003 3.7998 15.2297 4.17616 16.6329C4.3836 17.4078 4.99259 18.0168 5.76754 18.2242C7.17073 18.6006 12.7998 18.6006 12.7998 18.6006C12.7998 18.6006 18.4289 18.6006 19.8321 18.2242C20.607 18.0168 21.216 17.4078 21.4234 16.6329C21.7998 15.2297 21.7998 12.3003 21.7998 12.3003C21.7998 12.3003 21.7998 9.37093 21.4234 7.96773H21.4249ZM10.9995 15V9.60059L15.6758 12.3003L10.9995 15Z" fill="currentColor"/>
</svg>
